{
.formatVersion = 3;
axes = (
{
name = Weight;
tag = wght;
}
);
classes = (
{
code = "space parenleft parenright hyphen slash at A J O bracketleft bracketright a f i j o braceleft braceright guillemotleft guillemotright germandbls Scedilla scedilla Tcedilla tcedilla gravecomb acutecomb circumflexcomb tildecomb macroncomb brevecomb dotaccentcomb dieresiscomb hookabovecomb hungarumlautcomb caroncomb dblgravecomb breveinvertedcomb Alphatonos Epsilontonos Etatonos Iotatonos Omicrontonos Upsilontonos Omegatonos Iota Upsilon Decyr Elcyr Efcyr becyr vecyr gecyr decyr zhecyr zecyr icyr ishortcyr kacyr elcyr pecyr tecyr efcyr tsecyr shacyr shchacyr hardcyr softcyr yucyr igravecyr Gestrokecyr gestrokecyr Zetailcyr zetailcyr endash emdash bullet guilsinglleft guilsinglright circumflexcomb_acutecomb circumflexcomb_gravecomb circumflexcomb_hookabovecomb circumflexcomb_tildecomb brevecomb_acutecomb brevecomb_gravecomb brevecomb_hookabovecomb brevecomb_tildecomb";
name = aalt;
},
{

glyphs = (
{
glyphname = .notdef;
layers = (
{
layerId = "B73C764B-EEC1-4CAF-B436-916766E5142A";
shapes = (
{
closed = 1;
nodes = (
(-195,-384,l),
(343,1636,l),
(1473,1636,l),
(936,-384,l)
);
},
{
closed = 1;
nodes = (
(3,-224,l),
(813,-224,l),
(1275,1476,l),
(466,1476,l)
);
}
);
width = 1210;
},
{
layerId = "2619DEE8-C08B-47F7-A010-C7FC63110412";
shapes = (
{
closed = 1;
nodes = (
(-160,-384,l),
(376,1636,l),
(1473,1636,l),
(937,-384,l)
);
},
{
closed = 1;
nodes = (
(-28,-278,l),
(856,-278,l),
(1340,1530,l),
(455,1530,l)
);
}
);
width = 1243;
},
{
layerId = "E9B47305-927A-4F8D-A320-B0B953B21E21";
shapes = (
{
closed = 1;
nodes = (
(-148,-384,l),
(388,1636,l),
(1473,1636,l),
(937,-384,l)
);
},
{
closed = 1;
nodes = (
(-40,-299,l),
(873,-299,l),
(1365,1551,l),
(452,1551,l)
);
}
);
width = 1255;
},
{
layerId = "F0D7A2F7-B8FF-408B-8955-93892ED6432C";
shapes = (
{
closed = 1;
nodes = (
(-133,-384,l),
(403,1636,l),
(1473,1636,l),
(938,-384,l)
);
},
{
closed = 1;
nodes = (
(-55,-324,l),
(893,-324,l),
(1395,1576,l),
(448,1576,l)
);
}
);
width = 1270;
}
);
},
{
glyphname = A;
layers = (
{
anchors = (
{
name = bottom;
position = "{618, 0}";
},
{
name = ogonek;
position = "{1346, 0}";
},
{
name = top;
position = "{993, 1426}";
},
{
name = topleft;
position = "{573, 1426}";
}
);
layerId = "B73C764B-EEC1-4CAF-B436-916766E5142A";
shapes = (
{
closed = 1;
nodes = (
(414,0,l),
(475,133,o),
(542,279,o),
(602,414,cs),
(878,1020,l),
(910,1020,l),
(883,411,ls),
(876,279,o),
(870,135,o),
(865,0,c),
(1341,0,l),
(1339,75,o),
(1337,155,o),
(1335,238,cs),
(1332,321,o),
(1330,400,o),
(1328,475,cs),
(1314,975,ls),
(1311,1062,o),
(1310,1138,o),
(1308,1210,cs),
(1306,1282,o),
(1305,1351,o),
(1302,1426,c),
(676,1426,l),
(635,1351,o),
(595,1280,o),
(555,1207,cs),
(514,1134,o),
(473,1059,o),
(426,976,cs),
(157,488,ls),
(113,411,o),
(68,328,o),
(22,245,cs),
(-25,161,o),
(-70,79,o),
(-114,0,c)
);
},
{
closed = 1;
nodes = (
(1025,232,l),
(1072,592,l),
(528,592,l),
(379,232,l)
);
}
);
width = 1498;
},
{
anchors = (
{
name = bottom;
position = "{583, 0}";
},
{
name = ogonek;
position = "{1253, 0}";
},
{
name = top;
position = "{958, 1426}";
},
{
name = topleft;
position = "{525, 1426}";
}
);
layerId = "2619DEE8-C08B-47F7-A010-C7FC63110412";
shapes = (
{
closed = 1;
nodes = (
(199,0,l),
(291,160,o),
(387,328,o),
(479,487,cs),
(888,1201,l),
(909,1201,l),
(948,485,ls),
(957,329,o),
(967,157,o),
(975,0,c),
(1229,0,l),
(1223,75,o),
(1217,154,o),
(1211,238,cs),
(1204,322,o),
(1198,403,o),
(1191,481,cs),
(1153,974,ls),
(1146,1061,o),
(1141,1138,o),
(1135,1211,cs),
(1129,1284,o),
(1123,1354,o),
(1118,1426,c),
(779,1426,l),
(734,1351,o),
(691,1280,o),
(647,1208,cs),
(603,1135,o),
(558,1059,o),
(507,976,cs),
(212,487,ls),
(165,410,o),
(115,327,o),
(65,244,cs),
(15,160,o),
(-36,77,o),
(-83,0,c)
);
},
{
closed = 1;
nodes = (
(1034,326,l),
(1064,523,l),
(386,523,l),
(310,326,l)
);
}
);
width = 1410;
},
{
anchors = (
{
name = bottom;
position = "{558, 0}";
},
{
name = ogonek;
position = "{1187, 0}";
},
{
name = top;
position = "{933, 1426}";
},
{
name = topleft;
position = "{491, 1426}";
}
);
layerId = "E9B47305-927A-4F8D-A320-B0B953B21E21";
shapes = (
{
closed = 1;
nodes = (
(118,0,l),
(221,170,o),
(329,347,o),
(432,515,cs),
(892,1270,l),
(909,1270,l),
(973,514,l),
(988,349,o),
(1003,166,o),
(1017,0,c),
(1186,0,l),
(1179,75,o),
(1171,154,o),
(1163,239,cs),
(1155,323,o),
(1147,404,o),
(1139,484,c),
(1092,974,ls),
(1084,1061,o),
(1076,1139,o),
(1069,1212,cs),
(1062,1286,o),
(1055,1355,o),
(1048,1426,c),
(818,1426,l),
(772,1351,o),
(727,1280,o),
(682,1208,cs),
(637,1135,o),
(590,1059,o),
(538,976,c),
(233,487,ls),
(185,410,o),
(133,327,o),
(81,244,cs),
(29,160,o),
(-24,77,o),
(-72,0,c)
);
},
{
closed = 1;
nodes = (
(1038,362,l),
(1061,497,l),
(332,497,l),
(284,362,l)
);
}
);
width = 1377;
},
{
anchors = (
{
name = bottom;
position = "{538, 0}";
},
{
name = ogonek;
position = "{1134, 0}";
},
{
name = top;
position = "{913, 1426}";
},
{
name = topleft;
position = "{464, 1426}";
}
);
layerId = "F0D7A2F7-B8FF-408B-8955-93892ED6432C";
shapes = (
{
closed = 1;
nodes = (
(18,0,l),
(135,183,o),
(258,370,o),
(374,550,cs),
(896,1354,l),
(908,1354,l),
(1003,549,ls),
(1026,373,o),
(1048,177,o),
(1069,0,c),
(1134,0,l),
(1125,75,o),
(1115,155,o),
(1105,240,cs),
(1095,324,o),
(1085,406,o),
(1075,487,cs),
(1017,975,ls),
(1008,1062,o),
(997,1140,o),
(989,1214,cs),
(980,1288,o),
(971,1357,o),
(963,1426,c),
(866,1426,l),
(818,1351,o),
(772,1281,o),
(725,1208,cs),
(678,1135,o),
(630,1060,o),
(575,977,cs),
(258,487,ls),
(209,410,o),
(155,327,o),
(101,244,cs),
(47,160,o),
(-9,77,o),
(-58,0,c)
);
},
{
closed = 1;
nodes = (
(1042,406,l),
(1057,466,l),
(267,466,l),
(252,406,l)
);
}
);
width = 1336;
}
);
leftKerningGroup = A2;
rightKerningGroup = A;
unicode = 65;
},
{
glyphname = AE;
layers = (
{
anchors = (
{
name = bottom;
position = "{1044, 0}";
},
{
name = top;
position = "{1419, 1426}";
}
);
layerId = "B73C764B-EEC1-4CAF-B436-916766E5142A";
shapes = (
{
closed = 1;
nodes = (
(-112,0,l),
(-63,80,o),
(-12,159,o),
(44,243,cs),
(100,327,o),
(150,406,o),
(199,482,cs),
(516,974,ls),
(620,1137,o),
(715,1285,o),
(807,1426,c),
(2193,1426,l),
(2110,1040,l),
(1994,1040,l),
(1706,1040,l),
(1392,1040,l),
(1643,1346,l),
(1623,1270,o),
(1603,1197,o),
(1584,1124,cs),
(1564,1048,o),
(1542,967,o),
(1517,871,c),
(1423,538,l),
(1400,446,o),
(1379,367,o),
(1360,295,cs),
(1341,223,o),
(1321,152,o),
(1302,80,c),
(1218,386,l),
(1532,386,l),
(1669,386,l),
(1918,386,l),
(1832,0,l),
(802,0,l),
(823,76,o),
(842,146,o),
(861,215,cs),
(880,284,o),
(900,365,o),
(925,457,cs),
(1054,947,ls),
(1079,1043,o),
(1101,1122,o),
(1120,1194,cs),
(1139,1266,o),
(1157,1328,o),
(1174,1392,c),
(1336,1040,l),
(1034,1040,l),
(662,427,ls),
(621,358,o),
(579,287,o),
(534,214,cs),
(489,141,o),
(447,69,o),
(404,0,c)
);
},
{
closed = 1;
nodes = (
(432,232,l),
(565,592,l),
(1109,592,l),
(1078,232,l)
);
},
{
closed = 1;
nodes = (
(1321,542,l),
(1396,886,l),
(1640,886,l),
(1852,886,l),
(2022,886,l),
(1947,542,l),
(1772,542,l),
(1565,542,l)
);
}
);
width = 2044;
},
{
anchors = (
{
name = bottom;
position = "{933, 0}";
},
{
name = top;
position = "{1308, 1426}";
}
);
layerId = "2619DEE8-C08B-47F7-A010-C7FC63110412";
shapes = (
{
closed = 1;
nodes = (
(-104,0,l),
(-47,76,o),
(13,156,o),
(78,241,cs),
(142,326,o),
(202,405,o),
(259,481,cs),
(636,982,ls),
(752,1137,o),
(863,1285,o),
(971,1426,c),
(2103,1426,l),
(2052,1208,l),
(1919,1208,l),
(1590,1208,l),
(1304,1208,l),
(1431,1386,l),
(1410,1305,o),
(1390,1229,o),
(1371,1156,cs),
(1351,1083,o),
(1329,1004,o),
(1305,912,cs),
(1195,504,ls),
(1172,419,o),
(1151,342,o),
(1132,266,cs),
(1112,190,o),
(1092,117,o),
(1071,40,c),
(1024,218,l),
(1334,218,l),
(1494,218,l),
(1784,218,l),
(1732,0,l),
(808,0,l),
(829,76,o),
(849,150,o),
(868,223,cs),
(887,295,o),
(908,378,o),
(933,471,cs),
(1058,944,ls),
(1083,1040,o),
(1105,1123,o),
(1124,1195,cs),
(1143,1267,o),
(1162,1337,o),
(1181,1406,c),
(1264,1216,l),
(1092,1216,l),
(548,493,ls),
(488,416,o),
(429,336,o),
(365,248,cs),
(300,160,o),
(238,80,o),
(178,0,c)
);
},
{
closed = 1;
nodes = (
(358,326,l),
(427,524,l),
(1033,524,l),
(1010,326,l)
);
},
{
closed = 1;
nodes = (
(1171,616,l),
(1218,826,l),
(1488,826,l),
(1719,826,l),
(1906,826,l),
(1859,616,l),
(1666,616,l),
(1439,616,l)
);
}
);
width = 1968;
},
{
anchors = (
{
name = bottom;
position = "{883, 0}";
},
{
name = top;
position = "{1258, 1426}";
}
);
layerId = "E9B47305-927A-4F8D-A320-B0B953B21E21";
shapes = (
{
closed = 1;
nodes = (
(-101,0,l),
(-41,76,o),
(22,155,o),
(91,241,cs),
(159,326,o),
(222,406,o),
(283,482,cs),
(678,980,ls),
(805,1139,o),
(919,1284,o),
(1033,1426,c),
(2067,1426,l),
(2031,1278,l),
(1892,1278,l),
(1546,1278,l),
(1266,1278,l),
(1349,1401,l),
(1328,1321,o),
(1308,1245,o),
(1289,1170,cs),
(1269,1096,o),
(1247,1017,o),
(1224,928,cs),
(1108,494,ls),
(1085,409,o),
(1064,332,o),
(1045,256,cs),
(1025,180,o),
(1005,104,o),
(984,26,c),
(959,148,l),
(1256,148,l),
(1424,148,l),
(1730,148,l),
(1693,0,l),
(809,0,l),
(831,78,o),
(851,154,o),
(870,228,cs),
(889,302,o),
(910,382,o),
(934,471,cs),
(1059,944,ls),
(1083,1038,o),
(1105,1120,o),
(1125,1194,cs),
(1144,1267,o),
(1163,1339,o),
(1183,1411,c),
(1237,1283,l),
(1114,1283,l),
(505,519,l),
(439,439,o),
(372,354,o),
(301,262,cs),
(228,170,o),
(159,84,o),
(92,0,c)
);
},
{
closed = 1;
nodes = (
(329,362,l),
(374,498,l),
(1003,498,l),
(984,362,l)
);
},
{
closed = 1;
nodes = (
(1114,651,l),
(1148,795,l),
(1427,795,l),
(1666,795,l),
(1859,795,l),
(1826,651,l),
(1626,651,l),
(1391,651,l)
);
}
);
width = 1938;
},
{
anchors = (
{
name = bottom;
position = "{842, 0}";
},
{
name = top;
position = "{1217, 1426}";
}
);
layerId = "F0D7A2F7-B8FF-408B-8955-93892ED6432C";
shapes = (
{
closed = 1;
nodes = (
(-98,0,l),
(-34,76,o),
(33,154,o),
(106,242,cs),
(179,327,o),
(247,408,o),
(312,484,cs),
(730,978,ls),
(869,1142,o),
(988,1283,o),
(1109,1426,c),
(2023,1426,l),
(2006,1364,l),
(1859,1364,l),
(1492,1364,l),
(1220,1364,l),
(1249,1420,l),
(1228,1340,o),
(1208,1264,o),
(1188,1188,cs),
(1168,1112,o),
(1147,1032,o),
(1124,947,cs),
(1002,482,ls),
(979,397,o),
(958,319,o),
(939,243,cs),
(919,167,o),
(898,89,o),
(877,8,c),
(880,62,l),
(1160,62,l),
(1339,62,l),
(1664,62,l),
(1646,0,l),
(810,0,l),
(833,81,o),
(853,158,o),
(872,234,cs),
(891,310,o),
(912,387,o),
(935,471,cs),
(1060,943,ls),
(1084,1035,o),
(1106,1116,o),
(1126,1192,cs),
(1145,1268,o),
(1165,1341,o),
(1185,1417,c),
(1203,1364,l),
(1140,1364,l),
(452,551,ls),
(380,466,o),
(303,375,o),
(222,279,cs),
(141,182,o),
(62,89,o),
(-14,0,c)
);
},
{
closed = 1;
nodes = (
(294,406,l),
(309,466,l),
(967,466,l),
(952,406,l)
);
},
{
closed = 1;
nodes = (
(1045,694,l),
(1062,756,l),
(1352,756,l),
(1601,756,l),
(1802,756,l),
(1785,694,l),
(1578,694,l),
(1333,694,l)
);
}
);
width = 1902;
}
);
leftKerningGroup = AE;
rightKerningGroup = E;
unicode = 198;
},
{
glyphname = B;
layers = (
{
layerId = "B73C764B-EEC1-4CAF-B436-916766E5142A";
shapes = (
{
closed = 1;
nodes = (
(597,0,ls),
(844,0,o),
(999,31,o),
(1102,93,cs),
(1205,155,o),
(1254,247,o),
(1286,371,cs),
(1313,470,o),
(1300,554,o),
(1264,619,cs),
(1227,684,o),
(1164,731,o),
(1085,752,c),
(1095,784,l),
(1178,796,o),
(1250,812,o),
(1308,848,cs),
(1366,884,o),
(1409,939,o),
(1434,1031,cs),
(1442,1062,o),
(1447,1093,o),
(1448,1124,cs),
(1450,1187,o),
(1430,1246,o),
(1382,1298,c),
(1357,1323,o),
(1324,1346,o),
(1281,1365,cs),
(1196,1403,o),
(1072,1426,o),
(896,1426,cs),
(337,1426,l),
(317,1349,o),
(297,1276,o),
(277,1200,cs),
(257,1123,o),
(235,1043,o),
(210,948,cs),
(80,459,ls),
(55,366,o),
(34,287,o),
(15,215,cs),
(-5,142,o),
(-23,75,o),
(-43,0,c)
);
},
{
closed = 1;
nodes = (
(529,334,l),
(545,397,o),
(563,462,o),
(590,565,cs),
(664,845,ls),
(693,954,o),
(713,1029,o),
(732,1100,c),
(833,1100,ls),
(868,1100,o),
(892,1088,o),
(905,1066,cs),
(918,1044,o),
(922,1012,o),
(911,976,c),
(902,936,o),
(884,909,o),
(861,891,cs),
(838,873,o),
(809,864,o),
(776,864,cs),
(551,864,l),
(474,566,l),
(712,566,ls),
(748,566,o),
(773,554,o),
(787,534,cs),
(801,513,o),
(804,483,o),
(795,448,cs),
(784,407,o),
(767,379,o),
(744,361,cs),
(721,343,o),
(694,334,o),
(662,334,cs)
);
}
);
width = 1362;
},
{
layerId = "2619DEE8-C08B-47F7-A010-C7FC63110412";
shapes = (
{
closed = 1;
nodes = (
(564,0,ls),
(784,0,o),
(928,32,o),
(1024,92,cs),
(1120,152,o),
(1169,240,o),
(1198,349,cs),
(1226,454,o),
(1212,539,o),
(1174,603,cs),
(1136,667,o),
(1075,710,o),
(1008,733,c),
(1015,755,l),
(1094,774,o),
(1161,800,o),
(1217,842,cs),
(1272,884,o),
(1312,944,o),
(1336,1032,cs),
(1345,1067,o),
(1350,1100,o),
(1351,1133,c),
(1351,1198,o),
(1331,1258,o),
(1287,1307,cs),
(1265,1331,o),
(1237,1352,o),
(1202,1370,cs),
(1133,1405,o),
(1035,1426,o),
(907,1426,cs),
(408,1426,l),
(387,1346,o),
(367,1272,o),
(347,1196,cs),
(326,1119,o),
(305,1039,o),
(281,950,cs),
(154,469,ls),
(130,378,o),
(109,300,o),
(89,225,cs),
(69,149,o),
(50,77,o),
(30,0,c)
);
},
{
closed = 1;
nodes = (
(344,210,l),
(369,306,o),
(394,401,o),
(427,524,cs),
(524,893,ls),
(557,1016,o),
(582,1111,o),
(609,1216,c),
(874,1216,ls),
(950,1216,o),
(1006,1198,o),
(1038,1164,cs),
(1070,1130,o),
(1079,1079,o),
(1063,1016,cs),
(1048,959,o),
(1013,909,o),
(961,875,cs),
(908,841,o),
(835,820,o),
(744,820,cs),
(442,820,l),
(389,618,l),
(704,618,ls),
(796,618,o),
(864,596,o),
(904,557,cs),
(944,518,o),
(956,462,o),
(937,391,cs),
(920,326,o),
(886,280,o),
(830,251,cs),
(774,222,o),
(696,210,o),
(591,210,cs)
);
}
);
width = 1308;
},
{
layerId = "E9B47305-927A-4F8D-A320-B0B953B21E21";
shapes = (
{
closed = 1;
nodes = (
(551,0,ls),
(764,0,o),
(903,32,o),
(997,92,cs),
(1091,151,o),
(1139,236,o),
(1167,341,cs),
(1195,449,o),
(1180,533,o),
(1143,597,cs),
(1105,660,o),
(1044,703,o),
(982,727,c),
(988,744,l),
(1066,765,o),
(1132,794,o),
(1186,839,cs),
(1240,884,o),
(1279,946,o),
(1303,1033,cs),
(1312,1069,o),
(1317,1104,o),
(1317,1137,cs),
(1317,1203,o),
(1296,1263,o),
(1254,1311,c),
(1232,1334,o),
(1206,1355,o),
(1173,1372,cs),
(1108,1406,o),
(1020,1426,o),
(907,1426,cs),
(435,1426,l),
(414,1346,o),
(394,1271,o),
(374,1194,cs),
(353,1116,o),
(332,1037,o),
(308,950,cs),
(182,473,ls),
(158,384,o),
(138,306,o),
(118,230,cs),
(97,153,o),
(77,78,o),
(57,0,c)
);
},
{
closed = 1;
nodes = (
(267,143,l),
(296,257,o),
(325,365,o),
(361,502,cs),
(471,920,ls),
(507,1054,o),
(537,1165,o),
(567,1283,c),
(886,1283,ls),
(982,1283,o),
(1053,1259,o),
(1093,1216,cs),
(1133,1172,o),
(1145,1108,o),
(1124,1029,cs),
(1105,959,o),
(1066,900,o),
(1003,858,cs),
(940,816,o),
(853,791,o),
(740,791,cs),
(397,791,l),
(360,653,l),
(718,653,ls),
(826,653,o),
(907,627,o),
(955,579,cs),
(1003,530,o),
(1018,460,o),
(995,370,cs),
(974,290,o),
(933,233,o),
(865,196,cs),
(796,159,o),
(698,143,o),
(564,143,cs)
);
}
);
width = 1289;
},
{
layerId = "F0D7A2F7-B8FF-408B-8955-93892ED6432C";
shapes = (
{
closed = 1;
nodes = (
(536,0,ls),
(739,0,o),
(873,33,o),
(964,91,cs),
(1055,149,o),
(1102,231,o),
(1129,331,cs),
(1157,442,o),
(1141,526,o),
(1104,589,cs),
(1067,652,o),
(1007,694,o),
(950,719,c),
(955,731,l),
(1031,755,o),
(1097,787,o),
(1149,836,cs),
(1201,884,o),
(1239,949,o),
(1262,1034,cs),
(1272,1072,o),
(1277,1108,o),
(1276,1142,cs),
(1275,1210,o),
(1253,1268,o),
(1213,1315,c),
(1192,1338,o),
(1167,1358,o),
(1138,1375,c),
(1078,1407,o),
(1002,1426,o),
(907,1426,cs),
(468,1426,l),
(447,1346,o),
(426,1269,o),
(406,1191,cs),
(385,1113,o),
(365,1034,o),
(342,949,cs),
(216,477,ls),
(193,392,o),
(173,314,o),
(153,236,cs),
(132,158,o),
(111,80,o),
(90,0,c)
);
},
{
closed = 1;
nodes = (
(172,62,l),
(207,197,o),
(240,322,o),
(280,474,cs),
(407,953,ls),
(446,1101,o),
(481,1232,o),
(516,1364,c),
(901,1364,ls),
(1022,1364,o),
(1111,1334,o),
(1161,1279,cs),
(1211,1224,o),
(1225,1144,o),
(1198,1044,cs),
(1175,960,o),
(1130,888,o),
(1055,837,cs),
(980,786,o),
(876,756,o),
(736,756,cs),
(342,756,l),
(325,696,l),
(736,696,ls),
(863,696,o),
(960,665,o),
(1018,605,cs),
(1076,545,o),
(1094,457,o),
(1065,344,cs),
(1040,245,o),
(991,175,o),
(907,129,cs),
(822,83,o),
(701,62,o),
(530,62,cs)
);
}
);
width = 1266;
}
);
leftKerningGroup = B;
unicode = 66;
},
{
glyphname = Becyr;
layers = (
{
layerId = "B73C764B-EEC1-4CAF-B436-916766E5142A";
shapes = (
{
closed = 1;
nodes = (
(693,0,ls),
(864,0,o),
(992,31,o),
(1088,96,cs),
(1184,160,o),
(1246,259,o),
(1282,392,cs),
(1327,563,o),
(1301,683,o),
(1220,763,cs),
(1139,842,o),
(1001,878,o),
(825,878,cs),
(618,878,l),
(538,575,l),
(716,575,ls),
(727,575,o),
(738,574,o),
(747,571,cs),
(766,566,o),
(781,555,o),
(791,540,cs),
(796,533,o),
(799,524,o),
(802,515,c),
(806,496,o),
(806,473,o),
(799,448,cs),
(788,411,o),
(775,384,o),
(754,368,cs),
(733,351,o),
(704,344,o),
(663,344,cs),
(533,344,l),
(541,372,o),
(549,403,o),
(558,436,cs),
(566,468,o),
(576,502,o),
(585,538,cs),
(672,867,ls),
(697,963,o),
(719,1044,o),
(740,1121,cs),
(760,1197,o),
(780,1269,o),
(800,1346,c),
(515,1032,l),
(849,1032,l),
(1353,1032,l),
(1456,1426,l),
(339,1426,l),
(318,1346,o),
(298,1274,o),
(278,1198,cs),
(257,1122,o),
(236,1043,o),
(211,948,cs),
(81,461,ls),
(56,366,o),
(36,288,o),
(17,216,cs),
(-3,143,o),
(-21,76,o),
(-41,0,c)
);
}
);
width = 1350;
},
{
layerId = "2619DEE8-C08B-47F7-A010-C7FC63110412";
shapes = (
{
closed = 1;
nodes = (
(598,0,ls),
(785,0,o),
(913,34,o),
(1005,102,cs),
(1096,169,o),
(1148,269,o),
(1183,400,cs),
(1220,539,o),
(1200,656,o),
(1130,738,cs),
(1060,820,o),
(939,867,o),
(778,867,cs),
(486,867,l),
(431,661,l),
(713,661,ls),
(734,661,o),
(755,659,o),
(776,656,cs),
(817,649,o),
(855,635,o),
(884,611,cs),
(899,599,o),
(910,584,o),
(919,567,c),
(936,531,o),
(939,484,o),
(923,423,cs),
(899,334,o),
(870,281,o),
(819,250,cs),
(768,219,o),
(699,210,o),
(595,210,cs),
(345,210,l),
(358,262,o),
(370,306,o),
(383,353,cs),
(395,400,o),
(407,448,o),
(423,508,cs),
(530,909,ls),
(554,1000,o),
(575,1080,o),
(596,1157,cs),
(616,1234,o),
(636,1309,o),
(656,1386,c),
(454,1198,l),
(799,1198,l),
(1307,1198,l),
(1367,1426,l),
(410,1426,l),
(390,1349,o),
(370,1275,o),
(349,1197,cs),
(328,1119,o),
(306,1036,o),
(282,944,cs),
(156,468,ls),
(132,379,o),
(111,300,o),
(91,225,cs),
(71,150,o),
(52,79,o),
(32,0,c)
);
}
);
width = 1278;
},
{
layerId = "E9B47305-927A-4F8D-A320-B0B953B21E21";
shapes = (
{
closed = 1;
nodes = (
(562,0,ls),
(755,0,o),
(883,33,o),
(972,98,cs),
(1060,162,o),
(1108,260,o),
(1142,386,cs),
(1177,518,o),
(1158,630,o),
(1091,710,cs),
(1024,789,o),
(908,836,o),
(753,836,cs),
(428,836,l),
(390,695,l),
(712,695,ls),
(736,695,o),
(762,693,o),
(787,689,cs),
(838,682,o),
(884,666,o),
(920,637,c),
(939,623,o),
(953,605,o),
(964,584,cs),
(986,540,o),
(990,482,o),
(969,405,cs),
(941,298,o),
(904,232,o),
(842,194,cs),
(779,155,o),
(692,143,o),
(564,143,cs),
(268,143,l),
(284,204,o),
(298,259,o),
(314,315,c),
(328,372,o),
(343,429,o),
(361,498,cs),
(474,925,ls),
(498,1014,o),
(519,1094,o),
(540,1171,cs),
(560,1248,o),
(580,1323,o),
(600,1401,c),
(468,1273,l),
(782,1273,l),
(1293,1273,l),
(1333,1426,l),
(437,1426,l),
(417,1348,o),
(396,1273,o),
(376,1195,cs),
(355,1117,o),
(333,1036,o),
(309,944,cs),
(184,472,ls),
(160,384,o),
(139,305,o),
(119,229,cs),
(99,153,o),
(79,79,o),
(59,0,c)
);
}
);
width = 1251;
},
{
layerId = "F0D7A2F7-B8FF-408B-8955-93892ED6432C";
shapes = (
{
closed = 1;
nodes = (
(518,0,ls),
(719,0,o),
(847,32,o),
(932,93,cs),
(1016,154,o),
(1060,248,o),
(1092,369,cs),
(1124,492,o),
(1107,599,o),
(1044,676,cs),
(980,752,o),
(871,798,o),
(723,798,cs),
(357,798,l),
(340,736,l),
(710,736,ls),
(739,736,o),
(770,734,o),
(801,730,cs),
(863,722,o),
(919,703,o),
(965,669,cs),
(988,652,o),
(1006,630,o),
(1019,604,cs),
(1046,551,o),
(1053,479,o),
(1026,382,c),
(993,253,o),
(946,173,o),
(869,125,cs),
(792,77,o),
(683,62,o),
(526,62,cs),
(174,62,l),
(193,134,o),
(211,201,o),
(229,269,cs),
(247,337,o),
(265,406,o),
(285,485,cs),
(406,944,ls),
(429,1031,o),
(450,1111,o),
(471,1188,cs),
(491,1265,o),
(511,1340,o),
(532,1420,c),
(485,1364,l),
(761,1364,l),
(1275,1364,l),
(1292,1426,l),
(470,1426,l),
(449,1346,o),
(428,1271,o),
(408,1193,cs),
(387,1115,o),
(366,1035,o),
(342,944,cs),
(218,476,ls),
(195,389,o),
(174,310,o),
(154,233,cs),
(134,156,o),
(113,80,o),
(92,0,c)
);
}
);
width = 1218;
}
);
rightKerningGroup = uni0405;
unicode = 1041;
},
{
glyphname = C;
layers = (
{
anchors = (
{
name = bottom;
position = "{654, 0}";
},
{
name = top;
position = "{1029, 1426}";
}
);
layerId = "B73C764B-EEC1-4CAF-B436-916766E5142A";
shapes = (
{
closed = 1;
nodes = (
(819,-32,o),
(892,-27,o),
(964,-17,cs),
(1035,-7,o),
(1105,10,o),
(1160,30,c),
(1260,497,l),
(1109,412,o),
(970,364,o),
(867,364,cs),
(828,364,o),
(793,369,o),
(763,380,cs),
(703,401,o),
(661,439,o),
(636,489,cs),
(623,514,o),
(614,540,o),
(609,569,cs),
(598,626,o),
(602,690,o),
(618,750,cs),
(649,866,o),
(701,941,o),
(765,986,cs),
(829,1031,o),
(905,1048,o),
(978,1048,cs),
(1046,1048,o),
(1109,1034,o),
(1172,1009,cs),
(1235,984,o),
(1297,949,o),
(1362,906,c),
(1513,1344,l),
(1444,1380,o),
(1357,1408,o),
(1266,1428,cs),
(1175,1448,o),
(1082,1458,o),
(1001,1458,cs),
(754,1458,o),
(563,1408,o),
(420,1305,cs),
(276,1201,o),
(181,1044,o),
(126,831,cs),
(106,755,o),
(96,681,o),
(95,609,cs),
(94,464,o),
(129,335,o),
(201,228,cs),
(237,175,o),
(282,129,o),
(336,90,cs),
(443,13,o),
(585,-32,o),
(760,-32,cs)
);
}
);
width = 1364;
},
{
anchors = (
{
name = bottom;
position = "{662, 0}";
},
{
name = top;
position = "{1028, 1426}";
}
);
layerId = "2619DEE8-C08B-47F7-A010-C7FC63110412";
shapes = (
{
closed = 1;
nodes = (
(818,-24,o),
(891,-18,o),
(961,-4,cs),
(1031,11,o),
(1098,30,o),
(1151,58,c),
(1201,317,l),
(1066,232,o),
(925,193,o),
(800,193,cs),
(743,193,o),
(692,201,o),
(647,217,cs),
(558,248,o),
(493,303,o),
(453,378,cs),
(433,415,o),
(419,456,o),
(410,499,cs),
(392,586,o),
(397,683,o),
(422,779,cs),
(465,942,o),
(542,1054,o),
(642,1126,cs),
(741,1198,o),
(863,1230,o),
(998,1230,cs),
(1077,1230,o),
(1147,1219,o),
(1215,1196,cs),
(1283,1173,o),
(1347,1139,o),
(1414,1092,c),
(1497,1327,l),
(1433,1368,o),
(1354,1400,o),
(1270,1421,cs),
(1186,1442,o),
(1096,1454,o),
(1011,1454,cs),
(787,1454,o),
(603,1403,o),
(461,1299,cs),
(319,1194,o),
(218,1036,o),
(162,824,cs),
(143,751,o),
(132,680,o),
(131,610,cs),
(128,470,o),
(161,343,o),
(227,237,cs),
(260,184,o),
(301,138,o),
(351,99,cs),
(451,22,o),
(584,-24,o),
(751,-24,cs)
);
}
);
width = 1368;
},
{
anchors = (
{
name = bottom;
position = "{668, 0}";
},
{
name = top;
position = "{1028, 1426}";
}
);
layerId = "E9B47305-927A-4F8D-A320-B0B953B21E21";
shapes = (
{
closed = 1;
nodes = (
(818,-21,o),
(891,-14,o),
(960,1,cs),
(1029,16,o),
(1095,39,o),
(1148,69,c),
(1179,248,l),
(1051,164,o),
(909,128,o),
(775,128,cs),
(711,128,o),
(654,137,o),
(604,154,cs),
(504,189,o),
(430,251,o),
(385,336,c),
(361,377,o),
(345,423,o),
(335,472,cs),
(314,570,o),
(320,680,o),
(348,790,cs),
(397,971,o),
(482,1098,o),
(595,1180,cs),
(708,1262,o),
(849,1299,o),
(1006,1299,cs),
(1089,1299,o),
(1162,1290,o),
(1232,1268,cs),
(1302,1245,o),
(1368,1212,o),
(1435,1163,c),
(1492,1321,l),
(1430,1363,o),
(1354,1396,o),
(1273,1418,cs),
(1191,1440,o),
(1102,1452,o),
(1016,1452,cs),
(801,1452,o),
(620,1401,o),
(478,1296,cs),
(336,1191,o),
(232,1033,o),
(176,821,cs),
(158,750,o),
(147,680,o),
(146,611,cs),
(142,472,o),
(174,346,o),
(237,240,cs),
(269,187,o),
(310,141,o),
(358,102,cs),
(456,25,o),
(585,-21,o),
(749,-21,cs)
);
}
);
width = 1370;
},
{
anchors = (
{
name = bottom;
position = "{673, 0}";
},
{
name = top;
position = "{1028, 1426}";
}
);
layerId = "F0D7A2F7-B8FF-408B-8955-93892ED6432C";
shapes = (
{
closed = 1;
nodes = (
(818,-18,o),
(891,-10,o),
(959,7,cs),
(1027,23,o),
(1092,49,o),
(1145,82,c),
(1153,164,l),
(1032,80,o),
(890,48,o),
(745,48,cs),
(672,48,o),
(608,58,o),
(551,78,cs),
(438,117,o),
(354,188,o),
(301,284,cs),
(274,331,o),
(255,383,o),
(243,439,cs),
(219,551,o),
(225,677,o),
(258,804,cs),
(313,1007,o),
(409,1152,o),
(538,1246,cs),
(667,1340,o),
(831,1384,o),
(1016,1384,cs),
(1103,1384,o),
(1181,1376,o),
(1253,1355,cs),
(1325,1334,o),
(1393,1301,o),
(1460,1250,c),
(1485,1313,l),
(1426,1357,o),
(1355,1392,o),
(1276,1415,cs),
(1196,1438,o),
(1109,1450,o),
(1021,1450,cs),
(817,1450,o),
(640,1398,o),
(498,1293,cs),
(356,1188,o),
(250,1030,o),
(194,818,cs),
(176,749,o),
(166,680,o),
(164,612,cs),
(160,475,o),
(189,350,o),
(250,244,cs),
(281,191,o),
(320,145,o),
(367,106,cs),
(461,29,o),
(587,-18,o),
(746,-18,cs)
);
}
);
width = 1372;
}
);
leftKerningGroup = C2;
rightKerningGroup = C;
unicode = 67;
},
{
glyphname = Checyr;
layers = (
{
anchors = (
{
name = "#exit";
position = "{1208, 0}";
},
{
name = top;
position = "{948, 1426}";
}
);
layerId = "B73C764B-EEC1-4CAF-B436-916766E5142A";
shapes = (
{
closed = 1;
nodes = (
(1212,0,l),
(1232,75,o),
(1250,142,o),
(1270,215,cs),
(1289,287,o),
(1309,366,o),
(1334,459,cs),
(1464,948,ls),
(1489,1043,o),
(1510,1122,o),
(1531,1198,cs),
(1551,1274,o),
(1571,1346,o),
(1592,1426,c),
(1097,1426,l),
(1076,1346,o),
(1057,1274,o),
(1037,1198,cs),
(1016,1122,o),
(995,1043,o),
(970,948,cs),
(940,838,l),
(892,815,o),
(848,806,o),
(789,806,cs),
(733,806,o),
(701,824,o),
(685,851,cs),
(669,878,o),
(671,915,o),
(680,951,cs),
(692,998,l),
(711,1066,o),
(728,1130,o),
(746,1199,cs),
(764,1268,o),
(783,1341,o),
(806,1426,c),
(311,1426,l),
(295,1367,o),
(280,1312,o),
(264,1252,cs),
(247,1192,o),
(229,1128,o),
(209,1052,cs),
(200,1021,o),
(194,998,o),
(185,966,c),
(140,791,o),
(168,657,o),
(245,566,cs),
(321,474,o),
(448,427,o),
(597,427,cs),
(649,427,o),
(689,431,o),
(727,437,cs),
(765,443,o),
(800,452,o),
(841,463,c),
(830,421,ls),
(807,337,o),
(788,265,o),
(770,197,cs),
(752,129,o),
(734,65,o),
(717,0,c)
);
}
);
width = 1434;
},
{
anchors = (
{
name = "#exit";
position = "{1103, 0}";
},
{
name = top;
position = "{910, 1426}";
}
);
layerId = "2619DEE8-C08B-47F7-A010-C7FC63110412";
shapes = (
{
closed = 1;
nodes = (
(1081,0,l),
(1102,79,o),
(1121,150,o),
(1141,225,cs),
(1161,300,o),
(1182,378,o),
(1206,469,cs),
(1333,945,ls),
(1357,1037,o),
(1378,1118,o),
(1399,1196,cs),
(1419,1274,o),
(1439,1347,o),
(1460,1426,c),
(1199,1426,l),
(1178,1347,o),
(1158,1274,o),
(1138,1196,cs),
(1117,1118,o),
(1096,1037,o),
(1072,945,cs),
(1023,765,l),
(935,718,o),
(845,695,o),
(734,695,cs),
(627,695,o),
(554,724,o),
(514,776,cs),
(474,827,o),
(466,899,o),
(489,987,cs),
(503,1041,l),
(522,1108,o),
(538,1168,o),
(555,1230,cs),
(571,1292,o),
(588,1354,o),
(607,1426,c),
(346,1426,l),
(330,1369,o),
(315,1315,o),
(300,1260,cs),
(285,1204,o),
(270,1148,o),
(251,1081,cs),
(243,1052,o),
(237,1030,o),
(229,999,cs),
(186,835,o),
(212,707,o),
(288,620,cs),
(364,533,o),
(490,487,o),
(646,487,cs),
(717,487,o),
(776,495,o),
(828,508,cs),
(880,520,o),
(926,537,o),
(967,553,c),
(940,451,ls),
(917,366,o),
(897,289,o),
(878,217,cs),
(858,144,o),
(840,73,o),
(820,0,c)
);
}
);
width = 1372;
},
{
anchors = (
{
name = "#exit";
position = "{1029, 0}";
},
{
name = top;
position = "{883, 1426}";
}
);
layerId = "E9B47305-927A-4F8D-A320-B0B953B21E21";
shapes = (
{
closed = 1;
nodes = (
(1032,0,l),
(1053,80,o),
(1073,153,o),
(1093,229,cs),
(1113,305,o),
(1134,383,o),
(1158,473,cs),
(1284,944,ls),
(1308,1036,o),
(1329,1117,o),
(1350,1196,cs),
(1370,1274,o),
(1390,1348,o),
(1411,1426,c),
(1238,1426,l),
(1218,1348,o),
(1197,1274,o),
(1177,1196,cs),
(1156,1117,o),
(1135,1036,o),
(1111,945,cs),
(1055,738,l),
(953,682,o),
(844,653,o),
(714,653,cs),
(588,653,o),
(499,687,o),
(450,748,cs),
(400,808,o),
(389,894,o),
(417,1002,cs),
(432,1058,ls),
(450,1124,o),
(466,1182,o),
(483,1242,c),
(498,1301,o),
(514,1359,o),
(532,1426,c),
(360,1426,l),
(344,1369,o),
(329,1317,o),
(315,1264,cs),
(300,1209,o),
(285,1156,o),
(267,1092,c),
(260,1064,o),
(254,1042,o),
(246,1012,cs),
(204,852,o),
(230,727,o),
(306,641,cs),
(381,556,o),
(507,510,o),
(665,510,cs),
(742,510,o),
(809,520,o),
(867,535,cs),
(925,549,o),
(975,569,o),
(1016,587,c),
(983,463,ls),
(960,376,o),
(939,298,o),
(920,225,cs),
(899,150,o),
(881,77,o),
(860,0,c)
);
}
);
width = 1349;
},
{
anchors = (
{
name = "#exit";
position = "{969, 0}";
},
{
name = top;
position = "{862, 1426}";
}
);
layerId = "F0D7A2F7-B8FF-408B-8955-93892ED6432C";
shapes = (
{
closed = 1;
nodes = (
(973,0,l),
(994,81,o),
(1014,157,o),
(1035,234,cs),
(1055,310,o),
(1076,389,o),
(1099,477,cs),
(1223,943,ls),
(1247,1034,o),
(1268,1115,o),
(1289,1195,cs),
(1309,1274,o),
(1330,1349,o),
(1350,1426,c),
(1286,1426,l),
(1266,1350,o),
(1245,1274,o),
(1225,1195,cs),
(1204,1116,o),
(1183,1035,o),
(1159,944,cs),
(1095,705,l),
(974,638,o),
(842,602,o),
(689,602,cs),
(540,602,o),
(432,641,o),
(371,713,cs),
(310,784,o),
(294,888,o),
(329,1020,cs),
(345,1079,ls),
(362,1143,o),
(378,1200,o),
(394,1256,cs),
(409,1312,o),
(424,1366,o),
(440,1426,c),
(376,1426,l),
(360,1370,o),
(347,1319,o),
(333,1268,cs),
(319,1216,o),
(303,1165,o),
(287,1106,cs),
(280,1079,o),
(274,1056,o),
(266,1028,c),
(226,873,o),
(251,751,o),
(327,667,cs),
(402,583,o),
(528,538,o),
(688,538,cs),
(773,538,o),
(850,551,o),
(915,568,cs),
(979,585,o),
(1034,609,o),
(1075,629,c),
(1035,477,ls),
(1012,389,o),
(991,310,o),
(971,234,cs),
(950,157,o),
(930,81,o),
(909,0,c)
);
}
);
width = 1320;
}
);
leftKerningGroup = uni0427;
rightKerningGroup = uni0406;
unicode = 1063;
},
{
glyphname = Cheabkhcyr;
layers = (
{
anchors = (
{
name = bottom;
position = "{1019, 0}";
},
{
name = top;
position = "{1385, 1426}";
}
);
layerId = "B73C764B-EEC1-4CAF-B436-916766E5142A";
shapes = (
{
closed = 1;
nodes = (
(1228,-32,o),
(1328,-21,o),
(1422,-3,cs),
(1516,16,o),
(1606,43,o),
(1671,72,c),
(1731,503,l),
(1654,462,o),
(1566,426,o),
(1479,402,cs),
(1391,378,o),
(1305,364,o),
(1230,364,cs),
(1105,364,o),
(1035,399,o),
(996,448,cs),
(956,496,o),
(947,559,o),
(946,612,c),
(973,754,l),
(1000,866,o),
(1042,944,o),
(1096,993,cs),
(1150,1041,o),
(1218,1062,o),
(1295,1062,cs),
(1376,1062,o),
(1439,1038,o),
(1475,994,cs),
(1511,950,o),
(1518,888,o),
(1490,812,c),
(1547,878,l),
(926,878,l),
(841,558,l),
(1870,558,l),
(1926,729,l),
(1941,790,o),
(1950,850,o),
(1951,909,cs),
(1954,1028,o),
(1926,1137,o),
(1863,1230,cs),
(1831,1276,o),
(1789,1316,o),
(1738,1350,cs),
(1635,1417,o),
(1492,1458,o),
(1300,1458,cs),
(1087,1458,o),
(909,1388,o),
(773,1275,cs),
(637,1162,o),
(544,1003,o),
(496,827,cs),
(476,750,o),
(466,675,o),
(465,602,cs),
(463,457,o),
(498,328,o),
(570,223,cs),
(606,170,o),
(651,125,o),
(706,88,cs),
(815,12,o),
(962,-32,o),
(1143,-32,cs)
);
},
{
closed = 1;
nodes = (
(637,558,l),
(721,875,l),
(580,875,ls),
(540,875,o),
(518,889,o),
(507,912,cs),
(495,935,o),
(497,968,o),
(508,1004,c),
(520,1048,o),
(540,1098,o),
(566,1148,cs),
(592,1198,o),
(623,1248,o),
(656,1292,c),
(304,1309,l),
(235,1221,o),
(176,1106,o),
(147,995,cs),
(110,848,o),
(128,739,o),
(196,667,cs),
(263,594,o),
(379,558,o),
(532,558,cs)
);
}
);
width = 1913;
},
{
anchors = (
{
name = bottom;
position = "{961, 0}";
},
{
name = top;
position = "{1327, 1426}";
}
);
layerId = "2619DEE8-C08B-47F7-A010-C7FC63110412";
shapes = (
{
closed = 1;
nodes = (
(1170,-24,o),
(1273,-6,o),
(1366,25,cs),
(1458,55,o),
(1542,96,o),
(1605,143,c),
(1636,390,l),
(1551,321,o),
(1459,271,o),
(1371,239,cs),
(1282,207,o),
(1194,193,o),
(1111,193,cs),
(958,193,o),
(849,250,o),
(782,338,cs),
(714,425,o),
(688,543,o),
(701,664,c),
(713,746,l),
(746,903,o),
(812,1026,o),
(902,1110,cs),
(992,1193,o),
(1105,1237,o),
(1237,1237,cs),
(1388,1237,o),
(1498,1183,o),
(1562,1096,cs),
(1626,1008,o),
(1643,889,o),
(1604,760,c),
(1647,812,l),
(681,812,l),
(627,610,l),
(1805,610,l),
(1839,722,l),
(1855,784,o),
(1863,845,o),
(1863,906,cs),
(1863,1026,o),
(1832,1135,o),
(1768,1228,c),
(1735,1274,o),
(1694,1314,o),
(1645,1347,cs),
(1545,1414,o),
(1411,1454,o),
(1240,1454,cs),
(1047,1454,o),
(878,1388,o),
(746,1277,cs),
(614,1166,o),
(519,1011,o),
(471,835,cs),
(451,760,o),
(441,686,o),
(441,614,cs),
(440,470,o),
(475,342,o),
(545,235,cs),
(580,182,o),
(623,136,o),
(674,98,cs),
(776,21,o),
(910,-24,o),
(1071,-24,cs)
);
},
{
closed = 1;
nodes = (
(520,622,l),
(566,801,l),
(504,801,ls),
(429,801,o),
(389,824,o),
(371,858,cs),
(353,892,o),
(357,938,o),
(370,987,cs),
(381,1027,o),
(399,1073,o),
(423,1119,cs),
(446,1165,o),
(475,1210,o),
(507,1250,c),
(307,1260,l),
(243,1179,o),
(196,1083,o),
(171,991,cs),
(140,870,o),
(155,778,o),
(208,716,cs),
(260,654,o),
(352,622,o),
(475,622,cs)
);
}
);
width = 1865;
},
{
anchors = (
{
name = bottom;
position = "{934, 0}";
},
{
name = top;
position = "{1300, 1426}";
}
);
layerId = "E9B47305-927A-4F8D-A320-B0B953B21E21";
shapes = (
{
closed = 1;
nodes = (
(1147,-21,o),
(1250,0,o),
(1343,35,cs),
(1435,69,o),
(1516,117,o),
(1578,170,c),
(1598,347,l),
(1509,267,o),
(1417,212,o),
(1328,177,cs),
(1238,142,o),
(1149,128,o),
(1064,128,cs),
(900,128,o),
(776,193,o),
(698,296,cs),
(620,398,o),
(587,538,o),
(606,684,c),
(612,743,l),
(648,917,o),
(722,1058,o),
(826,1154,cs),
(929,1250,o),
(1061,1303,o),
(1213,1303,cs),
(1390,1303,o),
(1519,1237,o),
(1594,1134,cs),
(1668,1030,o),
(1688,889,o),
(1645,740,c),
(1681,779,l),
(583,779,l),
(546,640,l),
(1780,640,l),
(1804,719,l),
(1821,782,o),
(1829,844,o),
(1828,905,cs),
(1827,1026,o),
(1795,1135,o),
(1730,1227,cs),
(1697,1273,o),
(1656,1313,o),
(1607,1346,cs),
(1509,1413,o),
(1378,1452,o),
(1215,1452,cs),
(1030,1452,o),
(865,1388,o),
(734,1278,cs),
(604,1168,o),
(508,1014,o),
(459,838,cs),
(440,764,o),
(430,690,o),
(430,619,c),
(429,475,o),
(464,347,o),
(533,240,cs),
(567,187,o),
(610,141,o),
(660,102,cs),
(759,25,o),
(888,-21,o),
(1042,-21,cs)
);
},
{
closed = 1;
nodes = (
(482,646,l),
(514,773,l),
(475,773,ls),
(387,773,o),
(340,798,o),
(320,836,cs),
(299,875,o),
(303,927,o),
(318,981,cs),
(329,1020,o),
(346,1064,o),
(369,1108,cs),
(391,1151,o),
(418,1195,o),
(450,1234,c),
(309,1242,l),
(247,1161,o),
(204,1074,o),
(180,990,c),
(152,879,o),
(165,793,o),
(213,735,cs),
(259,677,o),
(343,646,o),
(454,646,cs)
);
}
);
width = 1847;
},
{
anchors = (
{
name = bottom;
position = "{912, 0}";
},
{
name = top;
position = "{1279, 1426}";
}
);
layerId = "F0D7A2F7-B8FF-408B-8955-93892ED6432C";
shapes = (
{
closed = 1;
nodes = (
(1118,-18,o),
(1222,7,o),
(1314,47,cs),
(1406,87,o),
(1485,142,o),
(1545,202,c),
(1551,295,l),
(1458,200,o),
(1366,139,o),
(1275,101,cs),
(1184,63,o),
(1095,48,o),
(1007,48,cs),
(830,48,o),
(687,124,o),
(596,245,cs),
(504,365,o),
(464,531,o),
(489,708,c),
(489,739,l),
(528,935,o),
(613,1096,o),
(733,1208,cs),
(853,1320,o),
(1008,1384,o),
(1184,1384,cs),
(1392,1384,o),
(1544,1304,o),
(1632,1180,cs),
(1720,1056,o),
(1744,889,o),
(1696,716,c),
(1722,738,l),
(464,738,l),
(446,676,l),
(1750,676,l),
(1762,716,l),
(1779,779,o),
(1787,842,o),
(1786,903,cs),
(1784,1025,o),
(1749,1134,o),
(1683,1226,cs),
(1650,1271,o),
(1609,1311,o),
(1561,1344,cs),
(1464,1411,o),
(1338,1450,o),
(1185,1450,cs),
(1009,1450,o),
(848,1387,o),
(720,1279,cs),
(591,1171,o),
(494,1018,o),
(445,841,cs),
(426,768,o),
(416,695,o),
(416,624,cs),
(416,481,o),
(451,353,o),
(519,246,c),
(552,192,o),
(593,146,o),
(642,107,cs),
(738,29,o),
(862,-18,o),
(1007,-18,cs)
);
},
{
closed = 1;
nodes = (
(435,676,l),
(451,738,l),
(439,738,ls),
(335,738,o),
(281,766,o),
(257,810,cs),
(232,854,o),
(238,913,o),
(254,974,c),
(265,1011,o),
(281,1053,o),
(302,1094,cs),
(323,1134,o),
(349,1177,o),
(380,1214,c),
(311,1219,l),
(251,1140,o),
(213,1064,o),
(192,988,c),
(167,889,o),
(177,811,o),
(218,758,cs),
(258,705,o),
(331,676,o),
(428,676,cs)
);
}
);
width = 1824;
}
);
leftKerningGroup = uni04BC;
rightKerningGroup = uni041E;
unicode = 1212;
},
{
glyphname = Chetailcyr;
layers = (
{
anchors = (
{
name = _bottomright;
position = "{1208, 0}";
},
{
name = top;
position = "{948, 1426}";
}
);
layerId = "B73C764B-EEC1-4CAF-B436-916766E5142A";
shapes = (
{
closed = 1;
nodes = (
(1214,0,l),
(1234,75,o),
(1252,142,o),
(1272,215,cs),
(1291,287,o),
(1311,366,o),
(1336,459,cs),
(1466,948,ls),
(1491,1043,o),
(1512,1122,o),
(1533,1198,cs),
(1553,1274,o),
(1573,1346,o),
(1594,1426,c),
(1099,1426,l),
(1078,1346,o),
(1059,1274,o),
(1039,1198,cs),
(1018,1122,o),
(997,1043,o),
(972,948,cs),
(942,838,l),
(894,815,o),
(850,806,o),
(791,806,cs),
(735,806,o),
(703,824,o),
(687,851,cs),
(671,878,o),
(673,915,o),
(682,951,cs),
(694,998,l),
(713,1066,o),
(730,1130,o),
(748,1199,cs),
(766,1268,o),
(785,1341,o),
(808,1426,c),
(313,1426,l),
(297,1367,o),
(282,1312,o),
(266,1252,cs),
(249,1192,o),
(231,1128,o),
(211,1052,cs),
(202,1021,o),
(196,998,o),
(187,966,c),
(142,791,o),
(170,657,o),
(247,566,cs),
(323,474,o),
(450,427,o),
(599,427,cs),
(651,427,o),
(691,431,o),
(729,437,cs),
(767,443,o),
(802,452,o),
(843,463,c),
(832,421,ls),
(809,337,o),
(790,265,o),
(772,197,cs),
(754,129,o),
(736,65,o),
(719,0,c)
);
},
{
closed = 1;
nodes = (
(1315,-300,l),
(1346,-185,o),
(1375,-69,o),
(1406,44,cs),
(1437,164,o),
(1470,285,o),
(1501,404,c),
(967,404,l),
(859,0,l),
(1034,0,l),
(979,76,l),
(906,-300,l)
);
}
);
width = 1547;
},
{
anchors = (
{
name = _bottomright;
position = "{1103, 0}";
},
{
name = top;
position = "{910, 1426}";
}
);
layerId = "2619DEE8-C08B-47F7-A010-C7FC63110412";
shapes = (
{
closed = 1;
nodes = (
(1083,0,l),
(1104,79,o),
(1123,150,o),
(1143,225,cs),
(1163,300,o),
(1184,378,o),
(1208,469,cs),
(1335,945,ls),
(1359,1037,o),
(1380,1118,o),
(1401,1196,cs),
(1421,1274,o),
(1441,1347,o),
(1462,1426,c),
(1201,1426,l),
(1180,1347,o),
(1160,1274,o),
(1140,1196,cs),
(1119,1118,o),
(1098,1037,o),
(1074,945,cs),
(1025,765,l),
(937,718,o),
(847,695,o),
(736,695,cs),
(629,695,o),
(556,724,o),
(516,776,cs),
(476,827,o),
(468,899,o),
(491,987,cs),
(505,1041,l),
(524,1108,o),
(540,1168,o),
(557,1230,cs),
(573,1292,o),
(590,1354,o),
(609,1426,c),
(348,1426,l),
(332,1369,o),
(317,1315,o),
(302,1260,cs),
(287,1204,o),
(272,1148,o),
(253,1081,cs),
(245,1052,o),
(239,1030,o),
(231,999,cs),
(188,835,o),
(214,707,o),
(290,620,cs),
(366,533,o),
(492,487,o),
(648,487,cs),
(719,487,o),
(778,495,o),
(830,508,cs),
(882,520,o),
(928,537,o),
(969,553,c),
(942,451,ls),
(919,366,o),
(899,289,o),
(880,217,cs),
(860,144,o),
(842,73,o),
(822,0,c)
);
},
{
closed = 1;
nodes = (
(1183,-305,l),
(1206,-220,o),
(1229,-133,o),
(1252,-48,cs),
(1275,40,o),
(1299,131,o),
(1322,219,c),
(959,219,l),
(901,0,l),
(1082,0,l),
(1041,41,l),
(964,-305,l)
);
}
);
width = 1440;
},
{
anchors = (
{
name = _bottomright;
position = "{1029, 0}";
},
{
name = top;
position = "{883, 1426}";
}
);
layerId = "E9B47305-927A-4F8D-A320-B0B953B21E21";
shapes = (
{
closed = 1;
nodes = (
(1034,0,l),
(1055,80,o),
(1075,153,o),
(1095,229,cs),
(1115,305,o),
(1136,383,o),
(1160,473,cs),
(1286,944,ls),
(1310,1036,o),
(1331,1117,o),
(1352,1196,cs),
(1372,1274,o),
(1392,1348,o),
(1413,1426,c),
(1240,1426,l),
(1220,1348,o),
(1199,1274,o),
(1179,1196,cs),
(1158,1117,o),
(1137,1036,o),
(1113,945,cs),
(1057,738,l),
(955,682,o),
(846,653,o),
(716,653,cs),
(590,653,o),
(501,687,o),
(452,748,cs),
(402,808,o),
(391,894,o),
(419,1002,cs),
(434,1058,ls),
(452,1124,o),
(468,1182,o),
(485,1242,c),
(500,1301,o),
(516,1359,o),
(534,1426,c),
(362,1426,l),
(346,1369,o),
(331,1317,o),
(317,1264,cs),
(302,1209,o),
(287,1156,o),
(269,1092,c),
(262,1064,o),
(256,1042,o),
(248,1012,cs),
(206,852,o),
(232,727,o),
(308,641,cs),
(383,556,o),
(509,510,o),
(667,510,cs),
(744,510,o),
(811,520,o),
(869,535,cs),
(927,549,o),
(977,569,o),
(1018,587,c),
(985,463,ls),
(962,376,o),
(941,298,o),
(922,225,cs),
(901,150,o),
(883,77,o),
(862,0,c)
);
},
{
closed = 1;
nodes = (
(1133,-307,l),
(1153,-233,o),
(1173,-158,o),
(1193,-83,cs),
(1213,-7,o),
(1234,73,o),
(1254,148,c),
(955,148,l),
(916,0,l),
(1100,0,l),
(1064,28,l),
(986,-307,l)
);
}
);
width = 1399;
},
{
anchors = (
{
name = _bottomright;
position = "{969, 0}";
},
{
name = top;
position = "{862, 1426}";
}
);
layerId = "F0D7A2F7-B8FF-408B-8955-93892ED6432C";
shapes = (
{
closed = 1;
nodes = (
(975,0,l),
(996,81,o),
(1016,157,o),
(1037,234,cs),
(1057,310,o),
(1078,389,o),
(1101,477,cs),
(1225,943,ls),
(1249,1034,o),
(1270,1115,o),
(1291,1195,cs),
(1311,1274,o),
(1332,1349,o),
(1352,1426,c),
(1288,1426,l),
(1268,1350,o),
(1247,1274,o),
(1227,1195,cs),
(1206,1116,o),
(1185,1035,o),
(1161,944,cs),
(1097,705,l),
(976,638,o),
(844,602,o),
(691,602,cs),
(542,602,o),
(434,641,o),
(373,713,cs),
(312,784,o),
(296,888,o),
(331,1020,cs),
(347,1079,ls),
(364,1143,o),
(380,1200,o),
(396,1256,cs),
(411,1312,o),
(426,1366,o),
(442,1426,c),
(378,1426,l),
(362,1370,o),
(349,1319,o),
(335,1268,cs),
(321,1216,o),
(305,1165,o),
(289,1106,cs),
(282,1079,o),
(276,1056,o),
(268,1028,c),
(228,873,o),
(253,751,o),
(329,667,cs),
(404,583,o),
(530,538,o),
(690,538,cs),
(775,538,o),
(852,551,o),
(917,568,cs),
(981,585,o),
(1036,609,o),
(1077,629,c),
(1037,477,ls),
(1014,389,o),
(993,310,o),
(973,234,cs),
(952,157,o),
(932,81,o),
(911,0,c)
);
},
{
closed = 1;
nodes = (
(1072,-310,l),
(1088,-249,o),
(1105,-189,o),
(1121,-126,cs),
(1137,-65,o),
(1155,1,o),
(1171,62,c),
(951,62,l),
(935,0,l),
(1121,0,l),
(1092,11,l),
(1012,-310,l)
);
}
);
width = 1349;
}
);
leftKerningGroup = uni0427;
rightKerningGroup = uni0414;
unicode = 1206;
},
{
glyphname = Cheabkhtailcyr;
layers = (
{
anchors = (
{
name = top;
position = "{1385, 1426}";
}
);
layerId = "B73C764B-EEC1-4CAF-B436-916766E5142A";
shapes = (
{
closed = 1;
nodes = (
(1230,-32,o),
(1330,-21,o),
(1424,-3,cs),
(1518,16,o),
(1608,43,o),
(1673,72,c),
(1733,503,l),
(1656,462,o),
(1568,426,o),
(1481,402,cs),
(1393,378,o),
(1307,364,o),
(1232,364,cs),
(1107,364,o),
(1037,399,o),
(998,448,cs),
(958,496,o),
(949,559,o),
(948,612,c),
(975,754,l),
(1002,866,o),
(1044,944,o),
(1098,993,cs),
(1152,1041,o),
(1220,1062,o),
(1297,1062,cs),
(1378,1062,o),
(1441,1038,o),
(1477,994,cs),
(1513,950,o),
(1520,888,o),
(1492,812,c),
(1549,878,l),
(928,878,l),
(843,558,l),
(1872,558,l),
(1928,729,l),
(1943,790,o),
(1952,850,o),
(1953,909,cs),
(1956,1028,o),
(1928,1137,o),
(1865,1230,cs),
(1833,1276,o),
(1791,1316,o),
(1740,1350,cs),
(1637,1417,o),
(1494,1458,o),
(1302,1458,cs),
(1089,1458,o),
(911,1388,o),
(775,1275,cs),
(639,1162,o),
(546,1003,o),
(498,827,cs),
(478,750,o),
(468,675,o),
(467,602,cs),
(465,457,o),
(500,328,o),
(572,223,cs),
(608,170,o),
(653,125,o),
(708,88,cs),
(817,12,o),
(964,-32,o),
(1145,-32,cs)
);
},
{
closed = 1;
nodes = (
(639,558,l),
(723,875,l),
(582,875,ls),
(542,875,o),
(520,889,o),
(509,912,cs),
(497,935,o),
(499,968,o),
(510,1004,c),
(522,1048,o),
(542,1098,o),
(568,1148,cs),
(594,1198,o),
(625,1248,o),
(658,1292,c),
(306,1309,l),
(237,1221,o),
(178,1106,o),
(149,995,cs),
(112,848,o),
(130,739,o),
(198,667,cs),
(265,594,o),
(381,558,o),
(534,558,cs)
);
},
{
closed = 1;
nodes = (
(1146,-300,l),
(1183,-175,o),
(1218,-51,o),
(1255,74,c),
(827,74,l),
(798,-51,o),
(769,-175,o),
(738,-300,c)
);
}
);
width = 1913;
},
{
anchors = (
{
name = top;
position = "{1338, 1426}";
}
);
layerId = "2619DEE8-C08B-47F7-A010-C7FC63110412";
shapes = (
{
closed = 1;
nodes = (
(1172,-24,o),
(1275,-6,o),
(1368,25,cs),
(1460,55,o),
(1544,96,o),
(1607,143,c),
(1638,390,l),
(1553,321,o),
(1461,271,o),
(1373,239,cs),
(1284,207,o),
(1196,193,o),
(1113,193,cs),
(960,193,o),
(851,250,o),
(784,338,cs),
(716,425,o),
(690,543,o),
(703,664,c),
(715,746,l),
(748,903,o),
(814,1026,o),
(904,1110,cs),
(994,1193,o),
(1107,1237,o),
(1239,1237,cs),
(1390,1237,o),
(1500,1183,o),
(1564,1096,cs),
(1628,1008,o),
(1645,889,o),
(1606,760,c),
(1649,812,l),
(683,812,l),
(629,610,l),
(1807,610,l),
(1841,722,l),
(1857,784,o),
(1865,845,o),
(1865,906,cs),
(1865,1026,o),
(1834,1135,o),
(1770,1228,c),
(1737,1274,o),
(1696,1314,o),
(1647,1347,cs),
(1547,1414,o),
(1413,1454,o),
(1242,1454,cs),
(1049,1454,o),
(880,1388,o),
(748,1277,cs),
(616,1166,o),
(521,1011,o),
(473,835,cs),
(453,760,o),
(443,686,o),
(443,614,cs),
(442,470,o),
(477,342,o),
(547,235,cs),
(582,182,o),
(625,136,o),
(676,98,cs),
(778,21,o),
(912,-24,o),
(1073,-24,cs)
);
},
{
closed = 1;
nodes = (
(522,622,l),
(568,801,l),
(506,801,ls),
(431,801,o),
(391,824,o),
(373,858,cs),
(355,892,o),
(359,938,o),
(372,987,cs),
(383,1027,o),
(401,1073,o),
(425,1119,cs),
(448,1165,o),
(477,1210,o),
(509,1250,c),
(309,1260,l),
(245,1179,o),
(198,1083,o),
(173,991,cs),
(142,870,o),
(157,778,o),
(210,716,cs),
(262,654,o),
(354,622,o),
(477,622,cs)
);
},
{
closed = 1;
nodes = (
(991,-306,l),
(1024,-190,o),
(1057,-77,o),
(1090,39,c),
(858,39,l),
(830,-77,o),
(802,-190,o),
(774,-306,c)
);
}
);
width = 1865;
},
{
anchors = (
{
name = top;
position = "{1305, 1426}";
}
);
layerId = "E9B47305-927A-4F8D-A320-B0B953B21E21";
shapes = (
{
closed = 1;
nodes = (
(1149,-21,o),
(1252,0,o),
(1345,35,cs),
(1437,69,o),
(1518,117,o),
(1580,170,c),
(1600,347,l),
(1511,267,o),
(1419,212,o),
(1330,177,cs),
(1240,142,o),
(1151,128,o),
(1066,128,cs),
(902,128,o),
(778,193,o),
(700,296,cs),
(622,398,o),
(589,538,o),
(608,684,c),
(614,743,l),
(650,917,o),
(724,1058,o),
(828,1154,cs),
(931,1250,o),
(1063,1303,o),
(1215,1303,cs),
(1392,1303,o),
(1521,1237,o),
(1596,1134,cs),
(1670,1030,o),
(1690,889,o),
(1647,740,c),
(1683,779,l),
(585,779,l),
(548,640,l),
(1782,640,l),
(1806,719,l),
(1823,782,o),
(1831,844,o),
(1830,905,cs),
(1829,1026,o),
(1797,1135,o),
(1732,1227,cs),
(1699,1273,o),
(1658,1313,o),
(1609,1346,cs),
(1511,1413,o),
(1380,1452,o),
(1217,1452,cs),
(1032,1452,o),
(867,1388,o),
(736,1278,cs),
(606,1168,o),
(510,1014,o),
(461,838,cs),
(442,764,o),
(432,690,o),
(432,619,c),
(431,475,o),
(466,347,o),
(535,240,cs),
(569,187,o),
(612,141,o),
(662,102,cs),
(761,25,o),
(890,-21,o),
(1044,-21,cs)
);
},
{
closed = 1;
nodes = (
(484,646,l),
(516,773,l),
(477,773,ls),
(389,773,o),
(342,798,o),
(322,836,cs),
(301,875,o),
(305,927,o),
(320,981,cs),
(331,1020,o),
(348,1064,o),
(371,1108,cs),
(393,1151,o),
(420,1195,o),
(452,1234,c),
(311,1242,l),
(249,1161,o),
(206,1074,o),
(182,990,c),
(154,879,o),
(167,793,o),
(215,735,cs),
(261,677,o),
(345,646,o),
(456,646,cs)
);
},
{
closed = 1;
nodes = (
(933,-308,l),
(965,-196,o),
(996,-86,o),
(1027,26,c),
(870,26,l),
(843,-87,o),
(816,-196,o),
(788,-308,c)
);
}
);
width = 1847;
},
{
anchors = (
{
name = top;
position = "{1279, 1426}";
}
);
layerId = "F0D7A2F7-B8FF-408B-8955-93892ED6432C";
shapes = (
{
closed = 1;
nodes = (
(1120,-18,o),
(1224,7,o),
(1316,47,cs),
(1408,87,o),
(1487,142,o),
(1547,202,c),
(1553,295,l),
(1460,200,o),
(1368,139,o),
(1277,101,cs),
(1186,63,o),
(1097,48,o),
(1009,48,cs),
(832,48,o),
(689,124,o),
(598,245,cs),
(506,365,o),
(466,531,o),
(491,708,c),
(491,739,l),
(530,935,o),
(615,1096,o),
(735,1208,cs),
(855,1320,o),
(1010,1384,o),
(1186,1384,cs),
(1394,1384,o),
(1546,1304,o),
(1634,1180,cs),
(1722,1056,o),
(1746,889,o),
(1698,716,c),
(1724,738,l),
(466,738,l),
(448,676,l),
(1752,676,l),
(1764,716,l),
(1781,779,o),
(1789,842,o),
(1788,903,cs),
(1786,1025,o),
(1751,1134,o),
(1685,1226,cs),
(1652,1271,o),
(1611,1311,o),
(1563,1344,cs),
(1466,1411,o),
(1340,1450,o),
(1187,1450,cs),
(1011,1450,o),
(850,1387,o),
(722,1279,cs),
(593,1171,o),
(496,1018,o),
(447,841,cs),
(428,768,o),
(418,695,o),
(418,624,cs),
(418,481,o),
(453,353,o),
(521,246,c),
(554,192,o),
(595,146,o),
(644,107,cs),
(740,29,o),
(864,-18,o),
(1009,-18,cs)
);
},
{
closed = 1;
nodes = (
(437,676,l),
(453,738,l),
(441,738,ls),
(337,738,o),
(283,766,o),
(259,810,cs),
(234,854,o),
(240,913,o),
(256,974,c),
(267,1011,o),
(283,1053,o),
(304,1094,cs),
(325,1134,o),
(351,1177,o),
(382,1214,c),
(313,1219,l),
(253,1140,o),
(215,1064,o),
(194,988,c),
(169,889,o),
(179,811,o),
(220,758,cs),
(260,705,o),
(333,676,o),
(430,676,cs)
);
},
{
closed = 1;
nodes = (
(861,-311,l),
(892,-204,o),
(922,-98,o),
(951,9,c),
(885,9,l),
(858,-99,o),
(832,-203,o),
(805,-311,c)
);
}
);
width = 1824;
}
);
leftKerningGroup = uni04BC;
rightKerningGroup = uni041E;
unicode = 1214;
},
{
glyphname = Chekhakascyr;
layers = (
{
layerId = "B73C764B-EEC1-4CAF-B436-916766E5142A";
shapes = (
{
closed = 1;
nodes = (
(865,-300,l),
(990,76,l),
(895,0,l),
(1212,0,l),
(1232,75,o),
(1250,142,o),
(1270,215,cs),
(1289,287,o),
(1309,366,o),
(1334,459,cs),
(1464,948,ls),
(1489,1043,o),
(1510,1122,o),
(1531,1198,cs),
(1551,1274,o),
(1571,1346,o),
(1592,1426,c),
(1097,1426,l),
(1076,1346,o),
(1057,1274,o),
(1037,1198,cs),
(1016,1122,o),
(995,1043,o),
(970,948,cs),
(940,838,l),
(892,815,o),
(848,806,o),
(789,806,cs),
(733,806,o),
(701,824,o),
(685,851,cs),
(669,878,o),
(671,913,o),
(680,948,cs),
(692,998,l),
(711,1066,o),
(727,1130,o),
(746,1199,cs),
(765,1268,o),
(783,1341,o),
(806,1426,c),
(311,1426,l),
(295,1367,o),
(280,1312,o),
(264,1252,cs),
(247,1192,o),
(229,1128,o),
(209,1052,cs),
(200,1021,o),
(194,998,o),
(185,966,cs),
(141,797,o),
(170,663,o),
(247,574,cs),
(323,485,o),
(450,437,o),
(599,437,cs),
(651,437,o),
(692,441,o),
(730,447,cs),
(768,453,o),
(803,462,o),
(844,473,c),
(830,421,ls),
(807,337,o),
(788,264,o),
(771,199,cs),
(754,134,o),
(738,75,o),
(723,20,c),
(1156,324,l),
(622,324,l),
(594,219,o),
(566,111,o),
(537,3,cs),
(510,-97,o),
(484,-200,o),
(457,-300,c)
);
}
);
width = 1434;
},
{
layerId = "2619DEE8-C08B-47F7-A010-C7FC63110412";
shapes = (
{
closed = 1;
nodes = (
(776,-305,l),
(882,41,l),
(820,0,l),
(1082,0,l),
(1102,79,o),
(1121,150,o),
(1141,225,cs),
(1161,300,o),
(1182,378,o),
(1206,469,cs),
(1333,946,ls),
(1357,1038,o),
(1378,1119,o),
(1399,1197,cs),
(1419,1275,o),
(1439,1348,o),
(1460,1427,c),
(1199,1427,l),
(1178,1348,o),
(1158,1275,o),
(1138,1197,cs),
(1117,1119,o),
(1096,1038,o),
(1072,946,cs),
(1023,766,l),
(935,719,o),
(845,696,o),
(734,696,cs),
(627,696,o),
(554,725,o),
(514,777,cs),
(474,828,o),
(466,900,o),
(489,987,cs),
(503,1042,l),
(522,1109,o),
(538,1169,o),
(555,1231,cs),
(571,1293,o),
(588,1355,o),
(607,1427,c),
(346,1427,l),
(330,1370,o),
(315,1316,o),
(300,1261,cs),
(285,1205,o),
(270,1149,o),
(251,1082,cs),
(243,1053,o),
(237,1031,o),
(229,1000,cs),
(186,839,o),
(213,712,o),
(289,625,cs),
(365,538,o),
(491,492,o),
(647,492,cs),
(718,492,o),
(777,501,o),
(829,513,cs),
(881,525,o),
(927,542,o),
(968,558,c),
(940,452,ls),
(917,367,o),
(898,290,o),
(879,219,cs),
(859,147,o),
(843,82,o),
(824,15,c),
(1050,182,l),
(686,182,l),
(665,101,o),
(643,17,o),
(620,-67,cs),
(599,-147,o),
(578,-226,o),
(557,-305,c)
);
}
);
width = 1372;
},
{
layerId = "E9B47305-927A-4F8D-A320-B0B953B21E21";
shapes = (
{
closed = 1;
nodes = (
(742,-307,l),
(841,28,l),
(792,0,l),
(1033,0,l),
(1053,80,o),
(1072,153,o),
(1093,229,cs),
(1113,305,o),
(1134,383,o),
(1157,473,cs),
(1283,945,ls),
(1307,1036,o),
(1329,1117,o),
(1350,1196,cs),
(1370,1275,o),
(1390,1348,o),
(1411,1427,c),
(1238,1427,l),
(1218,1349,o),
(1197,1275,o),
(1177,1196,cs),
(1156,1118,o),
(1135,1037,o),
(1111,945,cs),
(1055,739,l),
(952,683,o),
(843,654,o),
(713,654,cs),
(587,654,o),
(499,687,o),
(450,748,cs),
(400,808,o),
(389,895,o),
(417,1002,cs),
(432,1059,ls),
(450,1124,o),
(466,1183,o),
(483,1242,c),
(498,1302,o),
(514,1360,o),
(532,1427,c),
(360,1427,l),
(344,1370,o),
(329,1317,o),
(315,1264,cs),
(300,1210,o),
(285,1156,o),
(267,1093,c),
(260,1065,o),
(254,1042,o),
(246,1013,cs),
(204,854,o),
(230,730,o),
(306,644,cs),
(382,558,o),
(507,513,o),
(665,513,cs),
(742,513,o),
(809,524,o),
(867,538,cs),
(925,552,o),
(975,572,o),
(1016,590,c),
(982,463,ls),
(959,377,o),
(939,299,o),
(920,226,cs),
(900,152,o),
(882,84,o),
(863,13,c),
(1010,128,l),
(710,128,l),
(692,56,o),
(671,-20,o),
(652,-94,cs),
(633,-166,o),
(614,-236,o),
(595,-307,c)
);
}
);
width = 1349;
},
{
layerId = "F0D7A2F7-B8FF-408B-8955-93892ED6432C";
shapes = (
{
closed = 1;
nodes = (
(701,-310,l),
(791,11,l),
(758,0,l),
(972,0,l),
(993,81,o),
(1013,157,o),
(1034,234,cs),
(1054,310,o),
(1075,389,o),
(1098,477,cs),
(1222,943,ls),
(1246,1034,o),
(1268,1115,o),
(1289,1195,cs),
(1309,1274,o),
(1330,1349,o),
(1350,1426,c),
(1286,1426,l),
(1266,1350,o),
(1245,1274,o),
(1225,1195,cs),
(1204,1116,o),
(1182,1035,o),
(1158,944,cs),
(1094,705,l),
(973,638,o),
(841,602,o),
(688,602,cs),
(539,602,o),
(432,641,o),
(371,713,cs),
(310,784,o),
(294,888,o),
(329,1020,cs),
(345,1079,ls),
(362,1143,o),
(378,1200,o),
(394,1256,cs),
(409,1312,o),
(424,1366,o),
(440,1426,c),
(376,1426,l),
(360,1370,o),
(347,1319,o),
(333,1268,cs),
(319,1216,o),
(303,1165,o),
(287,1106,cs),
(280,1079,o),
(274,1056,o),
(266,1028,c),
(226,873,o),
(251,751,o),
(327,667,cs),
(402,583,o),
(527,538,o),
(687,538,cs),
(772,538,o),
(849,551,o),
(914,568,cs),
(978,585,o),
(1033,609,o),
(1074,629,c),
(1034,477,ls),
(1011,389,o),
(990,311,o),
(970,235,cs),
(950,159,o),
(930,86,o),
(910,10,c),
(960,62,l),
(740,62,l),
(724,1,o),
(706,-65,o),
(690,-126,cs),
(674,-189,o),
(658,-249,o),
(641,-310,c)
);
}
);
width = 1320;
}
);
leftKerningGroup = uni0427;
rightKerningGroup = uni0406;
unicode = 1227;
},
{
glyphname = Chevertcyr;
layers = (
{
layerId = "B73C764B-EEC1-4CAF-B436-916766E5142A";
shapes = (
{
closed = 1;
nodes = (
(1314,0,l),
(1334,75,o),
(1352,142,o),
(1372,215,cs),
(1391,287,o),
(1411,366,o),
(1436,459,cs),
(1566,948,ls),
(1591,1043,o),
(1612,1122,o),
(1633,1198,cs),
(1653,1274,o),
(1673,1346,o),
(1694,1426,c),
(1199,1426,l),
(1178,1346,o),
(1159,1274,o),
(1139,1198,cs),
(1118,1122,o),
(1097,1043,o),
(1072,948,cs),
(1035,808,l),
(1012,800,o),
(962,793,o),
(911,787,cs),
(860,781,o),
(809,776,o),
(784,776,cs),
(727,776,o),
(692,790,o),
(676,814,cs),
(660,838,o),
(661,871,o),
(670,911,c),
(692,998,l),
(711,1066,o),
(728,1130,o),
(746,1199,cs),
(764,1268,o),
(783,1341,o),
(806,1426,c),
(311,1426,l),
(295,1367,o),
(280,1312,o),
(264,1252,cs),
(247,1192,o),
(229,1128,o),
(209,1052,cs),
(200,1021,o),
(194,998,o),
(185,966,c),
(140,791,o),
(169,658,o),
(246,570,cs),
(323,481,o),
(450,436,o),
(599,436,cs),
(658,436,o),
(727,440,o),
(791,448,cs),
(855,455,o),
(913,464,o),
(946,472,c),
(932,421,ls),
(909,337,o),
(891,264,o),
(873,196,cs),
(855,128,o),
(837,64,o),
(820,0,c)
);
},
{
closed = 1;
nodes = (
(788,195,l),
(823,324,o),
(855,446,o),
(884,554,cs),
(961,848,ls),
(990,955,o),
(1021,1076,o),
(1056,1205,c),
(832,1205,l),
(797,1076,o),
(766,957,o),
(737,846,cs),
(659,554,ls),
(631,446,o),
(599,324,o),
(564,195,c)
);
}
);
width = 1536;
},
{
layerId = "2619DEE8-C08B-47F7-A010-C7FC63110412";
shapes = (
{
closed = 1;
nodes = (
(1141,0,l),
(1162,79,o),
(1182,151,o),
(1202,227,cs),
(1222,303,o),
(1242,383,o),
(1266,472,cs),
(1393,945,ls),
(1417,1037,o),
(1439,1119,o),
(1460,1197,cs),
(1480,1275,o),
(1500,1349,o),
(1520,1426,c),
(1259,1426,l),
(1239,1349,o),
(1219,1275,o),
(1198,1197,cs),
(1177,1119,o),
(1155,1037,o),
(1131,945,cs),
(1081,757,l),
(1038,736,o),
(978,718,o),
(915,706,cs),
(851,694,o),
(785,687,o),
(732,687,cs),
(624,687,o),
(549,713,o),
(508,761,cs),
(467,809,o),
(458,880,o),
(482,969,cs),
(502,1045,ls),
(519,1109,o),
(536,1169,o),
(553,1230,cs),
(569,1291,o),
(586,1355,o),
(606,1426,c),
(345,1426,l),
(329,1367,o),
(314,1314,o),
(299,1259,cs),
(284,1204,o),
(269,1147,o),
(250,1082,cs),
(241,1049,o),
(235,1027,o),
(228,1000,cs),
(185,836,o),
(212,708,o),
(288,621,cs),
(363,533,o),
(488,487,o),
(644,487,cs),
(717,487,o),
(795,496,o),
(863,509,cs),
(931,521,o),
(992,538,o),
(1029,553,c),
(1001,452,ls),
(978,364,o),
(958,288,o),
(939,215,cs),
(919,142,o),
(901,72,o),
(881,0,c)
);
},
{
closed = 1;
nodes = (
(705,206,l),
(737,330,o),
(768,444,o),
(795,544,cs),
(866,812,ls),
(893,912,o),
(924,1027,o),
(956,1151,c),
(786,1151,l),
(753,1027,o),
(723,912,o),
(696,812,cs),
(624,544,ls),
(597,444,o),
(567,330,o),
(534,206,c)
);
}
);
width = 1431;
},
{
layerId = "E9B47305-927A-4F8D-A320-B0B953B21E21";
shapes = (
{
closed = 1;
nodes = (
(1074,0,l),
(1095,80,o),
(1115,154,o),
(1136,230,cs),
(1156,306,o),
(1176,386,o),
(1200,474,cs),
(1326,944,ls),
(1350,1036,o),
(1371,1117,o),
(1392,1196,cs),
(1412,1275,o),
(1433,1349,o),
(1453,1426,c),
(1280,1426,l),
(1260,1349,o),
(1240,1275,o),
(1219,1196,cs),
(1198,1118,o),
(1177,1036,o),
(1153,945,cs),
(1096,734,l),
(1046,707,o),
(982,686,o),
(915,671,cs),
(847,657,o),
(776,649,o),
(713,649,cs),
(586,649,o),
(496,681,o),
(446,739,cs),
(396,798,o),
(384,884,o),
(413,992,cs),
(431,1060,ls),
(448,1124,o),
(465,1183,o),
(481,1242,cs),
(497,1300,o),
(513,1360,o),
(531,1426,c),
(359,1426,l),
(343,1368,o),
(329,1316,o),
(314,1263,cs),
(300,1209,o),
(284,1155,o),
(267,1093,cs),
(259,1063,o),
(253,1040,o),
(245,1013,c),
(203,853,o),
(230,727,o),
(306,642,cs),
(381,556,o),
(506,510,o),
(664,510,cs),
(742,510,o),
(822,521,o),
(891,536,cs),
(960,550,o),
(1020,570,o),
(1059,587,c),
(1025,463,ls),
(1002,375,o),
(982,298,o),
(962,224,cs),
(942,149,o),
(923,76,o),
(903,0,c)
);
},
{
closed = 1;
nodes = (
(657,210,l),
(688,331,o),
(719,442,o),
(745,540,cs),
(813,800,ls),
(839,898,o),
(870,1009,o),
(901,1130,c),
(781,1130,l),
(749,1009,o),
(719,898,o),
(693,800,cs),
(624,540,ls),
(597,442,o),
(568,331,o),
(536,210,c)
);
}
);
width = 1390;
},
{
layerId = "F0D7A2F7-B8FF-408B-8955-93892ED6432C";
shapes = (
{
closed = 1;
nodes = (
(993,0,l),
(1014,81,o),
(1034,157,o),
(1055,234,cs),
(1075,310,o),
(1096,389,o),
(1119,477,cs),
(1243,943,ls),
(1267,1034,o),
(1288,1115,o),
(1309,1195,cs),
(1329,1274,o),
(1350,1349,o),
(1370,1426,c),
(1306,1426,l),
(1286,1350,o),
(1265,1274,o),
(1245,1195,cs),
(1224,1116,o),
(1203,1035,o),
(1179,944,cs),
(1115,705,l),
(1055,672,o),
(986,646,o),
(914,629,cs),
(842,612,o),
(765,602,o),
(689,602,cs),
(540,602,o),
(432,641,o),
(371,713,cs),
(310,784,o),
(294,888,o),
(329,1020,cs),
(345,1079,ls),
(362,1143,o),
(378,1200,o),
(394,1256,cs),
(409,1312,o),
(424,1366,o),
(440,1426,c),
(376,1426,l),
(360,1370,o),
(347,1319,o),
(333,1268,cs),
(319,1216,o),
(303,1165,o),
(287,1106,cs),
(280,1079,o),
(274,1056,o),
(266,1028,c),
(226,873,o),
(251,751,o),
(327,667,cs),
(402,583,o),
(528,538,o),
(688,538,cs),
(773,538,o),
(855,551,o),
(925,568,cs),
(995,585,o),
(1054,609,o),
(1095,629,c),
(1055,477,ls),
(1032,389,o),
(1011,310,o),
(991,234,cs),
(970,157,o),
(950,81,o),
(929,0,c)
);
},
{
closed = 1;
nodes = (
(598,215,l),
(629,332,o),
(658,440,o),
(683,535,cs),
(749,785,ls),
(774,881,o),
(803,988,o),
(834,1105,c),
(774,1105,l),
(743,988,o),
(714,881,o),
(689,785,cs),
(623,535,ls),
(598,440,o),
(569,332,o),
(538,215,c)
);
}
);
width = 1340;
}
);
leftKerningGroup = uni0427;
rightKerningGroup = uni0406;
unicode = 1208;
},
{
glyphname = D;
layers = (
{
anchors = (
{
name = bottom;
position = "{578, 0}";
},
{
name = center;
position = "{786, 714}";
},
{
name = top;
position = "{953, 1426}";
}
);
layerId = "B73C764B-EEC1-4CAF-B436-916766E5142A";
shapes = (
{
closed = 1;
nodes = (
(546,0,ls),
(835,0,o),
(1038,62,o),
(1180,174,cs),
(1322,286,o),
(1404,448,o),
(1455,649,cs),
(1473,718,o),
(1483,786,o),
(1484,851,cs),
(1486,982,o),
(1454,1097,o),
(1392,1193,cs),
(1361,1241,o),
(1322,1282,o),
(1276,1317,cs),
(1184,1386,o),
(1063,1426,o),
(915,1426,cs),
(337,1426,l),
(316,1349,o),
(297,1276,o),
(277,1200,cs),
(256,1124,o),
(235,1043,o),
(210,948,cs),
(80,458,ls),
(55,365,o),
(34,287,o),
(15,215,cs),
(-5,142,o),
(-23,75,o),
(-43,0,c)
);
},
{
closed = 1;
nodes = (
(554,386,l),
(569,446,o),
(584,503,o),
(607,591,cs),
(670,827,ls),
(682,874,o),
(693,911,o),
(702,944,cs),
(710,977,o),
(719,1008,o),
(727,1040,c),
(792,1040,ls),
(876,1040,o),
(929,1002,o),
(954,939,cs),
(979,876,o),
(978,792,o),
(953,697,cs),
(929,609,o),
(894,531,o),
(838,476,cs),
(782,420,o),
(707,386,o),
(604,386,cs)
);
}
);
width = 1460;
},
{
anchors = (
{
name = bottom;
position = "{574, 0}";
},
{
name = center;
position = "{792, 714}";
},
{
name = top;
position = "{949, 1426}";
}
);
layerId = "2619DEE8-C08B-47F7-A010-C7FC63110412";
shapes = (
{
closed = 1;
nodes = (
(556,0,ls),
(829,0,o),
(1022,61,o),
(1159,173,cs),
(1295,285,o),
(1377,448,o),
(1429,651,cs),
(1447,718,o),
(1456,784,o),
(1457,849,cs),
(1458,977,o),
(1427,1093,o),
(1364,1190,cs),
(1332,1238,o),
(1292,1280,o),
(1245,1315,cs),
(1150,1385,o),
(1025,1426,o),
(870,1426,cs),
(408,1426,l),
(387,1349,o),
(367,1274,o),
(347,1197,cs),
(326,1120,o),
(304,1038,o),
(280,946,cs),
(154,468,ls),
(130,379,o),
(109,300,o),
(89,225,cs),
(69,149,o),
(49,77,o),
(29,0,c)
);
},
{
closed = 1;
nodes = (
(347,210,l),
(374,310,o),
(398,405,o),
(430,529,cs),
(526,893,ls),
(542,956,o),
(558,1011,o),
(572,1064,cs),
(586,1116,o),
(599,1165,o),
(612,1216,c),
(804,1216,ls),
(968,1216,o),
(1077,1153,o),
(1136,1054,cs),
(1195,955,o),
(1204,822,o),
(1165,682,c),
(1128,538,o),
(1072,420,o),
(981,338,cs),
(890,256,o),
(764,210,o),
(584,210,cs)
);
}
);
width = 1470;
},
{
anchors = (
{
name = bottom;
position = "{572, 0}";
},
{
name = center;
position = "{796, 714}";
},
{
name = top;
position = "{947, 1426}";
}
);
layerId = "E9B47305-927A-4F8D-A320-B0B953B21E21";
shapes = (
{
closed = 1;
nodes = (
(560,0,ls),
(827,0,o),
(1017,61,o),
(1151,173,cs),
(1286,285,o),
(1368,448,o),
(1420,652,cs),
(1438,718,o),
(1447,784,o),
(1448,848,cs),
(1449,976,o),
(1418,1092,o),
(1354,1189,cs),
(1322,1237,o),
(1282,1279,o),
(1234,1314,cs),
(1138,1385,o),
(1011,1426,o),
(853,1426,cs),
(435,1426,l),
(414,1349,o),
(394,1274,o),
(374,1196,cs),
(353,1118,o),
(331,1037,o),
(307,945,cs),
(182,472,ls),
(158,384,o),
(137,305,o),
(117,229,cs),
(97,152,o),
(77,78,o),
(56,0,c)
);
},
{
closed = 1;
nodes = (
(268,143,l),
(299,258,o),
(327,368,o),
(363,505,cs),
(472,919,ls),
(489,988,o),
(507,1050,o),
(523,1109,cs),
(538,1169,o),
(553,1225,o),
(568,1283,c),
(809,1283,ls),
(1004,1283,o),
(1134,1210,o),
(1206,1097,cs),
(1277,985,o),
(1290,833,o),
(1246,677,c),
(1204,511,o),
(1140,378,o),
(1036,286,cs),
(932,194,o),
(787,143,o),
(576,143,cs)
);
}
);
width = 1474;
},
{
anchors = (
{
name = bottom;
position = "{570, 0}";
},
{
name = center;
position = "{799, 714}";
},
{
name = top;
position = "{945, 1426}";
}
);
layerId = "F0D7A2F7-B8FF-408B-8955-93892ED6432C";
shapes = (
{
closed = 1;
nodes = (
(565,0,ls),
(825,0,o),
(1010,61,o),
(1142,173,cs),
(1274,285,o),
(1356,448,o),
(1409,653,cs),
(1426,718,o),
(1436,783,o),
(1437,847,cs),
(1439,974,o),
(1406,1090,o),
(1342,1187,cs),
(1310,1235,o),
(1270,1277,o),
(1221,1313,cs),
(1124,1384,o),
(994,1426,o),
(833,1426,cs),
(468,1426,l),
(447,1350,o),
(427,1274,o),
(407,1195,cs),
(386,1116,o),
(364,1035,o),
(340,944,cs),
(216,476,ls),
(193,389,o),
(172,310,o),
(152,233,cs),
(132,156,o),
(111,80,o),
(90,0,c)
);
},
{
closed = 1;
nodes = (
(172,62,l),
(207,195,o),
(240,323,o),
(280,476,cs),
(405,950,ls),
(425,1026,o),
(444,1097,o),
(462,1165,cs),
(480,1233,o),
(497,1299,o),
(514,1364,c),
(816,1364,ls),
(1048,1364,o),
(1204,1279,o),
(1291,1150,cs),
(1378,1021,o),
(1394,847,o),
(1345,670,c),
(1296,478,o),
(1224,326,o),
(1104,222,cs),
(983,118,o),
(814,62,o),
(567,62,cs)
);
}
);
width = 1478;
}
);
leftKerningGroup = B;
rightKerningGroup = D;
unicode = 68;
},
{
glyphname = Decyr;
layers = (
{
layerId = "B73C764B-EEC1-4CAF-B436-916766E5142A";
shapes = (
{
closed = 1;
nodes = (
(1348,80,l),
(1367,153,o),
(1385,223,o),
(1405,296,cs),
(1424,369,o),
(1445,448,o),
(1469,537,cs),
(1578,946,ls),
(1603,1042,o),
(1625,1123,o),
(1645,1200,cs),
(1665,1276,o),
(1685,1349,o),
(1705,1426,c),
(560,1426,l),
(517,1285,o),
(468,1126,o),
(417,959,cs),
(364,782,o),
(305,652,o),
(250,562,cs),
(195,472,o),
(143,421,o),
(102,404,c),
(589,361,l),
(656,420,o),
(700,481,o),
(736,560,cs),
(772,639,o),
(801,734,o),
(838,858,cs),
(886,1015,o),
(934,1168,o),
(982,1324,c),
(663,1022,l),
(1233,1022,l),
(1192,1346,l),
(1172,1271,o),
(1153,1199,o),
(1133,1123,cs),
(1112,1046,o),
(1090,964,o),
(1065,871,cs),
(977,537,ls),
(953,448,o),
(933,369,o),
(914,296,cs),
(894,223,o),
(876,153,o),
(856,80,c)
);
},
{
closed = 1;
nodes = (
(216,-300,l),
(341,76,l),
(246,0,l),
(1150,0,l),
(1095,76,l),
(1023,-300,l),
(1431,-300,l),
(1462,-185,o),
(1491,-68,o),
(1522,45,cs),
(1553,164,o),
(1586,287,o),
(1617,404,c),
(1041,404,l),
(570,404,l),
(-6,404,l),
(-37,287,o),
(-70,164,o),
(-101,45,cs),
(-132,-70,o),
(-161,-187,o),
(-192,-300,c)
);
}
);
width = 1663;
},
{
layerId = "2619DEE8-C08B-47F7-A010-C7FC63110412";
shapes = (
{
closed = 1;
nodes = (
(1243,41,l),
(1263,118,o),
(1283,191,o),
(1303,267,cs),
(1323,342,o),
(1343,420,o),
(1367,508,cs),
(1483,944,ls),
(1507,1037,o),
(1529,1120,o),
(1550,1198,cs),
(1570,1276,o),
(1590,1349,o),
(1610,1426,c),
(628,1426,l),
(576,1265,o),
(519,1087,o),
(459,900,cs),
(395,703,o),
(332,559,o),
(268,451,cs),
(204,343,o),
(138,271,o),
(70,215,c),
(332,189,l),
(411,261,o),
(471,340,o),
(525,442,cs),
(579,544,o),
(626,670,o),
(681,838,cs),
(741,1019,o),
(797,1194,o),
(854,1371,c),
(680,1207,l),
(1377,1207,l),
(1340,1386,l),
(1319,1309,o),
(1299,1234,o),
(1279,1157,cs),
(1258,1080,o),
(1237,1001,o),
(1213,910,cs),
(1107,509,ls),
(1083,421,o),
(1063,342,o),
(1043,267,cs),
(1023,191,o),
(1003,118,o),
(983,41,c)
);
},
{
closed = 1;
nodes = (
(32,-305,l),
(138,41,l),
(76,0,l),
(1233,0,l),
(1192,41,l),
(1115,-305,l),
(1335,-305,l),
(1358,-220,o),
(1380,-134,o),
(1403,-47,cs),
(1426,41,o),
(1450,131,o),
(1473,219,c),
(946,219,l),
(479,219,l),
(-48,219,l),
(-71,131,o),
(-95,40,o),
(-119,-48,cs),
(-142,-133,o),
(-164,-221,o),
(-187,-305,c)
);
}
);
width = 1591;
},
{
layerId = "E9B47305-927A-4F8D-A320-B0B953B21E21";
shapes = (
{
closed = 1;
nodes = (
(1204,26,l),
(1224,105,o),
(1244,179,o),
(1265,255,cs),
(1285,331,o),
(1305,410,o),
(1329,497,cs),
(1447,944,ls),
(1471,1036,o),
(1493,1118,o),
(1514,1197,cs),
(1534,1275,o),
(1554,1349,o),
(1575,1426,c),
(655,1426,l),
(599,1257,o),
(539,1072,o),
(475,878,cs),
(408,673,o),
(343,524,o),
(276,409,cs),
(208,294,o),
(137,213,o),
(58,143,c),
(235,124,l),
(318,201,o),
(384,286,o),
(445,397,cs),
(506,508,o),
(561,646,o),
(622,831,cs),
(686,1022,o),
(745,1204,o),
(805,1389,c),
(687,1278,l),
(1432,1278,l),
(1396,1401,l),
(1375,1323,o),
(1355,1248,o),
(1335,1171,cs),
(1314,1094,o),
(1293,1015,o),
(1270,925,cs),
(1157,498,ls),
(1133,410,o),
(1113,331,o),
(1093,255,cs),
(1073,179,o),
(1053,105,o),
(1032,26,c)
);
},
{
closed = 1;
nodes = (
(-37,-307,l),
(62,28,l),
(13,0,l),
(1265,0,l),
(1229,28,l),
(1151,-307,l),
(1299,-307,l),
(1318,-233,o),
(1338,-159,o),
(1358,-83,cs),
(1378,-7,o),
(1399,73,o),
(1419,148,c),
(910,148,l),
(445,148,l),
(-64,148,l),
(-84,72,o),
(-105,-8,o),
(-125,-84,cs),
(-145,-158,o),
(-165,-234,o),
(-185,-307,c)
);
}
);
width = 1564;
},
{
layerId = "F0D7A2F7-B8FF-408B-8955-93892ED6432C";
shapes = (
{
closed = 1;
nodes = (
(1156,8,l),
(1177,88,o),
(1197,164,o),
(1218,241,cs),
(1238,318,o),
(1259,397,o),
(1282,484,cs),
(1404,944,ls),
(1428,1035,o),
(1450,1116,o),
(1471,1195,cs),
(1491,1274,o),
(1511,1350,o),
(1532,1426,c),
(688,1426,l),
(628,1247,o),
(563,1054,o),
(495,850,cs),
(424,637,o),
(357,482,o),
(285,358,cs),
(213,234,o),
(136,143,o),
(44,55,c),
(117,44,l),
(204,128,o),
(278,221,o),
(347,343,cs),
(416,465,o),
(482,617,o),
(550,822,cs),
(618,1025,o),
(682,1217,o),
(746,1410,c),
(695,1364,l),
(1499,1364,l),
(1465,1420,l),
(1444,1340,o),
(1424,1264,o),
(1404,1187,cs),
(1383,1110,o),
(1362,1031,o),
(1339,943,cs),
(1218,485,ls),
(1195,397,o),
(1174,318,o),
(1154,241,cs),
(1133,164,o),
(1113,88,o),
(1092,8,c)
);
},
{
closed = 1;
nodes = (
(-122,-310,l),
(-32,11,l),
(-65,0,l),
(1303,0,l),
(1274,11,l),
(1195,-310,l),
(1254,-310,l),
(1270,-249,o),
(1287,-189,o),
(1303,-126,cs),
(1319,-65,o),
(1337,1,o),
(1353,62,c),
(866,62,l),
(404,62,l),
(-83,62,l),
(-99,-1,o),
(-117,-66,o),
(-133,-127,cs),
(-149,-188,o),
(-166,-249,o),
(-182,-310,c)
);
}
);
width = 1531;
}
);
leftKerningGroup = uni0409_2;
rightKerningGroup = uni0414;
unicode = 1044;
},
{
glyphname = Decyr.loclBGR;
layers = (
{
layerId = "B73C764B-EEC1-4CAF-B436-916766E5142A";
shapes = (
{
closed = 1;
nodes = (
(-26,46,l),
(55,195,o),
(143,350,o),
(220,491,cs),
(484,972,ls),
(532,1060,o),
(576,1139,o),
(616,1212,cs),
(655,1284,o),
(694,1354,o),
(733,1426,c),
(1380,1426,l),
(1383,1286,o),
(1385,1148,o),
(1388,976,cs),
(1396,483,ls),
(1399,338,o),
(1401,187,o),
(1402,46,c),
(914,46,l),
(926,207,o),
(939,372,o),
(950,525,cs),
(984,993,l),
(952,993,l),
(733,521,ls),
(698,445,o),
(662,371,o),
(623,287,cs),
(584,203,o),
(547,126,o),
(510,46,c)
);
},
{
closed = 1;
nodes = (
(-195,-300,l),
(-167,-187,o),
(-140,-68,o),
(-112,45,cs),
(-84,166,o),
(-55,287,o),
(-26,404,c),
(550,404,l),
(984,404,l),
(1560,404,l),
(1532,287,o),
(1503,166,o),
(1474,45,cs),
(1447,-68,o),
(1419,-183,o),
(1391,-300,c),
(983,-300,l),
(1053,76,l),
(1112,0,l),
(244,0,l),
(335,76,l),
(213,-300,l)
);
}
);
width = 1624;
},
{
layerId = "2619DEE8-C08B-47F7-A010-C7FC63110412";
shapes = (
{
closed = 1;
nodes = (
(22,27,l),
(114,180,o),
(210,340,o),
(298,489,cs),
(584,971,ls),
(636,1060,o),
(683,1139,o),
(726,1211,cs),
(769,1283,o),
(811,1354,o),
(854,1426,c),
(1202,1426,l),
(1210,1286,o),
(1220,1149,o),
(1229,976,cs),
(1258,484,ls),
(1267,331,o),
(1277,172,o),
(1285,27,c),
(1026,27,l),
(1021,228,o),
(1015,433,o),
(1007,628,cs),
(991,1188,l),
(969,1188,l),
(651,626,l),
(595,533,o),
(540,434,o),
(480,329,cs),
(420,224,o),
(364,123,o),
(308,27,c)
);
},
{
closed = 1;
nodes = (
(-178,-305,l),
(-157,-221,o),
(-135,-133,o),
(-114,-48,cs),
(-93,40,o),
(-70,130,o),
(-47,218,c),
(481,218,l),
(913,218,l),
(1441,218,l),
(1420,130,o),
(1398,40,o),
(1375,-48,cs),
(1354,-133,o),
(1333,-220,o),
(1310,-305,c),
(1091,-305,l),
(1166,41,l),
(1209,0,l),
(86,0,l),
(146,41,l),
(41,-305,l)
);
}
);
width = 1560;
},
{
layerId = "E9B47305-927A-4F8D-A320-B0B953B21E21";
shapes = (
{
closed = 1;
nodes = (
(40,20,l),
(136,175,o),
(236,337,o),
(327,488,cs),
(622,971,ls),
(676,1060,o),
(724,1139,o),
(768,1211,cs),
(812,1283,o),
(855,1354,o),
(900,1426,c),
(1135,1426,l),
(1145,1286,o),
(1157,1149,o),
(1169,976,c),
(1205,484,ls),
(1217,327,o),
(1230,167,o),
(1240,20,c),
(1069,20,l),
(1057,235,o),
(1043,457,o),
(1029,667,c),
(993,1262,l),
(976,1262,l),
(620,666,l),
(558,565,o),
(495,459,o),
(426,345,cs),
(357,231,o),
(294,123,o),
(231,20,c)
);
},
{
closed = 1;
nodes = (
(-172,-307,l),
(-153,-234,o),
(-134,-158,o),
(-114,-84,c),
(-96,-8,o),
(-75,72,o),
(-55,148,c),
(454,148,l),
(886,148,l),
(1396,148,l),
(1377,72,o),
(1358,-7,o),
(1337,-83,cs),
(1318,-157,o),
(1300,-233,o),
(1279,-307,c),
(1132,-307,l),
(1209,28,l),
(1246,0,l),
(26,0,l),
(74,28,l),
(-24,-307,l)
);
}
);
width = 1536;
},
{
layerId = "F0D7A2F7-B8FF-408B-8955-93892ED6432C";
shapes = (
{
closed = 1;
nodes = (
(62,11,l),
(162,168,o),
(267,334,o),
(363,487,cs),
(668,970,ls),
(724,1059,o),
(775,1139,o),
(820,1211,cs),
(865,1283,o),
(909,1353,o),
(956,1426,c),
(1052,1426,l),
(1065,1286,o),
(1079,1149,o),
(1095,976,cs),
(1141,484,ls),
(1156,323,o),
(1173,160,o),
(1186,11,c),
(1121,11,l),
(1100,244,o),
(1078,486,o),
(1055,714,cs),
(996,1353,l),
(984,1353,l),
(581,715,ls),
(512,603,o),
(440,489,o),
(360,364,cs),
(280,239,o),
(209,124,o),
(137,11,c)
);
},
{
closed = 1;
nodes = (
(-164,-310,l),
(-147,-249,o),
(-132,-188,o),
(-115,-127,cs),
(-99,-66,o),
(-82,1,o),
(-65,62,c),
(422,62,l),
(854,62,l),
(1341,62,l),
(1325,1,o),
(1308,-65,o),
(1291,-126,cs),
(1275,-187,o),
(1259,-249,o),
(1242,-310,c),
(1182,-310,l),
(1262,11,l),
(1291,0,l),
(-47,0,l),
(-14,11,l),
(-104,-310,l)
);
}
);
width = 1506;
}
);
},
{
glyphname = Delta;
layers = (
{
layerId = "B73C764B-EEC1-4CAF-B436-916766E5142A";
shapes = (
{
closed = 1;
nodes = (
(-109,0,l),
(-66,77,o),
(-20,158,o),
(29,246,cs),
(78,334,o),
(123,413,o),
(166,489,cs),
(441,975,l),
(488,1063,o),
(532,1140,o),
(573,1212,cs),
(614,1284,o),
(654,1354,o),
(693,1426,c),
(1340,1426,l),
(1343,1354,o),
(1344,1284,o),
(1347,1211,cs),
(1350,1138,o),
(1351,1061,o),
(1354,977,cs),
(1370,474,ls),
(1374,325,o),
(1380,157,o),
(1385,0,c)
);
},
{
closed = 1;
nodes = (
(460,404,l),
(990,404,l),
(890,80,l),
(895,160,o),
(899,239,o),
(903,324,cs),
(906,409,o),
(909,487,o),
(912,563,c),
(948,1005,l),
(916,1005,l),
(691,566,l),
(655,489,o),
(617,407,o),
(577,322,cs),
(536,237,o),
(498,156,o),
(462,80,c)
);
}
);
width = 1538;
},
{
layerId = "2619DEE8-C08B-47F7-A010-C7FC63110412";
shapes = (
{
closed = 1;
nodes = (
(-82,0,l),
(-34,77,o),
(17,159,o),
(70,244,cs),
(123,329,o),
(174,411,o),
(222,488,cs),
(527,974,l),
(580,1062,o),
(629,1140,o),
(674,1212,cs),
(719,1284,o),
(763,1354,o),
(807,1426,c),
(1153,1426,l),
(1160,1354,o),
(1165,1283,o),
(1172,1211,cs),
(1179,1139,o),
(1186,1063,o),
(1193,975,cs),
(1237,480,ls),
(1252,323,o),
(1266,153,o),
(1281,0,c)
);
},
{
closed = 1;
nodes = (
(215,218,l),
(1082,218,l),
(1019,41,l),
(1015,125,o),
(1010,212,o),
(1005,301,cs),
(1000,390,o),
(994,474,o),
(989,554,cs),
(945,1194,l),
(924,1194,l),
(528,559,l),
(480,475,o),
(430,393,o),
(377,301,cs),
(324,209,o),
(273,125,o),
(224,41,c)
);
}
);
width = 1461;
},
{
layerId = "E9B47305-927A-4F8D-A320-B0B953B21E21";
shapes = (
{
closed = 1;
nodes = (
(-72,0,l),
(-22,77,o),
(31,159,o),
(86,244,cs),
(141,328,o),
(193,410,o),
(244,488,cs),
(559,974,l),
(616,1062,o),
(665,1140,o),
(712,1212,cs),
(759,1284,o),
(804,1354,o),
(850,1426,c),
(1082,1426,l),
(1091,1354,o),
(1097,1283,o),
(1106,1211,cs),
(1115,1139,o),
(1123,1063,o),
(1132,975,cs),
(1187,482,l),
(1205,322,o),
(1224,153,o),
(1241,0,c)
);
},
{
closed = 1;
nodes = (
(122,148,l),
(1117,148,l),
(1068,26,l),
(1061,112,o),
(1053,201,o),
(1044,292,cs),
(1036,383,o),
(1026,469,o),
(1018,550,cs),
(944,1266,l),
(927,1266,l),
(466,557,l),
(413,471,o),
(359,386,o),
(301,293,cs),
(243,200,o),
(188,114,o),
(134,26,c)
);
}
);
width = 1432;
},
{
layerId = "F0D7A2F7-B8FF-408B-8955-93892ED6432C";
shapes = (
{
closed = 1;
nodes = (
(-59,0,l),
(-7,77,o),
(48,158,o),
(105,243,cs),
(162,327,o),
(217,408,o),
(270,488,cs),
(599,974,ls),
(659,1062,o),
(710,1140,o),
(759,1212,cs),
(807,1284,o),
(855,1354,o),
(903,1426,c),
(995,1426,l),
(1006,1353,o),
(1014,1284,o),
(1025,1212,cs),
(1036,1140,o),
(1046,1062,o),
(1058,974,cs),
(1125,485,ls),
(1148,320,o),
(1172,153,o),
(1193,0,c)
);
},
{
closed = 1;
nodes = (
(9,62,l),
(1159,62,l),
(1128,8,l),
(1117,97,o),
(1105,188,o),
(1092,281,cs),
(1079,374,o),
(1066,462,o),
(1054,546,cs),
(942,1354,l),
(930,1354,l),
(390,554,ls),
(330,466,o),
(273,377,o),
(209,284,cs),
(145,188,o),
(84,100,o),
(23,8,c)
);
}
);
width = 1396;
}
);
leftKerningGroup = Alpha2;
rightKerningGroup = Alpha;
unicode = 916;
},
{
glyphname = Djecyr;
layers = (
{
layerId = "B73C764B-EEC1-4CAF-B436-916766E5142A";
shapes = (
{
closed = 1;
nodes = (
(1250,-300,l),
(1338,-229,o),
(1417,-140,o),
(1483,-40,cs),
(1549,61,o),
(1599,175,o),
(1631,292,cs),
(1679,473,o),
(1656,620,o),
(1581,721,cs),
(1506,821,o),
(1379,877,o),
(1216,877,cs),
(1173,877,o),
(1132,874,o),
(1091,867,cs),
(1050,860,o),
(1009,849,o),
(965,834,c),
(975,868,l),
(1000,965,o),
(1022,1046,o),
(1042,1122,cs),
(1062,1198,o),
(1081,1269,o),
(1101,1346,c),
(834,1022,l),
(1074,1022,l),
(1482,1022,l),
(1588,1426,l),
(287,1426,l),
(177,1002,l),
(515,1002,l),
(702,1002,l),
(611,1346,l),
(591,1269,o),
(571,1198,o),
(551,1122,cs),
(531,1046,o),
(509,964,o),
(484,868,cs),
(375,459,ls),
(350,366,o),
(329,287,o),
(310,215,cs),
(290,142,o),
(272,75,o),
(252,0,c),
(742,0,l),
(762,72,o),
(780,138,o),
(799,210,cs),
(818,281,o),
(838,356,o),
(862,444,c),
(869,466,l),
(916,489,o),
(959,498,o),
(1019,498,cs),
(1068,498,o),
(1102,479,o),
(1119,442,cs),
(1136,405,o),
(1136,349,o),
(1116,276,cs),
(1093,191,o),
(1052,104,o),
(992,9,cs),
(931,-86,o),
(851,-187,o),
(748,-300,c)
);
}
);
width = 1701;
},
{
layerId = "2619DEE8-C08B-47F7-A010-C7FC63110412";
shapes = (
{
closed = 1;
nodes = (
(1177,-305,l),
(1264,-229,o),
(1346,-134,o),
(1415,-30,cs),
(1483,75,o),
(1538,189,o),
(1570,305,cs),
(1618,486,o),
(1593,630,o),
(1517,730,cs),
(1441,829,o),
(1314,883,o),
(1161,883,cs),
(1096,883,o),
(1036,875,o),
(982,862,cs),
(928,849,o),
(879,833,o),
(836,814,c),
(862,909,ls),
(886,1001,o),
(907,1080,o),
(927,1157,cs),
(947,1233,o),
(967,1306,o),
(988,1386,c),
(838,1207,l),
(1082,1207,l),
(1492,1207,l),
(1550,1426,l),
(304,1426,l),
(245,1198,l),
(623,1198,l),
(777,1198,l),
(729,1386,l),
(708,1306,o),
(688,1233,o),
(668,1157,cs),
(648,1080,o),
(626,1000,o),
(602,909,cs),
(485,469,ls),
(461,378,o),
(440,300,o),
(420,225,cs),
(400,149,o),
(381,77,o),
(361,0,c),
(620,0,l),
(640,76,o),
(659,149,o),
(679,223,cs),
(699,297,o),
(719,373,o),
(743,461,cs),
(781,605,l),
(869,652,o),
(958,675,o),
(1070,675,cs),
(1167,675,o),
(1241,642,o),
(1282,579,cs),
(1323,516,o),
(1332,424,o),
(1301,308,cs),
(1273,207,o),
(1225,107,o),
(1158,5,cs),
(1090,-98,o),
(1003,-200,o),
(898,-305,c)
);
}
);
width = 1672;
},
{
layerId = "E9B47305-927A-4F8D-A320-B0B953B21E21";
shapes = (
{
closed = 1;
nodes = (
(1149,-307,l),
(1236,-229,o),
(1319,-132,o),
(1389,-26,cs),
(1459,80,o),
(1515,195,o),
(1547,310,c),
(1595,491,o),
(1569,635,o),
(1493,734,cs),
(1417,832,o),
(1291,885,o),
(1140,885,cs),
(1066,885,o),
(999,875,o),
(940,860,cs),
(881,845,o),
(830,826,o),
(787,806,c),
(819,925,ls),
(843,1015,o),
(864,1094,o),
(884,1171,cs),
(904,1247,o),
(924,1321,o),
(945,1401,c),
(840,1278,l),
(1085,1278,l),
(1496,1278,l),
(1536,1426,l),
(311,1426,l),
(271,1273,l),
(664,1273,l),
(805,1273,l),
(774,1401,l),
(753,1321,o),
(733,1247,o),
(713,1171,cs),
(693,1094,o),
(671,1014,o),
(647,925,cs),
(527,472,ls),
(504,383,o),
(483,305,o),
(463,229,cs),
(442,152,o),
(423,78,o),
(402,0,c),
(574,0,l),
(594,78,o),
(614,152,o),
(634,228,cs),
(654,303,o),
(674,380,o),
(698,468,cs),
(748,657,l),
(851,714,o),
(959,742,o),
(1090,742,cs),
(1206,742,o),
(1294,703,o),
(1344,631,cs),
(1394,558,o),
(1406,453,o),
(1371,321,c),
(1341,213,o),
(1290,107,o),
(1221,3,cs),
(1150,-103,o),
(1061,-206,o),
(955,-307,c)
);
}
);
width = 1661;
},
{
layerId = "F0D7A2F7-B8FF-408B-8955-93892ED6432C";
shapes = (
{
closed = 1;
nodes = (
(1115,-310,l),
(1202,-230,o),
(1286,-130,o),
(1358,-22,cs),
(1429,86,o),
(1487,203,o),
(1519,316,cs),
(1567,496,o),
(1539,640,o),
(1463,738,cs),
(1387,836,o),
(1262,888,o),
(1115,888,cs),
(1030,888,o),
(953,875,o),
(889,858,cs),
(824,841,o),
(769,817,o),
(728,797,c),
(767,944,ls),
(790,1031,o),
(811,1110,o),
(831,1187,cs),
(851,1263,o),
(872,1339,o),
(893,1420,c),
(842,1364,l),
(1089,1364,l),
(1501,1364,l),
(1519,1426,l),
(319,1426,l),
(302,1364,l),
(714,1364,l),
(840,1364,l),
(829,1420,l),
(808,1339,o),
(787,1263,o),
(767,1187,cs),
(747,1110,o),
(726,1031,o),
(703,944,cs),
(579,476,ls),
(556,389,o),
(535,310,o),
(515,233,cs),
(494,156,o),
(474,80,o),
(453,0,c),
(517,0,l),
(538,80,o),
(558,156,o),
(579,233,cs),
(599,310,o),
(620,389,o),
(643,476,cs),
(708,721,l),
(829,789,o),
(961,824,o),
(1114,824,cs),
(1253,824,o),
(1358,778,o),
(1419,694,cs),
(1480,610,o),
(1497,488,o),
(1457,336,cs),
(1425,221,o),
(1370,108,o),
(1297,0,cs),
(1224,-108,o),
(1132,-213,o),
(1025,-310,c)
);
}
);
width = 1648;
}
);
leftKerningGroup = uni0402_2;
rightKerningGroup = uni0402;
unicode = 1026;
},
{
glyphname = Dzeabkhcyr;
layers = (
{
layerId = "B73C764B-EEC1-4CAF-B436-916766E5142A";
shapes = (
{
closed = 1;
nodes = (
(719,-32,o),
(864,3,o),
(961,66,cs),
(1057,129,o),
(1105,221,o),
(1136,333,cs),
(1171,462,o),
(1161,572,o),
(1106,657,cs),
(1051,742,o),
(954,803,o),
(811,835,c),
(850,780,l),
(997,902,ls),
(1097,986,o),
(1183,1059,o),
(1275,1135,c),
(1351,1426,l),
(339,1426,l),
(237,1040,l),
(659,1040,l),
(729,1040,l),
(758,1134,l),
(545,945,ls),
(502,906,o),
(453,862,o),
(410,825,c),
(344,576,l),
(487,576,ls),
(550,576,o),
(596,562,o),
(624,539,cs),
(652,515,o),
(664,481,o),
(653,441,c),
(645,406,o),
(622,384,o),
(593,369,cs),
(564,354,o),
(526,348,o),
(489,348,cs),
(425,348,o),
(354,362,o),
(286,386,cs),
(218,410,o),
(151,445,o),
(94,486,c),
(-36,84,l),
(8,53,o),
(87,24,o),
(182,3,cs),
(277,-18,o),
(389,-32,o),
(498,-32,cs)
);
}
);
width = 1218;
},
{
layerId = "2619DEE8-C08B-47F7-A010-C7FC63110412";
shapes = (
{
closed = 1;
nodes = (
(683,-24,o),
(808,16,o),
(893,80,cs),
(978,143,o),
(1024,229,o),
(1051,324,c),
(1088,464,o),
(1061,583,o),
(988,670,cs),
(915,757,o),
(795,813,o),
(644,828,c),
(670,753,l),
(870,927,ls),
(991,1032,o),
(1112,1138,o),
(1233,1242,c),
(1282,1426,l),
(351,1426,l),
(293,1208,l),
(819,1208,l),
(979,1208,l),
(971,1291,l),
(636,993,ls),
(564,929,o),
(491,865,o),
(431,810,c),
(390,656,l),
(492,656,ls),
(596,656,o),
(683,633,o),
(739,587,cs),
(794,541,o),
(818,472,o),
(795,384,cs),
(782,333,o),
(754,286,o),
(706,251,cs),
(658,215,o),
(591,192,o),
(499,192,cs),
(419,192,o),
(342,207,o),
(270,233,cs),
(197,259,o),
(130,295,o),
(70,336,c),
(-7,113,l),
(42,77,o),
(116,43,o),
(204,18,cs),
(291,-7,o),
(394,-24,o),
(499,-24,cs)
);
}
);
width = 1164;
},
{
layerId = "E9B47305-927A-4F8D-A320-B0B953B21E21";
shapes = (
{
closed = 1;
nodes = (
(670,-21,o),
(787,21,o),
(868,85,cs),
(949,148,o),
(993,234,o),
(1018,322,c),
(1057,465,o),
(1023,583,o),
(942,667,cs),
(861,751,o),
(732,800,o),
(578,809,c),
(607,760,l),
(827,954,ls),
(959,1069,o),
(1090,1184,o),
(1221,1299,c),
(1255,1426,l),
(356,1426,l),
(317,1278,l),
(882,1278,l),
(1076,1278,l),
(1051,1340,l),
(665,998,ls),
(587,928,o),
(506,857,o),
(436,793,c),
(408,687,l),
(494,687,ls),
(614,687,o),
(717,659,o),
(783,605,cs),
(849,550,o),
(878,468,o),
(849,362,cs),
(833,302,o),
(803,245,o),
(747,201,cs),
(692,156,o),
(614,127,o),
(500,127,cs),
(415,127,o),
(335,143,o),
(262,169,cs),
(188,196,o),
(121,232,o),
(59,274,c),
(5,123,l),
(56,86,o),
(127,50,o),
(213,23,cs),
(297,-3,o),
(396,-21,o),
(500,-21,cs)
);
}
);
width = 1144;
},
{
layerId = "F0D7A2F7-B8FF-408B-8955-93892ED6432C";
shapes = (
{
closed = 1;
nodes = (
(653,-18,o),
(761,26,o),
(837,91,cs),
(913,155,o),
(955,239,o),
(978,319,cs),
(1018,467,o),
(976,584,o),
(885,664,cs),
(794,743,o),
(655,785,o),
(498,785,c),
(529,768,l),
(775,986,ls),
(920,1115,o),
(1062,1240,o),
(1207,1369,c),
(1222,1426,l),
(362,1426,l),
(346,1364,l),
(959,1364,l),
(1195,1364,l),
(1148,1400,l),
(700,1003,ls),
(615,927,o),
(525,848,o),
(441,773,c),
(429,724,l),
(496,724,ls),
(636,724,o),
(758,691,o),
(837,627,cs),
(916,562,o),
(951,464,o),
(916,336,cs),
(896,265,o),
(862,194,o),
(798,139,cs),
(734,84,o),
(641,48,o),
(502,48,cs),
(410,48,o),
(327,64,o),
(252,91,cs),
(176,118,o),
(109,155,o),
(46,198,c),
(19,136,l),
(72,97,o),
(141,59,o),
(223,30,cs),
(305,1,o),
(398,-18,o),
(501,-18,cs)
);
}
);
width = 1119;
}
);
leftKerningGroup = uni0417;
rightKerningGroup = uni0405;
unicode = 1248;
},
{
glyphname = Dzhecyr;
layers = (
{
layerId = "B73C764B-EEC1-4CAF-B436-916766E5142A";
shapes = (
{
closed = 1;
nodes = (
(1270,0,l),
(1290,75,o),
(1308,142,o),
(1328,215,cs),
(1347,287,o),
(1367,366,o),
(1392,459,cs),
(1522,948,ls),
(1547,1043,o),
(1568,1122,o),
(1589,1198,cs),
(1609,1274,o),
(1629,1346,o),
(1650,1426,c),
(1155,1426,l),
(1134,1346,o),
(1114,1274,o),
(1094,1198,cs),
(1073,1122,o),
(1052,1043,o),
(1027,948,cs),
(919,538,ls),
(895,447,o),
(874,369,o),
(855,296,cs),
(835,223,o),
(817,155,o),
(797,80,c),
(1101,404,l),
(349,404,l),
(475,80,l),
(495,156,o),
(513,225,o),
(533,298,cs),
(552,370,o),
(573,447,o),
(597,539,cs),
(706,948,ls),
(731,1043,o),
(752,1122,o),
(773,1198,cs),
(793,1274,o),
(813,1346,o),
(834,1426,c),
(339,1426,l),
(319,1349,o),
(299,1276,o),
(279,1200,cs),
(259,1124,o),
(237,1043,o),
(212,948,cs),
(82,459,ls),
(57,366,o),
(36,287,o),
(17,215,cs),
(-3,142,o),
(-21,75,o),
(-41,0,c)
);
},
{
closed = 1;
nodes = (
(742,-300,l),
(779,-175,o),
(814,-51,o),
(850,74,c),
(422,74,l),
(393,-51,o),
(363,-175,o),
(334,-300,c)
);
}
);
width = 1492;
},
{
layerId = "2619DEE8-C08B-47F7-A010-C7FC63110412";
shapes = (
{
closed = 1;
nodes = (
(1203,0,l),
(1224,79,o),
(1243,150,o),
(1263,225,cs),
(1283,300,o),
(1304,378,o),
(1328,469,cs),
(1455,945,ls),
(1479,1037,o),
(1500,1119,o),
(1521,1197,cs),
(1541,1275,o),
(1561,1349,o),
(1582,1426,c),
(1321,1426,l),
(1300,1349,o),
(1280,1275,o),
(1260,1197,cs),
(1239,1119,o),
(1217,1038,o),
(1193,946,cs),
(1077,509,ls),
(1053,420,o),
(1033,342,o),
(1013,267,cs),
(993,191,o),
(973,118,o),
(952,41,c),
(1122,219,l),
(231,219,l),
(304,41,l),
(324,120,o),
(344,192,o),
(364,268,cs),
(384,343,o),
(404,421,o),
(428,510,cs),
(543,945,ls),
(567,1037,o),
(589,1118,o),
(610,1195,cs),
(630,1272,o),
(650,1346,o),
(671,1426,c),
(410,1426,l),
(389,1347,o),
(369,1273,o),
(349,1196,cs),
(329,1119,o),
(307,1038,o),
(283,946,cs),
(156,469,ls),
(132,378,o),
(111,300,o),
(91,225,cs),
(71,149,o),
(52,77,o),
(31,0,c)
);
},
{
closed = 1;
nodes = (
(647,-306,l),
(680,-190,o),
(713,-77,o),
(745,39,c),
(513,39,l),
(485,-77,o),
(457,-189,o),
(429,-306,c)
);
}
);
width = 1494;
},
{
layerId = "E9B47305-927A-4F8D-A320-B0B953B21E21";
shapes = (
{
closed = 1;
nodes = (
(1178,0,l),
(1199,80,o),
(1219,153,o),
(1239,229,cs),
(1259,305,o),
(1280,383,o),
(1304,473,cs),
(1429,944,ls),
(1453,1036,o),
(1475,1117,o),
(1496,1196,cs),
(1516,1275,o),
(1536,1349,o),
(1557,1426,c),
(1384,1426,l),
(1364,1349,o),
(1343,1275,o),
(1323,1196,cs),
(1302,1118,o),
(1280,1037,o),
(1256,945,cs),
(1138,498,ls),
(1114,410,o),
(1093,331,o),
(1073,255,cs),
(1053,179,o),
(1033,105,o),
(1012,26,c),
(1131,148,l),
(186,148,l),
(239,26,l),
(259,106,o),
(280,180,o),
(300,256,cs),
(320,332,o),
(340,410,o),
(364,499,cs),
(482,944,ls),
(506,1036,o),
(527,1117,o),
(548,1194,cs),
(568,1272,o),
(588,1346,o),
(609,1426,c),
(437,1426,l),
(416,1347,o),
(396,1272,o),
(376,1195,cs),
(356,1117,o),
(334,1037,o),
(310,945,cs),
(184,472,ls),
(161,383,o),
(140,305,o),
(120,229,cs),
(99,152,o),
(80,78,o),
(59,0,c)
);
},
{
closed = 1;
nodes = (
(611,-308,l),
(643,-196,o),
(675,-86,o),
(705,26,c),
(548,26,l),
(520,-87,o),
(493,-195,o),
(466,-308,c)
);
}
);
width = 1495;
},
{
layerId = "F0D7A2F7-B8FF-408B-8955-93892ED6432C";
shapes = (
{
closed = 1;
nodes = (
(1148,0,l),
(1169,81,o),
(1190,157,o),
(1210,234,cs),
(1230,310,o),
(1251,389,o),
(1275,477,cs),
(1398,943,ls),
(1422,1034,o),
(1444,1115,o),
(1465,1195,cs),
(1485,1274,o),
(1506,1349,o),
(1526,1426,c),
(1462,1426,l),
(1442,1350,o),
(1421,1274,o),
(1401,1195,cs),
(1380,1116,o),
(1358,1035,o),
(1334,944,cs),
(1212,484,ls),
(1188,397,o),
(1167,318,o),
(1147,241,cs),
(1127,164,o),
(1106,88,o),
(1085,8,c),
(1141,62,l),
(131,62,l),
(159,8,l),
(180,89,o),
(201,165,o),
(221,242,cs),
(241,318,o),
(262,397,o),
(285,485,cs),
(407,943,ls),
(431,1034,o),
(452,1115,o),
(473,1193,cs),
(493,1271,o),
(513,1346,o),
(534,1426,c),
(470,1426,l),
(449,1346,o),
(429,1271,o),
(409,1193,cs),
(388,1115,o),
(367,1035,o),
(343,944,cs),
(219,476,ls),
(196,389,o),
(175,310,o),
(155,233,cs),
(134,156,o),
(114,80,o),
(93,0,c)
);
},
{
closed = 1;
nodes = (
(567,-311,l),
(598,-204,o),
(628,-98,o),
(657,9,c),
(590,9,l),
(563,-99,o),
(538,-203,o),
(511,-311,c)
);
}
);
width = 1496;
}
);
rightKerningGroup = uni0406;
unicode = 1039;
},
{
glyphname = E;
layers = (
{
anchors = (
{
name = bottom;
position = "{474, 0}";
},
{
name = ogonek;
position = "{988, 0}";
},
{
name = top;
position = "{849, 1426}";
},
{
name = topleft;
position = "{325, 1426}";
}
);
layerId = "B73C764B-EEC1-4CAF-B436-916766E5142A";
shapes = (
{
closed = 1;
nodes = (
(987,0,l),
(1090,386,l),
(704,386,l),
(390,386,l),
(461,80,l),
(480,155,o),
(498,223,o),
(518,296,cs),
(537,369,o),
(557,447,o),
(581,538,cs),
(668,871,ls),
(693,966,o),
(714,1045,o),
(734,1121,cs),
(754,1197,o),
(773,1269,o),
(793,1346,c),
(530,1040,l),
(844,1040,l),
(1248,1040,l),
(1348,1426,l),
(337,1426,l),
(317,1349,o),
(297,1276,o),
(277,1200,cs),
(257,1124,o),
(235,1043,o),
(210,948,cs),
(80,459,ls),
(55,366,o),
(34,287,o),
(15,215,cs),
(-5,142,o),
(-23,75,o),
(-43,0,c)
);
},
{
closed = 1;
nodes = (
(712,542,l),
(1094,542,l),
(1184,886,l),
(802,886,l),
(558,886,l),
(468,542,l)
);
}
);
width = 1200;
},
{
anchors = (
{
name = bottom;
position = "{494, 0}";
},
{
name = ogonek;
position = "{954, 0}";
},
{
name = top;
position = "{869, 1426}";
},
{
name = topleft;
position = "{315, 1426}";
}
);
layerId = "2619DEE8-C08B-47F7-A010-C7FC63110412";
shapes = (
{
closed = 1;
nodes = (
(954,0,l),
(1014,218,l),
(564,218,l),
(214,218,l),
(295,44,l),
(315,121,o),
(334,193,o),
(354,268,cs),
(374,343,o),
(395,421,o),
(419,509,cs),
(525,911,ls),
(549,1002,o),
(570,1080,o),
(590,1157,cs),
(610,1234,o),
(630,1309,o),
(651,1389,c),
(458,1208,l),
(804,1208,l),
(1265,1208,l),
(1325,1426,l),
(407,1426,l),
(386,1345,o),
(366,1270,o),
(346,1194,cs),
(325,1117,o),
(304,1036,o),
(280,944,cs),
(153,468,ls),
(129,379,o),
(109,300,o),
(89,225,cs),
(69,149,o),
(50,77,o),
(30,0,c)
);
},
{
closed = 1;
nodes = (
(656,616,l),
(1077,616,l),
(1132,826,l),
(714,826,l),
(443,826,l),
(388,616,l)
);
}
);
width = 1190;
},
{
anchors = (
{
name = bottom;
position = "{503, 0}";
},
{
name = ogonek;
position = "{939, 0}";
},
{
name = top;
position = "{878, 1426}";
},
{
name = topleft;
position = "{289, 1426}";
}
);
layerId = "E9B47305-927A-4F8D-A320-B0B953B21E21";
shapes = (
{
closed = 1;
nodes = (
(942,0,l),
(983,148,l),
(508,148,l),
(181,148,l),
(233,28,l),
(253,106,o),
(273,180,o),
(293,256,cs),
(313,332,o),
(334,411,o),
(357,497,c),
(471,927,ls),
(495,1016,o),
(515,1094,o),
(535,1171,cs),
(555,1247,o),
(576,1323,o),
(597,1403,c),
(468,1278,l),
(790,1278,l),
(1275,1278,l),
(1316,1426,l),
(434,1426,l),
(413,1345,o),
(393,1270,o),
(373,1194,cs),
(352,1116,o),
(331,1035,o),
(307,944,cs),
(182,472,ls),
(158,384,o),
(138,305,o),
(118,229,cs),
(97,152,o),
(78,78,o),
(57,0,c)
);
},
{
closed = 1;
nodes = (
(637,651,l),
(1072,651,l),
(1110,795,l),
(678,795,l),
(398,795,l),
(360,651,l)
);
}
);
width = 1186;
},
{
anchors = (
{
name = bottom;
position = "{510, 0}";
},
{
name = ogonek;
position = "{926, 0}";
},
{
name = top;
position = "{885, 1426}";
},
{
name = topleft;
position = "{268, 1426}";
}
);
layerId = "F0D7A2F7-B8FF-408B-8955-93892ED6432C";
shapes = (
{
closed = 1;
nodes = (
(927,0,l),
(945,62,l),
(440,62,l),
(140,62,l),
(157,8,l),
(178,88,o),
(199,165,o),
(219,242,cs),
(239,319,o),
(259,398,o),
(282,482,cs),
(405,947,ls),
(428,1032,o),
(448,1110,o),
(468,1187,cs),
(488,1263,o),
(509,1339,o),
(530,1420,c),
(480,1364,l),
(773,1364,l),
(1287,1364,l),
(1304,1426,l),
(468,1426,l),
(447,1346,o),
(427,1271,o),
(407,1193,cs),
(386,1115,o),
(365,1034,o),
(341,943,cs),
(217,477,ls),
(194,389,o),
(173,310,o),
(153,233,cs),
(132,156,o),
(112,80,o),
(91,0,c)
);
},
{
closed = 1;
nodes = (
(614,694,l),
(1066,694,l),
(1083,756,l),
(633,756,l),
(343,756,l),
(325,694,l)
);
}
);
width = 1182;
}
);
leftKerningGroup = B;
rightKerningGroup = E;
unicode = 69;
},
{
glyphname = Eukrcyr;
layers = (
{
layerId = "B73C764B-EEC1-4CAF-B436-916766E5142A";
shapes = (
{
closed = 1;
nodes = (
(825,-32,o),
(901,-27,o),
(976,-16,cs),
(1051,-5,o),
(1123,11,o),
(1178,31,c),
(1276,489,l),
(1201,446,o),
(1123,413,o),
(1052,390,cs),
(980,366,o),
(915,354,o),
(867,354,cs),
(768,354,o),
(690,388,o),
(640,443,cs),
(590,498,o),
(568,571,o),
(581,650,c),
(614,770,ls),
(647,885,o),
(702,956,o),
(767,1000,cs),
(831,1044,o),
(908,1059,o),
(985,1059,cs),
(1050,1059,o),
(1117,1045,o),
(1184,1019,cs),
(1251,993,o),
(1319,956,o),
(1384,913,c),
(1531,1341,l),
(1462,1377,o),
(1370,1407,o),
(1275,1427,cs),
(1179,1447,o),
(1083,1458,o),
(1003,1458,cs),
(756,1458,o),
(565,1408,o),
(422,1305,cs),
(278,1201,o),
(183,1044,o),
(128,831,cs),
(108,755,o),
(98,681,o),
(97,609,cs),
(96,464,o),
(131,335,o),
(203,228,cs),
(239,175,o),
(284,129,o),
(338,90,cs),
(445,13,o),
(587,-32,o),
(762,-32,cs)
);
},
{
closed = 1;
nodes = (
(706,545,l),
(1088,545,l),
(1174,871,l),
(792,871,l),
(558,871,l),
(472,545,l)
);
}
);
width = 1380;
},
{
layerId = "2619DEE8-C08B-47F7-A010-C7FC63110412";
shapes = (
{
closed = 1;
nodes = (
(822,-24,o),
(896,-17,o),
(968,-4,cs),
(1039,9,o),
(1107,31,o),
(1160,59,c),
(1210,318,l),
(1143,275,o),
(1072,244,o),
(1002,224,cs),
(932,203,o),
(862,193,o),
(801,193,cs),
(648,193,o),
(536,251,o),
(468,342,cs),
(400,433,o),
(378,555,o),
(399,686,c),
(414,742,l),
(449,907,o),
(520,1030,o),
(620,1111,cs),
(720,1191,o),
(849,1230,o),
(1002,1230,cs),
(1079,1230,o),
(1152,1219,o),
(1222,1196,cs),
(1292,1173,o),
(1358,1138,o),
(1425,1091,c),
(1507,1326,l),
(1443,1366,o),
(1363,1399,o),
(1276,1421,cs),
(1189,1443,o),
(1097,1454,o),
(1013,1454,cs),
(789,1454,o),
(605,1403,o),
(463,1299,cs),
(321,1194,o),
(220,1036,o),
(164,824,cs),
(145,751,o),
(135,680,o),
(134,610,cs),
(130,470,o),
(163,343,o),
(229,237,cs),
(262,184,o),
(303,138,o),
(354,99,cs),
(454,22,o),
(587,-24,o),
(754,-24,cs)
);
},
{
closed = 1;
nodes = (
(633,613,l),
(1053,613,l),
(1109,823,l),
(690,823,l),
(388,823,l),
(331,613,l)
);
}
);
width = 1376;
},
{
layerId = "E9B47305-927A-4F8D-A320-B0B953B21E21";
shapes = (
{
closed = 1;
nodes = (
(821,-21,o),
(895,-14,o),
(965,1,cs),
(1035,15,o),
(1101,39,o),
(1154,69,c),
(1185,249,l),
(1121,207,o),
(1053,176,o),
(983,157,cs),
(914,137,o),
(843,128,o),
(777,128,cs),
(603,128,o),
(478,196,o),
(403,302,cs),
(328,407,o),
(305,550,o),
(330,700,c),
(338,731,l),
(374,916,o),
(451,1059,o),
(565,1155,cs),
(678,1250,o),
(827,1299,o),
(1009,1299,cs),
(1091,1299,o),
(1166,1290,o),
(1237,1268,cs),
(1308,1245,o),
(1375,1211,o),
(1442,1163,c),
(1498,1320,l),
(1436,1362,o),
(1360,1396,o),
(1277,1418,cs),
(1193,1441,o),
(1103,1452,o),
(1018,1452,cs),
(803,1452,o),
(622,1401,o),
(480,1296,cs),
(338,1191,o),
(234,1033,o),
(178,821,cs),
(160,750,o),
(150,680,o),
(148,611,cs),
(144,472,o),
(176,346,o),
(239,240,cs),
(271,187,o),
(312,141,o),
(361,102,cs),
(458,25,o),
(588,-21,o),
(751,-21,cs)
);
},
{
closed = 1;
nodes = (
(608,649,l),
(1043,649,l),
(1081,793,l),
(648,793,l),
(320,793,l),
(281,649,l)
);
}
);
width = 1374;
},
{
layerId = "F0D7A2F7-B8FF-408B-8955-93892ED6432C";
shapes = (
{
closed = 1;
nodes = (
(820,-18,o),
(893,-10,o),
(961,7,cs),
(1029,23,o),
(1094,49,o),
(1147,82,c),
(1155,164,l),
(1095,123,o),
(1029,93,o),
(960,75,cs),
(891,57,o),
(819,48,o),
(747,48,cs),
(547,48,o),
(407,128,o),
(324,252,cs),
(241,376,o),
(216,543,o),
(245,716,c),
(245,718,l),
(282,926,o),
(367,1094,o),
(497,1208,cs),
(627,1322,o),
(801,1384,o),
(1018,1384,cs),
(1105,1384,o),
(1183,1376,o),
(1255,1355,cs),
(1327,1334,o),
(1395,1301,o),
(1462,1250,c),
(1487,1313,l),
(1428,1357,o),
(1357,1392,o),
(1278,1415,cs),
(1198,1438,o),
(1111,1450,o),
(1023,1450,cs),
(819,1450,o),
(642,1398,o),
(500,1293,cs),
(358,1188,o),
(252,1030,o),
(196,818,cs),
(178,749,o),
(168,680,o),
(166,612,cs),
(162,475,o),
(191,350,o),
(252,244,cs),
(283,191,o),
(322,145,o),
(369,106,cs),
(463,29,o),
(589,-18,o),
(748,-18,cs)
);
},
{
closed = 1;
nodes = (
(578,694,l),
(1030,694,l),
(1046,756,l),
(596,756,l),
(236,756,l),
(219,694,l)
);
}
);
width = 1372;
}
);
leftKerningGroup = uni0404_2;
rightKerningGroup = uni0404;
unicode = 1028;
},
{
glyphname = Efcyr;
layers = (
{
layerId = "B73C764B-EEC1-4CAF-B436-916766E5142A";
shapes = (
{
closed = 1;
nodes = (
(1083,125,ls),
(1327,125,o),
(1504,170,o),
(1631,258,cs),
(1758,345,o),
(1835,475,o),
(1880,647,cs),
(1928,826,o),
(1902,988,o),
(1807,1108,cs),
(1712,1227,o),
(1549,1301,o),
(1322,1301,cs),
(1187,1301,l),
(1104,953,l),
(1262,953,ls),
(1331,953,o),
(1376,921,o),
(1398,873,cs),
(1420,824,o),
(1420,759,o),
(1403,692,cs),
(1386,628,o),
(1365,574,o),
(1329,535,cs),
(1293,495,o),
(1240,473,o),
(1160,473,cs),
(966,473,l),
(865,125,l)
);
},
{
closed = 1;
nodes = (
(815,125,l),
(898,473,l),
(730,473,ls),
(659,473,o),
(615,506,o),
(592,555,cs),
(569,603,o),
(570,668,o),
(587,732,cs),
(604,799,o),
(627,853,o),
(664,892,cs),
(701,931,o),
(755,953,o),
(832,953,cs),
(1016,953,l),
(1117,1301,l),
(895,1301,ls),
(662,1301,o),
(491,1260,o),
(365,1174,cs),
(239,1088,o),
(160,958,o),
(112,779,cs),
(67,607,o),
(91,444,o),
(186,324,cs),
(281,203,o),
(447,125,o),
(684,125,cs)
);
},
{
closed = 1;
nodes = (
(1036,-20,l),
(1052,43,o),
(1069,102,o),
(1085,165,c),
(1074,176,l),
(1097,265,o),
(1122,360,o),
(1150,464,cs),
(1281,958,ls),
(1310,1066,o),
(1334,1155,o),
(1359,1250,c),
(1376,1261,l),
(1392,1321,o),
(1409,1382,o),
(1426,1446,c),
(956,1446,l),
(939,1382,o),
(922,1321,o),
(906,1261,c),
(919,1250,l),
(894,1155,o),
(870,1066,o),
(841,958,cs),
(710,462,ls),
(683,359,o),
(658,267,o),
(634,176,c),
(615,165,l),
(599,104,o),
(583,43,o),
(566,-20,c)
);
}
);
width = 1876;
},
{
layerId = "2619DEE8-C08B-47F7-A010-C7FC63110412";
shapes = (
{
closed = 1;
nodes = (
(918,123,ls),
(1165,123,o),
(1344,172,o),
(1473,261,cs),
(1601,350,o),
(1679,481,o),
(1723,646,cs),
(1770,822,o),
(1746,986,o),
(1655,1106,cs),
(1563,1226,o),
(1405,1303,o),
(1185,1303,cs),
(1116,1303,l),
(1068,1101,l),
(1156,1101,ls),
(1281,1101,o),
(1375,1058,o),
(1428,983,cs),
(1480,908,o),
(1495,802,o),
(1460,675,cs),
(1428,554,o),
(1376,466,o),
(1296,409,cs),
(1216,352,o),
(1107,325,o),
(959,325,cs),
(850,325,l),
(792,123,l)
);
},
{
closed = 1;
nodes = (
(762,123,l),
(813,325,l),
(722,325,ls),
(593,325,o),
(498,369,o),
(443,444,cs),
(388,519,o),
(375,626,o),
(408,750,cs),
(440,873,o),
(495,961,o),
(576,1018,cs),
(657,1074,o),
(766,1101,o),
(910,1101,cs),
(1010,1101,l),
(1068,1303,l),
(945,1303,ls),
(709,1303,o),
(532,1258,o),
(403,1170,cs),
(274,1082,o),
(191,952,o),
(146,780,cs),
(101,611,o),
(124,447,o),
(216,325,cs),
(308,203,o),
(469,123,o),
(698,123,cs)
);
},
{
closed = 1;
nodes = (
(865,-36,l),
(884,33,o),
(900,92,o),
(919,163,c),
(913,168,l),
(937,257,o),
(963,355,o),
(990,460,cs),
(1124,961,ls),
(1153,1072,o),
(1178,1163,o),
(1203,1258,c),
(1211,1263,l),
(1230,1330,o),
(1245,1391,o),
(1264,1462,c),
(1005,1462,l),
(985,1387,o),
(970,1330,o),
(951,1263,c),
(957,1258,l),
(932,1163,o),
(907,1072,o),
(878,961,cs),
(744,460,ls),
(717,356,o),
(690,259,o),
(667,168,c),
(658,163,l),
(641,99,o),
(624,33,o),
(605,-36,c)
);
}
);
width = 1750;
},
{
layerId = "E9B47305-927A-4F8D-A320-B0B953B21E21";
shapes = (
{
closed = 1;
nodes = (
(857,126,ls),
(1104,126,o),
(1284,175,o),
(1413,264,cs),
(1542,353,o),
(1619,483,o),
(1663,646,cs),
(1710,821,o),
(1686,984,o),
(1596,1104,cs),
(1505,1224,o),
(1349,1300,o),
(1131,1300,cs),
(1088,1300,l),
(1054,1161,l),
(1115,1161,ls),
(1263,1161,o),
(1376,1113,o),
(1443,1027,cs),
(1509,941,o),
(1530,818,o),
(1490,669,cs),
(1452,526,o),
(1386,425,o),
(1287,360,cs),
(1188,294,o),
(1055,265,o),
(882,265,cs),
(805,265,l),
(765,126,l)
);
},
{
closed = 1;
nodes = (
(744,126,l),
(779,265,l),
(718,265,ls),
(567,265,o),
(451,314,o),
(382,400,cs),
(313,486,o),
(293,609,o),
(332,757,cs),
(370,901,o),
(439,1002,o),
(539,1068,cs),
(639,1132,o),
(772,1161,o),
(940,1161,cs),
(1008,1161,l),
(1047,1300,l),
(962,1300,ls),
(726,1300,o),
(547,1255,o),
(417,1167,cs),
(287,1079,o),
(204,950,o),
(159,780,cs),
(115,612,o),
(138,448,o),
(229,327,cs),
(320,206,o),
(478,126,o),
(705,126,cs)
);
},
{
closed = 1;
nodes = (
(796,-42,l),
(815,30,o),
(832,91,o),
(851,162,c),
(847,165,l),
(872,256,o),
(897,352,o),
(925,459,cs),
(1060,965,ls),
(1089,1074,o),
(1114,1167,o),
(1139,1261,c),
(1144,1264,l),
(1163,1333,o),
(1178,1395,o),
(1198,1468,c),
(1027,1468,l),
(1007,1393,o),
(991,1333,o),
(972,1264,c),
(975,1261,l),
(950,1167,o),
(925,1074,o),
(896,965,cs),
(761,460,ls),
(733,353,o),
(707,257,o),
(684,165,c),
(679,162,l),
(661,95,o),
(643,30,o),
(624,-42,c)
);
}
);
width = 1702;
},
{
layerId = "F0D7A2F7-B8FF-408B-8955-93892ED6432C";
shapes = (
{
closed = 1;
nodes = (
(782,129,ls),
(1030,129,o),
(1211,179,o),
(1340,268,cs),
(1469,356,o),
(1546,486,o),
(1590,646,cs),
(1637,819,o),
(1612,982,o),
(1523,1102,cs),
(1434,1221,o),
(1280,1297,o),
(1065,1297,cs),
(1054,1297,l),
(1037,1235,l),
(1065,1235,ls),
(1240,1235,o),
(1378,1180,o),
(1462,1081,cs),
(1545,981,o),
(1573,838,o),
(1526,661,cs),
(1481,492,o),
(1399,375,o),
(1276,300,cs),
(1153,224,o),
(991,191,o),
(787,191,cs),
(750,191,l),
(733,129,l)
);
},
{
closed = 1;
nodes = (
(721,129,l),
(738,191,l),
(714,191,ls),
(535,191,o),
(394,247,o),
(308,347,cs),
(222,446,o),
(192,589,o),
(239,765,cs),
(284,936,o),
(370,1053,o),
(494,1128,cs),
(617,1203,o),
(780,1235,o),
(977,1235,cs),
(1005,1235,l),
(1022,1297,l),
(982,1297,ls),
(746,1297,o),
(566,1251,o),
(435,1164,cs),
(303,1076,o),
(220,947,o),
(175,780,cs),
(131,613,o),
(154,450,o),
(244,330,cs),
(334,209,o),
(490,129,o),
(713,129,cs)
);
},
{
closed = 1;
nodes = (
(711,-50,l),
(731,26,o),
(748,90,o),
(767,161,c),
(767,162,l),
(792,255,o),
(817,349,o),
(846,457,cs),
(982,969,ls),
(1011,1077,o),
(1036,1171,o),
(1061,1264,c),
(1061,1265,l),
(1080,1336,o),
(1097,1400,o),
(1117,1476,c),
(1053,1476,l),
(1033,1400,o),
(1016,1336,o),
(997,1265,c),
(997,1264,l),
(972,1171,o),
(947,1077,o),
(918,969,cs),
(782,459,ls),
(753,350,o),
(728,255,o),
(704,162,c),
(704,161,l),
(685,90,o),
(667,26,o),
(647,-50,c)
);
}
);
width = 1644;
}
);
unicode = 1060;
},
{
glyphname = Efcyr.loclBGR;
layers = (
{
layerId = "B73C764B-EEC1-4CAF-B436-916766E5142A";
shapes = (
{
closed = 1;
nodes = (
(1086,23,l),
(1299,35,o),
(1466,91,o),
(1592,191,cs),
(1718,291,o),
(1803,437,o),
(1854,626,cs),
(1871,689,o),
(1879,752,o),
(1879,814,cs),
(1879,938,o),
(1845,1052,o),
(1779,1150,cs),
(1746,1199,o),
(1705,1241,o),
(1656,1278,cs),
(1558,1350,o),
(1428,1396,o),
(1268,1403,c),
(1203,1403,l),
(1123,1070,l),
(1255,1070,l),
(1319,1065,o),
(1360,1012,o),
(1380,939,cs),
(1399,866,o),
(1396,772,o),
(1373,684,cs),
(1350,599,o),
(1313,518,o),
(1264,458,cs),
(1215,398,o),
(1152,358,o),
(1077,355,c),
(923,355,l),
(825,23,l)
);
},
{
closed = 1;
nodes = (
(776,23,l),
(855,355,l),
(714,355,l),
(647,360,o),
(606,412,o),
(586,484,cs),
(566,555,o),
(568,647,o),
(591,732,cs),
(614,820,o),
(653,904,o),
(705,966,cs),
(756,1028,o),
(819,1067,o),
(891,1070,c),
(1035,1070,l),
(1133,1403,l),
(862,1403,l),
(665,1394,o),
(503,1338,o),
(378,1236,cs),
(253,1134,o),
(163,984,o),
(111,788,cs),
(95,727,o),
(87,666,o),
(88,605,cs),
(88,484,o),
(123,372,o),
(191,276,cs),
(224,228,o),
(266,186,o),
(316,150,cs),
(416,78,o),
(549,31,o),
(714,23,c)
);
},
{
closed = 1;
nodes = (
(998,-83,l),
(1014,-22,o),
(1030,41,o),
(1047,102,c),
(1047,141,l),
(1072,236,o),
(1097,328,o),
(1124,431,cs),
(1273,991,ls),
(1301,1092,o),
(1326,1188,o),
(1351,1281,c),
(1371,1320,l),
(1387,1381,o),
(1403,1444,o),
(1419,1505,c),
(969,1505,l),
(953,1444,o),
(937,1381,o),
(920,1320,c),
(920,1281,l),
(895,1186,o),
(870,1094,o),
(843,990,cs),
(694,432,ls),
(667,328,o),
(642,234,o),
(617,141,c),
(597,102,l),
(581,41,o),
(564,-22,o),
(548,-83,c)
);
}
);
width = 1856;
},
{
layerId = "2619DEE8-C08B-47F7-A010-C7FC63110412";
shapes = (
{
closed = 1;
nodes = (
(908,45,l),
(1139,50,o),
(1315,108,o),
(1446,209,cs),
(1577,309,o),
(1661,453,o),
(1708,630,cs),
(1725,692,o),
(1733,753,o),
(1734,814,cs),
(1734,935,o),
(1704,1046,o),
(1643,1141,cs),
(1612,1188,o),
(1574,1230,o),
(1528,1265,cs),
(1436,1336,o),
(1313,1378,o),
(1160,1381,c),
(1128,1381,l),
(1078,1180,l),
(1148,1180,l),
(1281,1179,o),
(1374,1118,o),
(1425,1023,cs),
(1476,928,o),
(1483,801,o),
(1447,665,cs),
(1412,530,o),
(1350,427,o),
(1261,356,cs),
(1172,284,o),
(1055,246,o),
(910,245,c),
(827,245,l),
(768,45,l)
);
},
{
closed = 1;
nodes = (
(739,45,l),
(789,245,l),
(711,245,l),
(576,248,o),
(482,308,o),
(431,401,cs),
(380,494,o),
(371,620,o),
(407,755,cs),
(443,891,o),
(506,997,o),
(596,1069,cs),
(686,1141,o),
(801,1180,o),
(945,1180,cs),
(1021,1180,l),
(1078,1381,l),
(937,1381,l),
(717,1377,o),
(545,1320,o),
(414,1220,cs),
(283,1119,o),
(195,973,o),
(146,789,cs),
(130,730,o),
(122,670,o),
(122,611,cs),
(121,491,o),
(152,382,o),
(213,287,cs),
(244,240,o),
(282,198,o),
(329,163,cs),
(422,92,o),
(548,49,o),
(705,45,c)
);
},
{
closed = 1;
nodes = (
(844,-82,l),
(861,-18,o),
(878,42,o),
(894,105,c),
(895,130,l),
(919,221,o),
(944,313,o),
(971,417,cs),
(1129,1007,ls),
(1156,1111,o),
(1181,1204,o),
(1205,1296,c),
(1215,1320,l),
(1231,1381,o),
(1248,1442,o),
(1265,1507,c),
(1012,1507,l),
(996,1442,o),
(980,1381,o),
(963,1320,c),
(962,1296,l),
(937,1204,o),
(912,1111,o),
(885,1007,cs),
(728,417,ls),
(701,313,o),
(676,219,o),
(651,130,c),
(641,105,l),
(625,44,o),
(610,-18,o),
(591,-82,c)
);
}
);
width = 1741;
},
{
layerId = "E9B47305-927A-4F8D-A320-B0B953B21E21";
shapes = (
{
closed = 1;
nodes = (
(840,53,l),
(1079,56,o),
(1259,115,o),
(1392,216,cs),
(1524,316,o),
(1607,460,o),
(1653,632,cs),
(1670,693,o),
(1678,754,o),
(1679,814,cs),
(1680,934,o),
(1651,1044,o),
(1593,1138,cs),
(1563,1184,o),
(1525,1226,o),
(1481,1260,cs),
(1391,1330,o),
(1270,1371,o),
(1119,1373,c),
(1099,1373,l),
(1064,1234,l),
(1111,1234,l),
(1272,1234,o),
(1384,1167,o),
(1447,1061,cs),
(1510,955,o),
(1522,812,o),
(1481,658,cs),
(1441,504,o),
(1368,389,o),
(1261,311,cs),
(1155,232,o),
(1016,192,o),
(843,191,c),
(787,191,l),
(746,53,l)
);
},
{
closed = 1;
nodes = (
(725,53,l),
(760,191,l),
(707,191,l),
(545,193,o),
(431,259,o),
(368,364,cs),
(304,468,o),
(290,611,o),
(331,764,cs),
(372,918,o),
(445,1036,o),
(552,1115,cs),
(659,1194,o),
(797,1234,o),
(968,1234,cs),
(1018,1234,l),
(1057,1373,l),
(966,1373,l),
(736,1371,o),
(559,1314,o),
(426,1214,cs),
(293,1113,o),
(207,968,o),
(159,789,cs),
(143,730,o),
(135,671,o),
(135,613,cs),
(133,494,o),
(162,385,o),
(221,291,cs),
(251,244,o),
(288,203,o),
(334,168,cs),
(424,98,o),
(547,55,o),
(701,53,c)
);
},
{
closed = 1;
nodes = (
(780,-81,l),
(797,-16,o),
(814,45,o),
(830,107,c),
(832,125,l),
(856,215,o),
(881,308,o),
(908,412,cs),
(1068,1013,ls),
(1096,1117,o),
(1121,1211,o),
(1145,1301,c),
(1151,1319,l),
(1167,1380,o),
(1184,1441,o),
(1201,1507,c),
(1033,1507,l),
(1017,1441,o),
(1000,1380,o),
(984,1319,c),
(982,1301,l),
(958,1211,o),
(933,1117,o),
(905,1013,cs),
(746,412,ls),
(718,308,o),
(693,214,o),
(669,125,c),
(662,107,l),
(646,46,o),
(630,-16,o),
(612,-81,c)
);
}
);
width = 1697;
},
{
layerId = "F0D7A2F7-B8FF-408B-8955-93892ED6432C";
shapes = (
{
closed = 1;
nodes = (
(756,63,ls),
(1005,63,o),
(1191,123,o),
(1325,224,cs),
(1459,325,o),
(1542,468,o),
(1586,635,cs),
(1602,695,o),
(1611,755,o),
(1612,814,cs),
(1615,933,o),
(1587,1042,o),
(1531,1134,cs),
(1502,1180,o),
(1466,1220,o),
(1423,1254,cs),
(1335,1322,o),
(1218,1363,o),
(1069,1363,cs),
(1063,1363,l),
(1047,1301,l),
(1065,1301,ls),
(1260,1301,o),
(1397,1227,o),
(1474,1108,cs),
(1551,989,o),
(1569,826,o),
(1522,649,cs),
(1477,473,o),
(1389,343,o),
(1262,256,cs),
(1135,168,o),
(968,125,o),
(761,125,cs),
(737,125,l),
(720,63,l)
);
},
{
closed = 1;
nodes = (
(708,63,l),
(725,125,l),
(701,125,ls),
(508,125,o),
(369,199,o),
(290,318,cs),
(210,437,o),
(191,599,o),
(238,775,cs),
(285,952,o),
(371,1083,o),
(498,1171,cs),
(625,1258,o),
(792,1301,o),
(997,1301,cs),
(1015,1301,l),
(1031,1363,l),
(1001,1363,ls),
(760,1363,o),
(576,1306,o),
(441,1206,cs),
(306,1106,o),
(221,962,o),
(174,789,cs),
(159,731,o),
(151,673,o),
(150,615,cs),
(148,498,o),
(174,389,o),
(231,296,cs),
(259,249,o),
(295,209,o),
(339,174,cs),
(426,105,o),
(545,63,o),
(696,63,cs)
);
},
{
closed = 1;
nodes = (
(702,-80,l),
(719,-13,o),
(736,48,o),
(752,109,c),
(754,119,l),
(778,207,o),
(803,301,o),
(831,405,cs),
(994,1021,ls),
(1022,1125,o),
(1047,1219,o),
(1071,1308,c),
(1073,1317,l),
(1089,1378,o),
(1106,1439,o),
(1123,1506,c),
(1059,1506,l),
(1042,1439,o),
(1025,1378,o),
(1009,1317,c),
(1007,1308,l),
(983,1219,o),
(958,1125,o),
(930,1021,cs),
(767,405,ls),
(739,301,o),
(714,207,o),
(690,119,c),
(688,109,l),
(672,48,o),
(655,-13,o),
(638,-80,c)
);
}
);
width = 1644;
}
);
leftKerningGroup = uni0404_2;
rightKerningGroup = uni041E;
},
{
glyphname = Elcyr;
layers = (
{
anchors = (
{
name = "#exit";
position = "{1304, 0}";
}
);
layerId = "B73C764B-EEC1-4CAF-B436-916766E5142A";
shapes = (
{
closed = 1;
nodes = (
(229,-28,o),
(283,-22,o),
(330,-11,c),
(423,13,o),
(494,61,o),
(549,135,cs),
(576,172,o),
(602,215,o),
(626,266,cs),
(673,366,o),
(716,496,o),
(768,653,cs),
(844,892,o),
(914,1106,o),
(985,1327,c),
(646,1022,l),
(1312,1022,l),
(1171,1346,l),
(1151,1271,o),
(1132,1199,o),
(1112,1123,cs),
(1091,1046,o),
(1069,966,o),
(1044,871,cs),
(936,462,ls),
(911,366,o),
(890,287,o),
(871,214,cs),
(851,141,o),
(833,73,o),
(813,0,c),
(1308,0,l),
(1328,75,o),
(1346,142,o),
(1366,215,cs),
(1385,287,o),
(1405,366,o),
(1430,459,cs),
(1560,948,ls),
(1585,1043,o),
(1606,1122,o),
(1627,1198,cs),
(1647,1274,o),
(1667,1346,o),
(1688,1426,c),
(538,1426,l),
(491,1259,o),
(441,1077,o),
(394,914,cs),
(343,734,o),
(296,604,o),
(246,520,cs),
(196,435,o),
(143,394,o),
(82,394,cs),
(63,394,o),
(32,396,o),
(12,400,c),
(-107,8,l),
(-70,-1,o),
(-26,-10,o),
(19,-17,cs),
(64,-24,o),
(114,-28,o),
(166,-28,cs)
);
}
);
width = 1530;
},
{
anchors = (
{
name = "#exit";
position = "{1233, 0}";
}
);
layerId = "2619DEE8-C08B-47F7-A010-C7FC63110412";
shapes = (
{
closed = 1;
nodes = (
(129,-20,o),
(175,-14,o),
(215,-1,cs),
(294,24,o),
(356,77,o),
(408,158,cs),
(433,198,o),
(458,245,o),
(482,300,cs),
(529,409,o),
(575,548,o),
(631,717,cs),
(706,948,o),
(775,1160,o),
(844,1373,c),
(658,1207,l),
(1404,1207,l),
(1325,1386,l),
(1305,1309,o),
(1285,1234,o),
(1265,1158,cs),
(1245,1081,o),
(1224,1001,o),
(1200,912,cs),
(1083,471,ls),
(1059,380,o),
(1038,301,o),
(1018,225,cs),
(998,149,o),
(978,77,o),
(958,0,c),
(1219,0,l),
(1240,79,o),
(1259,150,o),
(1279,225,cs),
(1299,300,o),
(1320,378,o),
(1344,469,cs),
(1471,945,ls),
(1495,1037,o),
(1516,1119,o),
(1537,1196,cs),
(1557,1273,o),
(1577,1347,o),
(1598,1426,c),
(608,1426,l),
(548,1234,o),
(489,1039,o),
(430,852,cs),
(361,628,o),
(304,467,o),
(244,363,cs),
(184,258,o),
(121,208,o),
(40,208,cs),
(19,208,o),
(-12,211,o),
(-35,216,c),
(-102,3,l),
(-79,-4,o),
(-50,-10,o),
(-19,-14,cs),
(12,-18,o),
(46,-20,o),
(78,-20,cs)
);
}
);
width = 1510;
},
{
anchors = (
{
name = "#exit";
position = "{1182, 0}";
}
);
layerId = "E9B47305-927A-4F8D-A320-B0B953B21E21";
shapes = (
{
closed = 1;
nodes = (
(92,-17,o),
(135,-11,o),
(171,3,c),
(245,29,o),
(304,83,o),
(354,167,cs),
(379,208,o),
(403,256,o),
(427,313,cs),
(475,425,o),
(521,567,o),
(579,741,c),
(653,969,o),
(722,1179,o),
(790,1391,c),
(663,1278,l),
(1440,1278,l),
(1384,1401,l),
(1364,1323,o),
(1344,1247,o),
(1324,1171,cs),
(1303,1094,o),
(1283,1015,o),
(1259,928,cs),
(1139,475,ls),
(1115,385,o),
(1094,306,o),
(1074,229,cs),
(1054,153,o),
(1034,78,o),
(1013,0,c),
(1186,0,l),
(1207,79,o),
(1227,153,o),
(1247,229,cs),
(1267,305,o),
(1288,383,o),
(1311,473,cs),
(1437,944,ls),
(1461,1036,o),
(1482,1117,o),
(1503,1196,cs),
(1523,1273,o),
(1543,1348,o),
(1564,1426,c),
(635,1426,l),
(570,1225,o),
(507,1025,o),
(444,828,cs),
(368,588,o),
(308,415,o),
(244,303,cs),
(180,191,o),
(113,137,o),
(24,137,cs),
(2,137,o),
(-29,140,o),
(-53,146,c),
(-100,1,l),
(-84,-5,o),
(-59,-10,o),
(-34,-13,cs),
(-8,-16,o),
(20,-17,o),
(45,-17,cs)
);
}
);
width = 1502;
},
{
anchors = (
{
name = "#exit";
position = "{1142, 0}";
}
);
layerId = "F0D7A2F7-B8FF-408B-8955-93892ED6432C";
shapes = (
{
closed = 1;
nodes = (
(47,-14,o),
(85,-7,o),
(118,7,cs),
(185,34,o),
(240,91,o),
(288,177,cs),
(312,220,o),
(336,270,o),
(360,328,cs),
(408,444,o),
(456,591,o),
(516,771,cs),
(589,995,o),
(657,1203,o),
(725,1412,c),
(668,1364,l),
(1483,1364,l),
(1456,1420,l),
(1435,1340,o),
(1415,1263,o),
(1395,1187,cs),
(1374,1110,o),
(1354,1031,o),
(1331,947,cs),
(1207,479,ls),
(1184,391,o),
(1163,311,o),
(1143,234,cs),
(1123,157,o),
(1102,80,o),
(1081,0,c),
(1145,0,l),
(1166,80,o),
(1187,156,o),
(1207,233,cs),
(1227,310,o),
(1248,389,o),
(1271,477,cs),
(1395,943,ls),
(1419,1034,o),
(1441,1115,o),
(1462,1195,cs),
(1482,1274,o),
(1502,1349,o),
(1523,1426,c),
(667,1426,l),
(596,1213,o),
(529,1008,o),
(461,799,cs),
(376,539,o),
(312,352,o),
(244,230,cs),
(176,108,o),
(104,50,o),
(5,50,cs),
(-18,50,o),
(-50,53,o),
(-74,60,c),
(-98,-2,l),
(-89,-6,o),
(-71,-10,o),
(-52,-12,cs),
(-32,-14,o),
(-12,-14,o),
(4,-14,cs)
);
}
);
width = 1493;
}
);
leftKerningGroup = uni0409_2;
rightKerningGroup = uni0406;
unicode = 1051;
},
{
glyphname = Elcyr.loclBGR;
layers = (
{
layerId = "B73C764B-EEC1-4CAF-B436-916766E5142A";
shapes = (
{
closed = 1;
nodes = (
(-109,0,l),
(-66,77,o),
(-23,159,o),
(24,244,cs),
(71,329,o),
(113,409,o),
(156,485,cs),
(423,975,ls),
(471,1063,o),
(515,1141,o),
(554,1213,cs),
(593,1285,o),
(631,1354,o),
(670,1426,c),
(1324,1426,l),
(1325,1354,o),
(1327,1285,o),
(1328,1213,cs),
(1329,1141,o),
(1330,1062,o),
(1331,973,cs),
(1337,484,ls),
(1340,323,o),
(1344,149,o),
(1345,0,c),
(826,0,l),
(841,165,o),
(858,334,o),
(871,491,cs),
(912,932,l),
(880,932,l),
(677,490,ls),
(642,413,o),
(605,334,o),
(565,246,cs),
(525,158,o),
(487,77,o),
(452,0,c)
);
}
);
width = 1502;
},
{
layerId = "2619DEE8-C08B-47F7-A010-C7FC63110412";
shapes = (
{
closed = 1;
nodes = (
(-82,0,l),
(-35,77,o),
(14,158,o),
(65,243,cs),
(116,328,o),
(164,408,o),
(211,484,cs),
(508,976,ls),
(561,1064,o),
(609,1140,o),
(652,1212,cs),
(695,1284,o),
(738,1354,o),
(781,1426,c),
(1130,1426,l),
(1135,1354,o),
(1141,1284,o),
(1146,1212,cs),
(1151,1140,o),
(1155,1062,o),
(1162,974,cs),
(1195,482,ls),
(1207,321,o),
(1219,153,o),
(1230,0,c),
(957,0,l),
(949,204,o),
(942,414,o),
(933,611,cs),
(912,1161,l),
(891,1161,l),
(572,612,ls),
(516,516,o),
(459,415,o),
(395,307,cs),
(331,199,o),
(272,97,o),
(216,0,c)
);
}
);
width = 1412;
},
{
layerId = "E9B47305-927A-4F8D-A320-B0B953B21E21";
shapes = (
{
closed = 1;
nodes = (
(-72,0,l),
(-23,77,o),
(27,158,o),
(80,243,cs),
(134,328,o),
(183,408,o),
(232,484,c),
(540,976,ls),
(595,1064,o),
(644,1140,o),
(689,1212,cs),
(734,1284,o),
(778,1354,o),
(823,1426,c),
(1056,1426,l),
(1063,1354,o),
(1070,1284,o),
(1077,1212,cs),
(1083,1140,o),
(1089,1062,o),
(1098,974,c),
(1141,482,l),
(1157,322,o),
(1173,153,o),
(1186,0,c),
(1007,0,l),
(990,218,o),
(974,445,o),
(957,656,c),
(912,1248,l),
(895,1248,l),
(532,658,ls),
(468,555,o),
(403,447,o),
(330,330,cs),
(257,213,o),
(190,104,o),
(126,0,c)
);
}
);
width = 1378;
},
{
layerId = "F0D7A2F7-B8FF-408B-8955-93892ED6432C";
shapes = (
{
closed = 1;
nodes = (
(-59,0,l),
(-8,77,o),
(43,158,o),
(99,243,cs),
(155,327,o),
(207,407,o),
(258,484,cs),
(579,976,ls),
(636,1064,o),
(687,1139,o),
(734,1211,cs),
(781,1283,o),
(827,1353,o),
(874,1426,c),
(966,1426,l),
(975,1353,o),
(983,1284,o),
(992,1212,cs),
(1000,1140,o),
(1008,1062,o),
(1019,974,cs),
(1076,481,ls),
(1095,324,o),
(1116,153,o),
(1133,0,c),
(1068,0,l),
(1041,236,o),
(1013,483,o),
(986,712,cs),
(912,1354,l),
(900,1354,l),
(483,715,ls),
(410,602,o),
(335,486,o),
(251,358,cs),
(167,230,o),
(90,113,o),
(17,0,c)
);
}
);
width = 1336;
}
);
leftKerningGroup = uni0410_2;
rightKerningGroup = uni0410;
},
{
glyphname = Eltailcyr;
layers = (
{
anchors = (
{
name = _bottomright;
position = "{1304, 0}";
}
);
layerId = "B73C764B-EEC1-4CAF-B436-916766E5142A";
shapes = (
{
closed = 1;
nodes = (
(231,-28,o),
(285,-22,o),
(332,-11,c),
(425,13,o),
(496,61,o),
(551,135,cs),
(578,172,o),
(604,215,o),
(628,266,cs),
(675,366,o),
(718,496,o),
(770,653,cs),
(846,892,o),
(916,1106,o),
(987,1327,c),
(648,1022,l),
(1314,1022,l),
(1173,1346,l),
(1153,1271,o),
(1134,1199,o),
(1114,1123,cs),
(1093,1046,o),
(1071,966,o),
(1046,871,cs),
(938,462,ls),
(913,366,o),
(892,287,o),
(873,214,cs),
(853,141,o),
(835,73,o),
(815,0,c),
(1310,0,l),
(1330,75,o),
(1348,142,o),
(1368,215,cs),
(1387,287,o),
(1407,366,o),
(1432,459,cs),
(1562,948,ls),
(1587,1043,o),
(1608,1122,o),
(1629,1198,cs),
(1649,1274,o),
(1669,1346,o),
(1690,1426,c),
(540,1426,l),
(493,1259,o),
(443,1077,o),
(396,914,cs),
(345,734,o),
(298,604,o),
(248,520,cs),
(198,435,o),
(145,394,o),
(84,394,cs),
(65,394,o),
(34,396,o),
(14,400,c),
(-105,8,l),
(-68,-1,o),
(-24,-10,o),
(21,-17,cs),
(66,-24,o),
(116,-28,o),
(168,-28,cs)
);
},
{
closed = 1;
nodes = (
(1411,-300,l),
(1442,-185,o),
(1471,-69,o),
(1502,44,cs),
(1533,164,o),
(1566,285,o),
(1597,404,c),
(1063,404,l),
(955,0,l),
(1130,0,l),
(1075,76,l),
(1002,-300,l)
);
}
);
width = 1643;
},
{
anchors = (
{
name = _bottomright;
position = "{1233, 0}";
}
);
layerId = "2619DEE8-C08B-47F7-A010-C7FC63110412";
shapes = (
{
closed = 1;
nodes = (
(131,-20,o),
(177,-14,o),
(217,-1,cs),
(296,24,o),
(358,77,o),
(410,158,cs),
(435,198,o),
(460,245,o),
(484,300,cs),
(531,409,o),
(577,548,o),
(633,717,cs),
(708,948,o),
(777,1160,o),
(846,1373,c),
(660,1207,l),
(1406,1207,l),
(1327,1386,l),
(1307,1309,o),
(1287,1234,o),
(1267,1158,cs),
(1247,1081,o),
(1226,1001,o),
(1202,912,cs),
(1085,471,ls),
(1061,380,o),
(1040,301,o),
(1020,225,cs),
(1000,149,o),
(980,77,o),
(960,0,c),
(1221,0,l),
(1242,79,o),
(1261,150,o),
(1281,225,cs),
(1301,300,o),
(1322,378,o),
(1346,469,cs),
(1473,945,ls),
(1497,1037,o),
(1518,1119,o),
(1539,1196,cs),
(1559,1273,o),
(1579,1347,o),
(1600,1426,c),
(610,1426,l),
(550,1234,o),
(491,1039,o),
(432,852,cs),
(363,628,o),
(306,467,o),
(246,363,cs),
(186,258,o),
(123,208,o),
(42,208,cs),
(21,208,o),
(-10,211,o),
(-33,216,c),
(-100,3,l),
(-77,-4,o),
(-48,-10,o),
(-17,-14,cs),
(14,-18,o),
(48,-20,o),
(80,-20,cs)
);
},
{
closed = 1;
nodes = (
(1321,-305,l),
(1344,-220,o),
(1367,-133,o),
(1390,-48,cs),
(1413,40,o),
(1437,131,o),
(1460,219,c),
(1097,219,l),
(1039,0,l),
(1220,0,l),
(1179,41,l),
(1102,-305,l)
);
}
);
width = 1577;
},
{
anchors = (
{
name = _bottomright;
position = "{1182, 0}";
}
);
layerId = "E9B47305-927A-4F8D-A320-B0B953B21E21";
shapes = (
{
closed = 1;
nodes = (
(94,-17,o),
(137,-11,o),
(173,3,c),
(247,29,o),
(306,83,o),
(356,167,cs),
(381,208,o),
(405,256,o),
(429,313,cs),
(477,425,o),
(523,567,o),
(581,741,c),
(655,969,o),
(724,1179,o),
(792,1391,c),
(665,1278,l),
(1442,1278,l),
(1386,1401,l),
(1366,1323,o),
(1346,1247,o),
(1326,1171,cs),
(1305,1094,o),
(1285,1015,o),
(1261,928,cs),
(1141,475,ls),
(1117,385,o),
(1096,306,o),
(1076,229,cs),
(1056,153,o),
(1036,78,o),
(1015,0,c),
(1188,0,l),
(1209,79,o),
(1229,153,o),
(1249,229,cs),
(1269,305,o),
(1290,383,o),
(1313,473,cs),
(1439,944,ls),
(1463,1036,o),
(1484,1117,o),
(1505,1196,cs),
(1525,1273,o),
(1545,1348,o),
(1566,1426,c),
(637,1426,l),
(572,1225,o),
(509,1025,o),
(446,828,cs),
(370,588,o),
(310,415,o),
(246,303,cs),
(182,191,o),
(115,137,o),
(26,137,cs),
(4,137,o),
(-27,140,o),
(-51,146,c),
(-98,1,l),
(-82,-5,o),
(-57,-10,o),
(-32,-13,cs),
(-6,-16,o),
(22,-17,o),
(47,-17,cs)
);
},
{
closed = 1;
nodes = (
(1287,-307,l),
(1307,-233,o),
(1327,-158,o),
(1347,-83,cs),
(1367,-7,o),
(1388,73,o),
(1408,148,c),
(1109,148,l),
(1070,0,l),
(1253,0,l),
(1218,28,l),
(1139,-307,l)
);
}
);
width = 1552;
},
{
anchors = (
{
name = _bottomright;
position = "{1142, 0}";
}
);
layerId = "F0D7A2F7-B8FF-408B-8955-93892ED6432C";
shapes = (
{
closed = 1;
nodes = (
(49,-14,o),
(87,-7,o),
(120,7,cs),
(187,34,o),
(242,91,o),
(290,177,cs),
(314,220,o),
(338,270,o),
(362,328,cs),
(410,444,o),
(458,591,o),
(518,771,cs),
(591,995,o),
(659,1203,o),
(727,1412,c),
(670,1364,l),
(1485,1364,l),
(1458,1420,l),
(1437,1340,o),
(1417,1263,o),
(1397,1187,cs),
(1376,1110,o),
(1356,1031,o),
(1333,947,cs),
(1209,479,ls),
(1186,391,o),
(1165,311,o),
(1145,234,cs),
(1125,157,o),
(1104,80,o),
(1083,0,c),
(1147,0,l),
(1168,80,o),
(1189,156,o),
(1209,233,cs),
(1229,310,o),
(1250,389,o),
(1273,477,cs),
(1397,943,ls),
(1421,1034,o),
(1443,1115,o),
(1464,1195,cs),
(1484,1274,o),
(1504,1349,o),
(1525,1426,c),
(669,1426,l),
(598,1213,o),
(531,1008,o),
(463,799,cs),
(378,539,o),
(314,352,o),
(246,230,cs),
(178,108,o),
(106,50,o),
(7,50,cs),
(-16,50,o),
(-48,53,o),
(-72,60,c),
(-96,-2,l),
(-87,-6,o),
(-69,-10,o),
(-50,-12,cs),
(-30,-14,o),
(-10,-14,o),
(6,-14,cs)
);
},
{
closed = 1;
nodes = (
(1245,-310,l),
(1261,-249,o),
(1278,-189,o),
(1294,-126,cs),
(1310,-65,o),
(1328,1,o),
(1344,62,c),
(1124,62,l),
(1108,0,l),
(1294,0,l),
(1265,11,l),
(1185,-310,l)
);
}
);
width = 1522;
}
);
leftKerningGroup = uni0409_2;
rightKerningGroup = uni0414;
unicode = 1326;
},
{
glyphname = Elhookcyr;
layers = (
{
layerId = "B73C764B-EEC1-4CAF-B436-916766E5142A";
shapes = (
{
closed = 1;
nodes = (
(1052,-301,l),
(1117,-254,o),
(1176,-196,o),
(1227,-121,cs),
(1278,-45,o),
(1319,48,o),
(1350,161,cs),
(1399,341,o),
(1451,539,o),
(1504,736,cs),
(1560,948,ls),
(1585,1043,o),
(1606,1122,o),
(1627,1198,cs),
(1647,1274,o),
(1667,1346,o),
(1688,1426,c),
(538,1426,l),
(491,1259,o),
(441,1077,o),
(394,914,cs),
(343,734,o),
(296,604,o),
(246,520,cs),
(196,435,o),
(143,394,o),
(82,394,cs),
(63,394,o),
(32,396,o),
(12,400,c),
(-107,8,l),
(-70,-1,o),
(-26,-10,o),
(19,-17,cs),
(64,-24,o),
(114,-28,o),
(166,-28,cs),
(229,-28,o),
(283,-22,o),
(330,-11,c),
(423,13,o),
(494,61,o),
(549,135,cs),
(576,172,o),
(602,215,o),
(626,266,cs),
(673,366,o),
(716,496,o),
(768,653,cs),
(844,892,o),
(914,1106,o),
(985,1327,c),
(646,1022,l),
(1312,1022,l),
(1171,1346,l),
(1151,1271,o),
(1132,1199,o),
(1112,1123,cs),
(1091,1046,o),
(1069,966,o),
(1044,871,cs),
(1008,733,l),
(862,182,ls),
(839,99,o),
(806,16,o),
(762,-65,cs),
(718,-146,o),
(662,-226,o),
(595,-301,c)
);
}
);
width = 1530;
},
{
layerId = "2619DEE8-C08B-47F7-A010-C7FC63110412";
shapes = (
{
closed = 1;
nodes = (
(960,-306,l),
(1021,-261,o),
(1080,-205,o),
(1131,-133,cs),
(1182,-61,o),
(1226,27,o),
(1255,136,cs),
(1298,295,o),
(1341,460,o),
(1388,637,cs),
(1470,945,ls),
(1494,1037,o),
(1516,1119,o),
(1537,1196,cs),
(1557,1273,o),
(1577,1347,o),
(1598,1426,c),
(607,1426,l),
(548,1234,o),
(489,1039,o),
(430,852,cs),
(361,628,o),
(304,467,o),
(244,363,cs),
(184,258,o),
(121,208,o),
(40,208,cs),
(19,208,o),
(-12,211,o),
(-35,216,c),
(-102,3,l),
(-79,-4,o),
(-51,-10,o),
(-20,-14,cs),
(12,-18,o),
(46,-20,o),
(78,-20,cs),
(129,-20,o),
(175,-14,o),
(215,-1,cs),
(294,24,o),
(356,77,o),
(408,158,cs),
(433,198,o),
(458,245,o),
(482,300,cs),
(529,409,o),
(575,548,o),
(631,717,cs),
(706,948,o),
(775,1158,o),
(844,1373,c),
(658,1207,l),
(1404,1207,l),
(1325,1386,l),
(1305,1309,o),
(1285,1234,o),
(1265,1157,cs),
(1244,1080,o),
(1223,1000,o),
(1199,912,cs),
(1126,633,l),
(999,153,ls),
(974,61,o),
(935,-19,o),
(884,-95,cs),
(833,-170,o),
(771,-238,o),
(698,-306,c)
);
}
);
width = 1510;
},
{
layerId = "E9B47305-927A-4F8D-A320-B0B953B21E21";
shapes = (
{
closed = 1;
nodes = (
(925,-308,l),
(985,-263,o),
(1044,-208,o),
(1095,-138,cs),
(1146,-68,o),
(1190,19,o),
(1219,126,cs),
(1260,278,o),
(1300,430,o),
(1344,600,c),
(1436,944,ls),
(1460,1036,o),
(1482,1117,o),
(1503,1196,cs),
(1523,1273,o),
(1543,1348,o),
(1564,1426,c),
(634,1426,l),
(570,1225,o),
(507,1025,o),
(444,828,cs),
(368,588,o),
(308,415,o),
(244,303,cs),
(180,191,o),
(113,137,o),
(24,137,cs),
(2,137,o),
(-29,140,o),
(-53,146,c),
(-100,1,l),
(-84,-5,o),
(-60,-10,o),
(-34,-13,cs),
(-8,-16,o),
(20,-17,o),
(45,-17,cs),
(92,-17,o),
(135,-11,o),
(171,3,c),
(245,29,o),
(304,83,o),
(354,167,cs),
(379,208,o),
(403,256,o),
(427,313,cs),
(475,425,o),
(521,567,o),
(579,741,c),
(653,969,o),
(722,1178,o),
(790,1391,c),
(663,1278,l),
(1440,1278,l),
(1384,1401,l),
(1364,1323,o),
(1343,1247,o),
(1323,1171,cs),
(1303,1094,o),
(1282,1014,o),
(1258,928,c),
(1171,595,l),
(1051,142,l),
(1025,46,o),
(984,-33,o),
(931,-106,cs),
(878,-179,o),
(813,-243,o),
(737,-308,c)
);
}
);
width = 1502;
},
{
layerId = "F0D7A2F7-B8FF-408B-8955-93892ED6432C";
shapes = (
{
closed = 1;
nodes = (
(883,-310,l),
(940,-265,o),
(999,-212,o),
(1051,-144,cs),
(1103,-76,o),
(1147,9,o),
(1175,114,cs),
(1214,257,o),
(1250,393,o),
(1291,554,cs),
(1395,943,ls),
(1419,1034,o),
(1440,1115,o),
(1461,1195,cs),
(1481,1274,o),
(1502,1349,o),
(1522,1426,c),
(667,1426,l),
(596,1213,o),
(529,1008,o),
(461,799,cs),
(376,539,o),
(312,352,o),
(244,230,cs),
(176,108,o),
(104,50,o),
(5,50,cs),
(-18,50,o),
(-50,53,o),
(-74,60,c),
(-98,-2,l),
(-89,-6,o),
(-71,-10,o),
(-52,-12,cs),
(-32,-14,o),
(-12,-14,o),
(4,-14,cs),
(47,-14,o),
(85,-7,o),
(118,7,cs),
(185,34,o),
(240,91,o),
(288,177,cs),
(312,220,o),
(336,270,o),
(360,328,cs),
(408,444,o),
(456,591,o),
(516,771,cs),
(589,995,o),
(657,1203,o),
(725,1412,c),
(668,1364,l),
(1483,1364,l),
(1456,1420,l),
(1435,1340,o),
(1414,1263,o),
(1394,1187,cs),
(1374,1110,o),
(1354,1031,o),
(1331,947,cs),
(1226,548,l),
(1115,128,ls),
(1087,28,o),
(1044,-51,o),
(988,-120,cs),
(932,-189,o),
(864,-249,o),
(785,-310,c)
);
}
);
width = 1493;
}
);
leftKerningGroup = uni0409_2;
rightKerningGroup = uni0406;
unicode = 1298;
},
{
glyphname = Elsharptailcyr;
layers = (
{
layerId = "B73C764B-EEC1-4CAF-B436-916766E5142A";
shapes = (
{
closed = 1;
nodes = (
(231,-28,o),
(285,-22,o),
(332,-11,c),
(425,13,o),
(496,61,o),
(551,135,cs),
(578,172,o),
(604,215,o),
(628,266,cs),
(675,366,o),
(718,496,o),
(770,653,cs),
(846,892,o),
(916,1106,o),
(987,1327,c),
(648,1022,l),
(1314,1022,l),
(1173,1346,l),
(1153,1271,o),
(1134,1199,o),
(1114,1123,cs),
(1093,1046,o),
(1071,966,o),
(1046,871,cs),
(938,462,ls),
(913,366,o),
(892,287,o),
(873,214,cs),
(853,141,o),
(835,73,o),
(815,0,c),
(1310,0,l),
(1330,75,o),
(1348,142,o),
(1368,215,cs),
(1387,287,o),
(1407,366,o),
(1432,459,cs),
(1562,948,ls),
(1587,1043,o),
(1608,1122,o),
(1629,1198,cs),
(1649,1274,o),
(1669,1346,o),
(1690,1426,c),
(540,1426,l),
(493,1259,o),
(443,1077,o),
(396,914,cs),
(345,734,o),
(298,604,o),
(248,520,cs),
(198,435,o),
(145,394,o),
(84,394,cs),
(65,394,o),
(34,396,o),
(14,400,c),
(-105,8,l),
(-68,-1,o),
(-24,-10,o),
(21,-17,cs),
(66,-24,o),
(116,-28,o),
(168,-28,cs)
);
},
{
closed = 1;
nodes = (
(1299,-300,l),
(1350,-188,o),
(1407,-66,o),
(1459,46,cs),
(1512,161,o),
(1569,285,o),
(1625,404,c),
(1036,404,l),
(928,0,l),
(1143,0,l),
(1037,49,l),
(895,-300,l)
);
}
);
width = 1639;
},
{
layerId = "2619DEE8-C08B-47F7-A010-C7FC63110412";
shapes = (
{
closed = 1;
nodes = (
(131,-20,o),
(177,-14,o),
(217,-1,cs),
(296,24,o),
(358,77,o),
(410,158,cs),
(435,198,o),
(460,245,o),
(484,300,cs),
(531,409,o),
(577,548,o),
(633,717,cs),
(708,948,o),
(777,1160,o),
(846,1373,c),
(660,1207,l),
(1406,1207,l),
(1327,1386,l),
(1307,1309,o),
(1287,1234,o),
(1267,1158,cs),
(1247,1081,o),
(1226,1001,o),
(1202,912,cs),
(1085,471,ls),
(1061,380,o),
(1040,301,o),
(1020,225,cs),
(1000,149,o),
(980,77,o),
(960,0,c),
(1221,0,l),
(1242,79,o),
(1261,150,o),
(1281,225,cs),
(1301,300,o),
(1322,378,o),
(1346,469,cs),
(1473,945,ls),
(1497,1037,o),
(1518,1119,o),
(1539,1196,cs),
(1559,1273,o),
(1579,1347,o),
(1600,1426,c),
(610,1426,l),
(550,1234,o),
(491,1039,o),
(432,852,cs),
(363,628,o),
(306,467,o),
(246,363,cs),
(186,258,o),
(123,208,o),
(42,208,cs),
(21,208,o),
(-10,211,o),
(-33,216,c),
(-100,3,l),
(-77,-4,o),
(-48,-10,o),
(-17,-14,cs),
(14,-18,o),
(48,-20,o),
(80,-20,cs)
);
},
{
closed = 1;
nodes = (
(1211,-305,l),
(1254,-220,o),
(1297,-132,o),
(1340,-48,cs),
(1383,37,o),
(1428,130,o),
(1473,219,c),
(1076,219,l),
(1018,0,l),
(1209,0,l),
(1148,29,l),
(990,-305,l)
);
}
);
width = 1576;
},
{
layerId = "E9B47305-927A-4F8D-A320-B0B953B21E21";
shapes = (
{
closed = 1;
nodes = (
(94,-17,o),
(137,-11,o),
(173,3,c),
(247,29,o),
(306,83,o),
(356,167,cs),
(381,208,o),
(405,256,o),
(429,313,cs),
(477,425,o),
(523,567,o),
(581,741,c),
(655,969,o),
(724,1179,o),
(792,1391,c),
(665,1278,l),
(1442,1278,l),
(1386,1401,l),
(1366,1323,o),
(1346,1247,o),
(1326,1171,cs),
(1305,1094,o),
(1285,1015,o),
(1261,928,cs),
(1141,475,ls),
(1117,385,o),
(1096,306,o),
(1076,229,cs),
(1056,153,o),
(1036,78,o),
(1015,0,c),
(1188,0,l),
(1209,79,o),
(1229,153,o),
(1249,229,cs),
(1269,305,o),
(1290,383,o),
(1313,473,cs),
(1439,944,ls),
(1463,1036,o),
(1484,1117,o),
(1505,1196,cs),
(1525,1273,o),
(1545,1348,o),
(1566,1426,c),
(637,1426,l),
(572,1225,o),
(509,1025,o),
(446,828,cs),
(370,588,o),
(310,415,o),
(246,303,cs),
(182,191,o),
(115,137,o),
(26,137,cs),
(4,137,o),
(-27,140,o),
(-51,146,c),
(-98,1,l),
(-82,-5,o),
(-57,-10,o),
(-32,-13,cs),
(-6,-16,o),
(22,-17,o),
(47,-17,cs)
);
},
{
closed = 1;
nodes = (
(1178,-307,l),
(1218,-232,o),
(1256,-157,o),
(1295,-84,cs),
(1334,-9,o),
(1374,70,o),
(1415,148,c),
(1091,148,l),
(1052,0,l),
(1235,0,l),
(1191,21,l),
(1026,-307,l)
);
}
);
width = 1552;
},
{
layerId = "F0D7A2F7-B8FF-408B-8955-93892ED6432C";
shapes = (
{
closed = 1;
nodes = (
(49,-14,o),
(87,-7,o),
(120,7,cs),
(187,34,o),
(242,91,o),
(290,177,cs),
(314,220,o),
(338,270,o),
(362,328,cs),
(410,444,o),
(458,591,o),
(518,771,cs),
(591,995,o),
(659,1203,o),
(727,1412,c),
(670,1364,l),
(1485,1364,l),
(1458,1420,l),
(1437,1340,o),
(1417,1263,o),
(1397,1187,cs),
(1376,1110,o),
(1356,1031,o),
(1333,947,cs),
(1209,479,ls),
(1186,391,o),
(1165,311,o),
(1145,234,cs),
(1125,157,o),
(1104,80,o),
(1083,0,c),
(1147,0,l),
(1168,80,o),
(1189,156,o),
(1209,233,cs),
(1229,310,o),
(1250,389,o),
(1273,477,cs),
(1397,943,ls),
(1421,1034,o),
(1443,1115,o),
(1464,1195,cs),
(1484,1274,o),
(1504,1349,o),
(1525,1426,c),
(669,1426,l),
(598,1213,o),
(531,1008,o),
(463,799,cs),
(378,539,o),
(314,352,o),
(246,230,cs),
(178,108,o),
(106,50,o),
(7,50,cs),
(-16,50,o),
(-48,53,o),
(-72,60,c),
(-96,-2,l),
(-87,-6,o),
(-69,-10,o),
(-50,-12,cs),
(-30,-14,o),
(-10,-14,o),
(6,-14,cs)
);
},
{
closed = 1;
nodes = (
(1137,-310,l),
(1173,-246,o),
(1205,-188,o),
(1240,-127,cs),
(1275,-66,o),
(1309,-3,o),
(1345,62,c),
(1110,62,l),
(1094,0,l),
(1266,0,l),
(1243,12,l),
(1071,-310,l)
);
}
);
width = 1522;
}
);
leftKerningGroup = uni0409_2;
rightKerningGroup = uni0414;
unicode = 1221;
},
{
glyphname = Emsharptailcyr;
layers = (
{
anchors = (
{
name = bottom;
position = "{838, 0}";
},
{
name = top;
position = "{1213, 1426}";
}
);
layerId = "B73C764B-EEC1-4CAF-B436-916766E5142A";
shapes = (
{
closed = 1;
nodes = (
(-66,0,l),
(-11,140,o),
(46,287,o),
(113,459,cs),
(299,943,ls),
(334,1031,o),
(364,1111,o),
(395,1191,cs),
(426,1271,o),
(455,1346,o),
(486,1426,c),
(971,1426,l),
(975,1294,o),
(977,1192,o),
(980,1081,cs),
(988,754,l),
(1018,754,l),
(1215,1080,ls),
(1250,1136,o),
(1282,1191,o),
(1315,1244,cs),
(1348,1297,o),
(1384,1358,o),
(1424,1426,c),
(1933,1426,l),
(1922,1349,o),
(1913,1273,o),
(1902,1193,cs),
(1891,1113,o),
(1881,1032,o),
(1869,944,cs),
(1807,458,ls),
(1796,370,o),
(1786,292,o),
(1775,219,cs),
(1764,146,o),
(1755,73,o),
(1746,0,c),
(1280,0,l),
(1307,145,o),
(1333,269,o),
(1354,382,cs),
(1401,624,l),
(1369,624,l),
(1225,367,ls),
(1189,302,o),
(1155,239,o),
(1120,178,cs),
(1085,117,o),
(1052,57,o),
(1020,0,c),
(698,0,l),
(697,39,o),
(697,78,o),
(696,119,cs),
(695,200,o),
(695,282,o),
(695,366,cs),
(693,624,l),
(661,624,l),
(554,381,ls),
(505,268,o),
(447,141,o),
(386,0,c)
);
},
{
closed = 1;
nodes = (
(1280,-300,l),
(1422,49,l),
(1528,0,l),
(1313,0,l),
(1421,404,l),
(2010,404,l),
(1954,285,o),
(1897,161,o),
(1844,46,cs),
(1792,-66,o),
(1735,-188,o),
(1684,-300,c)
);
}
);
width = 2024;
},
{
anchors = (
{
name = bottom;
position = "{831, 0}";
},
{
name = top;
position = "{1206, 1426}";
}
);
layerId = "2619DEE8-C08B-47F7-A010-C7FC63110412";
shapes = (
{
closed = 1;
nodes = (
(-14,0,l),
(45,151,o),
(101,298,o),
(168,470,cs),
(351,945,ls),
(386,1033,o),
(417,1112,o),
(446,1189,cs),
(475,1266,o),
(506,1345,o),
(537,1426,c),
(790,1426,l),
(811,1239,o),
(831,1073,o),
(851,904,cs),
(909,405,l),
(927,405,l),
(1257,905,ls),
(1313,990,o),
(1369,1074,o),
(1425,1158,cs),
(1481,1242,o),
(1538,1330,o),
(1602,1426,c),
(1872,1426,l),
(1861,1346,o),
(1851,1269,o),
(1840,1192,cs),
(1829,1115,o),
(1818,1033,o),
(1805,945,cs),
(1740,467,ls),
(1729,379,o),
(1718,301,o),
(1707,228,cs),
(1696,152,o),
(1686,80,o),
(1675,0,c),
(1429,0,l),
(1464,228,o),
(1495,429,o),
(1523,604,cs),
(1582,984,l),
(1564,984,l),
(1300,576,ls),
(1236,476,o),
(1172,379,o),
(1108,279,cs),
(1044,179,o),
(984,88,o),
(927,0,c),
(753,0,l),
(746,56,o),
(740,115,o),
(733,180,cs),
(717,309,o),
(701,444,o),
(688,573,cs),
(641,984,l),
(623,984,l),
(471,604,ls),
(399,425,o),
(319,228,o),
(230,0,c)
);
},
{
closed = 1;
nodes = (
(1419,-305,l),
(1577,29,l),
(1638,0,l),
(1447,0,l),
(1505,219,l),
(1902,219,l),
(1857,130,o),
(1812,37,o),
(1769,-48,cs),
(1726,-132,o),
(1683,-220,o),
(1640,-305,c)
);
}
);
width = 2004;
},
{
anchors = (
{
name = bottom;
position = "{826, 0}";
},
{
name = top;
position = "{1201, 1426}";
}
);
layerId = "E9B47305-927A-4F8D-A320-B0B953B21E21";
shapes = (
{
closed = 1;
nodes = (
(6,0,l),
(66,155,o),
(122,302,o),
(189,474,cs),
(371,946,ls),
(405,1033,o),
(436,1112,o),
(465,1189,cs),
(494,1265,o),
(525,1344,o),
(556,1426,c),
(721,1426,l),
(749,1218,o),
(775,1028,o),
(802,837,cs),
(879,272,l),
(892,272,l),
(1273,838,ls),
(1338,934,o),
(1402,1029,o),
(1467,1126,cs),
(1532,1222,o),
(1598,1321,o),
(1670,1426,c),
(1849,1426,l),
(1838,1344,o),
(1827,1268,o),
(1816,1192,cs),
(1805,1115,o),
(1794,1033,o),
(1781,945,c),
(1715,470,ls),
(1703,384,o),
(1692,306,o),
(1681,231,cs),
(1670,155,o),
(1659,80,o),
(1648,0,c),
(1485,0,l),
(1523,260,o),
(1557,490,o),
(1587,689,cs),
(1651,1121,l),
(1638,1121,l),
(1328,656,ls),
(1254,543,o),
(1179,432,o),
(1104,317,cs),
(1028,202,o),
(957,99,o),
(891,0,c),
(774,0,l),
(765,62,o),
(756,129,o),
(747,203,cs),
(726,351,o),
(704,506,o),
(685,652,c),
(621,1121,l),
(609,1121,l),
(440,689,ls),
(360,486,o),
(270,260,o),
(171,0,c)
);
},
{
closed = 1;
nodes = (
(1472,-307,l),
(1636,21,l),
(1680,0,l),
(1498,0,l),
(1537,148,l),
(1861,148,l),
(1820,70,o),
(1780,-9,o),
(1741,-84,cs),
(1701,-157,o),
(1663,-232,o),
(1623,-307,c)
);
}
);
width = 1997;
},
{
anchors = (
{
name = bottom;
position = "{822, 0}";
},
{
name = top;
position = "{1197, 1426}";
}
);
layerId = "F0D7A2F7-B8FF-408B-8955-93892ED6432C";
shapes = (
{
closed = 1;
nodes = (
(30,0,l),
(91,159,o),
(148,307,o),
(215,479,cs),
(395,947,ls),
(428,1032,o),
(460,1112,o),
(489,1188,cs),
(518,1264,o),
(548,1342,o),
(580,1426,c),
(637,1426,l),
(673,1193,o),
(707,974,o),
(742,755,cs),
(842,110,l),
(850,110,l),
(1293,757,ls),
(1369,866,o),
(1443,973,o),
(1519,1086,cs),
(1595,1198,o),
(1672,1309,o),
(1752,1426,c),
(1821,1426,l),
(1809,1342,o),
(1798,1267,o),
(1787,1191,cs),
(1776,1115,o),
(1764,1034,o),
(1751,945,cs),
(1684,474,ls),
(1672,389,o),
(1661,311,o),
(1650,235,cs),
(1639,159,o),
(1627,81,o),
(1616,0,c),
(1554,0,l),
(1595,299,o),
(1633,565,o),
(1665,792,cs),
(1735,1288,l),
(1729,1288,l),
(1363,753,ls),
(1275,624,o),
(1187,497,o),
(1098,364,cs),
(1009,231,o),
(925,113,o),
(848,0,c),
(800,0,l),
(789,69,o),
(776,146,o),
(763,231,cs),
(736,403,o),
(707,581,o),
(682,748,cs),
(597,1288,l),
(591,1288,l),
(401,792,ls),
(313,560,o),
(211,299,o),
(98,0,c)
);
},
{
closed = 1;
nodes = (
(1537,-310,l),
(1709,12,l),
(1732,0,l),
(1560,0,l),
(1576,62,l),
(1811,62,l),
(1775,-3,o),
(1741,-66,o),
(1706,-127,cs),
(1671,-188,o),
(1639,-246,o),
(1603,-310,c)
);
}
);
width = 1988;
}
);
leftKerningGroup = uni041C_2;
rightKerningGroup = uni041C;
unicode = 1229;
},
{
glyphname = Enhookleftcyr;
layers = (
{
layerId = "B73C764B-EEC1-4CAF-B436-916766E5142A";
shapes = (
{
closed = 1;
nodes = (
(198,-301,l),
(263,-254,o),
(322,-196,o),
(373,-121,cs),
(424,-45,o),
(465,48,o),
(496,161,cs),
(545,348,o),
(598,551,o),
(650,756,c),
(706,948,l),
(731,1043,o),
(753,1123,o),
(774,1200,cs),
(794,1276,o),
(814,1349,o),
(834,1426,c),
(339,1426,l),
(318,1346,o),
(299,1274,o),
(279,1198,cs),
(258,1122,o),
(237,1043,o),
(212,948,cs),
(155,736,l),
(8,182,ls),
(-15,99,o),
(-48,16,o),
(-92,-65,cs),
(-136,-146,o),
(-192,-226,o),
(-259,-301,c)
);
},
{
closed = 1;
nodes = (
(1049,512,l),
(1157,916,l),
(577,916,l),
(469,512,l)
);
},
{
closed = 1;
nodes = (
(1280,0,l),
(1300,75,o),
(1318,142,o),
(1338,215,cs),
(1357,287,o),
(1377,366,o),
(1402,459,cs),
(1532,948,ls),
(1557,1043,o),
(1578,1122,o),
(1599,1198,cs),
(1619,1274,o),
(1639,1346,o),
(1660,1426,c),
(1165,1426,l),
(1144,1346,o),
(1125,1274,o),
(1105,1198,cs),
(1084,1122,o),
(1063,1043,o),
(1038,948,cs),
(908,461,ls),
(883,366,o),
(862,287,o),
(843,214,cs),
(823,141,o),
(805,73,o),
(785,0,c)
);
}
);
width = 1502;
},
{
layerId = "2619DEE8-C08B-47F7-A010-C7FC63110412";
shapes = (
{
closed = 1;
nodes = (
(33,-306,l),
(94,-261,o),
(153,-205,o),
(205,-133,cs),
(256,-61,o),
(299,27,o),
(328,136,cs),
(371,299,o),
(415,466,o),
(462,647,cs),
(544,946,ls),
(568,1038,o),
(589,1119,o),
(610,1196,cs),
(630,1273,o),
(650,1348,o),
(671,1427,c),
(410,1427,l),
(389,1347,o),
(369,1272,o),
(349,1196,cs),
(328,1119,o),
(307,1038,o),
(283,946,cs),
(200,634,l),
(72,153,ls),
(47,61,o),
(9,-20,o),
(-43,-95,cs),
(-94,-170,o),
(-156,-238,o),
(-229,-306,c)
);
},
{
closed = 1;
nodes = (
(1194,611,l),
(1253,830,l),
(434,830,l),
(376,611,l)
);
},
{
closed = 1;
nodes = (
(1209,0,l),
(1230,79,o),
(1249,150,o),
(1269,225,cs),
(1289,300,o),
(1310,378,o),
(1334,469,cs),
(1461,946,ls),
(1485,1038,o),
(1506,1120,o),
(1527,1197,cs),
(1547,1274,o),
(1567,1348,o),
(1588,1427,c),
(1327,1427,l),
(1306,1348,o),
(1286,1275,o),
(1266,1197,cs),
(1245,1119,o),
(1223,1038,o),
(1199,946,cs),
(1073,470,ls),
(1049,379,o),
(1028,300,o),
(1008,225,cs),
(988,149,o),
(968,77,o),
(948,0,c)
);
}
);
width = 1500;
},
{
layerId = "E9B47305-927A-4F8D-A320-B0B953B21E21";
shapes = (
{
closed = 1;
nodes = (
(-30,-308,l),
(30,-263,o),
(89,-208,o),
(141,-138,cs),
(192,-68,o),
(236,19,o),
(265,126,cs),
(305,280,o),
(345,433,o),
(390,605,c),
(482,945,ls),
(506,1036,o),
(527,1117,o),
(548,1195,cs),
(568,1272,o),
(588,1347,o),
(609,1427,c),
(437,1427,l),
(416,1347,o),
(396,1272,o),
(376,1195,cs),
(355,1117,o),
(334,1037,o),
(310,945,cs),
(217,595,l),
(96,142,l),
(70,46,o),
(30,-34,o),
(-24,-106,cs),
(-77,-179,o),
(-143,-243,o),
(-218,-308,c)
);
},
{
closed = 1;
nodes = (
(1249,648,l),
(1290,797,l),
(380,797,l),
(340,648,l)
);
},
{
closed = 1;
nodes = (
(1183,0,l),
(1204,80,o),
(1223,153,o),
(1244,229,cs),
(1264,305,o),
(1285,383,o),
(1308,473,cs),
(1434,945,ls),
(1458,1036,o),
(1479,1118,o),
(1500,1196,cs),
(1520,1274,o),
(1540,1348,o),
(1561,1427,c),
(1389,1427,l),
(1368,1349,o),
(1348,1275,o),
(1328,1196,cs),
(1307,1118,o),
(1285,1037,o),
(1261,945,cs),
(1136,473,ls),
(1112,384,o),
(1091,305,o),
(1071,229,cs),
(1051,153,o),
(1031,79,o),
(1011,0,c)
);
}
);
width = 1499;
},
{
layerId = "F0D7A2F7-B8FF-408B-8955-93892ED6432C";
shapes = (
{
closed = 1;
nodes = (
(-106,-310,l),
(-49,-265,o),
(10,-212,o),
(62,-144,cs),
(114,-76,o),
(159,9,o),
(187,114,cs),
(224,257,o),
(260,393,o),
(303,554,cs),
(407,943,ls),
(431,1034,o),
(452,1115,o),
(473,1193,cs),
(493,1271,o),
(513,1346,o),
(534,1426,c),
(470,1426,l),
(449,1346,o),
(429,1271,o),
(409,1193,cs),
(388,1115,o),
(367,1035,o),
(343,944,cs),
(238,548,l),
(126,128,ls),
(98,28,o),
(55,-51,o),
(-1,-120,cs),
(-57,-189,o),
(-127,-249,o),
(-204,-310,c)
);
},
{
closed = 1;
nodes = (
(1317,694,l),
(1335,756,l),
(315,756,l),
(297,694,l)
);
},
{
closed = 1;
nodes = (
(1151,0,l),
(1172,81,o),
(1192,157,o),
(1213,234,cs),
(1233,310,o),
(1254,389,o),
(1277,477,cs),
(1401,943,ls),
(1425,1034,o),
(1446,1115,o),
(1467,1195,cs),
(1487,1274,o),
(1508,1349,o),
(1528,1426,c),
(1464,1426,l),
(1444,1350,o),
(1423,1274,o),
(1403,1195,cs),
(1382,1116,o),
(1361,1035,o),
(1337,944,cs),
(1213,477,ls),
(1190,389,o),
(1169,310,o),
(1149,234,cs),
(1128,157,o),
(1108,81,o),
(1087,0,c)
);
}
);
width = 1498;
}
);
rightKerningGroup = uni0406;
unicode = 1320;
},
{
glyphname = Entailcyr;
layers = (
{
anchors = (
{
name = _bottomright;
position = "{1276, 0}";
},
{
name = bottom;
position = "{620, 0}";
},
{
name = center;
position = "{807, 714}";
},
{
name = top;
position = "{995, 1426}";
},
{
name = topleft;
position = "{325, 1426}";
}
);
layerId = "B73C764B-EEC1-4CAF-B436-916766E5142A";
shapes = (
{
closed = 1;
nodes = (
(1280,0,l),
(1300,75,o),
(1318,142,o),
(1338,215,cs),
(1357,287,o),
(1377,366,o),
(1402,459,cs),
(1532,948,ls),
(1557,1043,o),
(1578,1122,o),
(1599,1198,cs),
(1619,1274,o),
(1639,1346,o),
(1660,1426,c),
(1165,1426,l),
(1144,1346,o),
(1125,1274,o),
(1105,1198,cs),
(1084,1122,o),
(1063,1043,o),
(1038,948,cs),
(908,461,ls),
(883,366,o),
(862,287,o),
(843,214,cs),
(823,141,o),
(805,73,o),
(785,0,c)
);
},
{
closed = 1;
nodes = (
(454,0,l),
(474,75,o),
(492,142,o),
(512,215,cs),
(531,287,o),
(551,365,o),
(576,461,cs),
(706,948,ls),
(731,1043,o),
(753,1123,o),
(774,1200,cs),
(794,1276,o),
(814,1349,o),
(834,1426,c),
(339,1426,l),
(318,1346,o),
(299,1274,o),
(279,1198,cs),
(258,1122,o),
(237,1043,o),
(212,948,cs),
(82,461,ls),
(57,366,o),
(36,288,o),
(17,216,cs),
(-3,143,o),
(-21,76,o),
(-41,0,c)
);
},
{
closed = 1;
nodes = (
(1049,512,l),
(1156,916,l),
(576,916,l),
(469,512,l)
);
},
{
closed = 1;
nodes = (
(1383,-300,l),
(1414,-185,o),
(1443,-69,o),
(1474,44,cs),
(1505,164,o),
(1538,285,o),
(1569,404,c),
(1035,404,l),
(927,0,l),
(1102,0,l),
(1047,76,l),
(974,-300,l)
);
}
);
width = 1615;
},
{
anchors = (
{
name = _bottomright;
position = "{1220, 0}";
},
{
name = bottom;
position = "{620, 0}";
},
{
name = center;
position = "{807, 714}";
},
{
name = top;
position = "{995, 1426}";
},
{
name = topleft;
position = "{300, 1426}";
}
);
layerId = "2619DEE8-C08B-47F7-A010-C7FC63110412";
shapes = (
{
closed = 1;
nodes = (
(1209,0,l),
(1230,79,o),
(1249,150,o),
(1269,225,cs),
(1289,300,o),
(1310,378,o),
(1334,469,cs),
(1461,946,ls),
(1485,1038,o),
(1506,1120,o),
(1527,1197,cs),
(1547,1274,o),
(1567,1348,o),
(1588,1427,c),
(1327,1427,l),
(1306,1348,o),
(1286,1275,o),
(1266,1197,cs),
(1245,1119,o),
(1223,1038,o),
(1199,946,cs),
(1073,470,ls),
(1049,379,o),
(1028,300,o),
(1008,225,cs),
(988,149,o),
(968,77,o),
(948,0,c)
);
},
{
closed = 1;
nodes = (
(292,0,l),
(313,77,o),
(332,149,o),
(352,225,cs),
(372,300,o),
(393,378,o),
(417,469,cs),
(544,946,ls),
(568,1038,o),
(589,1119,o),
(610,1196,cs),
(630,1273,o),
(650,1348,o),
(671,1427,c),
(410,1427,l),
(389,1347,o),
(369,1272,o),
(349,1196,cs),
(328,1119,o),
(307,1038,o),
(283,946,cs),
(156,469,ls),
(132,378,o),
(111,300,o),
(91,225,cs),
(71,150,o),
(52,79,o),
(31,0,c)
);
},
{
closed = 1;
nodes = (
(1194,611,l),
(1253,830,l),
(434,830,l),
(376,611,l)
);
},
{
closed = 1;
nodes = (
(1311,-305,l),
(1334,-220,o),
(1357,-133,o),
(1380,-48,cs),
(1403,40,o),
(1427,131,o),
(1450,219,c),
(1087,219,l),
(1029,0,l),
(1210,0,l),
(1169,41,l),
(1092,-305,l)
);
}
);
width = 1567;
},
{
anchors = (
{
name = _bottomright;
position = "{1179, 0}";
},
{
name = bottom;
position = "{620, 0}";
},
{
name = center;
position = "{807, 714}";
},
{
name = top;
position = "{995, 1426}";
},
{
name = topleft;
position = "{282, 1426}";
}
);
layerId = "E9B47305-927A-4F8D-A320-B0B953B21E21";
shapes = (
{
closed = 1;
nodes = (
(1183,0,l),
(1204,80,o),
(1223,153,o),
(1244,229,cs),
(1264,305,o),
(1285,383,o),
(1308,473,cs),
(1434,945,ls),
(1458,1036,o),
(1479,1118,o),
(1500,1196,cs),
(1520,1274,o),
(1540,1348,o),
(1561,1427,c),
(1389,1427,l),
(1368,1349,o),
(1348,1275,o),
(1328,1196,cs),
(1307,1118,o),
(1285,1037,o),
(1261,945,cs),
(1136,473,ls),
(1112,384,o),
(1091,305,o),
(1071,229,cs),
(1051,153,o),
(1031,79,o),
(1011,0,c)
);
},
{
closed = 1;
nodes = (
(231,0,l),
(252,78,o),
(272,152,o),
(292,229,cs),
(312,305,o),
(333,383,o),
(357,472,cs),
(482,945,ls),
(506,1036,o),
(527,1117,o),
(548,1195,cs),
(568,1272,o),
(588,1347,o),
(609,1427,c),
(437,1427,l),
(416,1347,o),
(396,1272,o),
(376,1195,cs),
(355,1117,o),
(334,1037,o),
(310,945,cs),
(184,472,ls),
(161,383,o),
(140,305,o),
(120,229,cs),
(99,153,o),
(80,79,o),
(59,0,c)
);
},
{
closed = 1;
nodes = (
(1249,648,l),
(1290,797,l),
(380,797,l),
(340,648,l)
);
},
{
closed = 1;
nodes = (
(1284,-307,l),
(1303,-233,o),
(1324,-158,o),
(1344,-83,cs),
(1363,-7,o),
(1385,73,o),
(1405,148,c),
(1106,148,l),
(1067,0,l),
(1250,0,l),
(1214,28,l),
(1136,-307,l)
);
}
);
width = 1549;
},
{
anchors = (
{
name = _bottomright;
position = "{1147, 0}";
},
{
name = bottom;
position = "{620, 0}";
},
{
name = center;
position = "{808, 714}";
},
{
name = top;
position = "{995, 1426}";
},
{
name = topleft;
position = "{268, 1426}";
}
);
layerId = "F0D7A2F7-B8FF-408B-8955-93892ED6432C";
shapes = (
{
closed = 1;
nodes = (
(1151,0,l),
(1172,81,o),
(1192,157,o),
(1213,234,cs),
(1233,310,o),
(1254,389,o),
(1277,477,cs),
(1401,943,ls),
(1425,1034,o),
(1446,1115,o),
(1467,1195,cs),
(1487,1274,o),
(1508,1349,o),
(1528,1426,c),
(1464,1426,l),
(1444,1350,o),
(1423,1274,o),
(1403,1195,cs),
(1382,1116,o),
(1361,1035,o),
(1337,944,cs),
(1213,477,ls),
(1190,389,o),
(1169,310,o),
(1149,234,cs),
(1128,157,o),
(1108,81,o),
(1087,0,c)
);
},
{
closed = 1;
nodes = (
(157,0,l),
(178,80,o),
(198,156,o),
(219,233,cs),
(239,310,o),
(260,389,o),
(283,476,cs),
(407,943,ls),
(431,1034,o),
(452,1115,o),
(473,1193,cs),
(493,1271,o),
(513,1346,o),
(534,1426,c),
(470,1426,l),
(449,1346,o),
(429,1271,o),
(409,1193,cs),
(388,1115,o),
(367,1035,o),
(343,944,cs),
(219,476,ls),
(196,389,o),
(175,310,o),
(155,233,cs),
(134,156,o),
(114,80,o),
(93,0,c)
);
},
{
closed = 1;
nodes = (
(1317,694,l),
(1335,756,l),
(315,756,l),
(297,694,l)
);
},
{
closed = 1;
nodes = (
(1250,-310,l),
(1266,-249,o),
(1283,-189,o),
(1299,-126,cs),
(1315,-65,o),
(1333,1,o),
(1349,62,c),
(1129,62,l),
(1113,0,l),
(1299,0,l),
(1270,11,l),
(1190,-310,l)
);
}
);
width = 1527;
}
);
rightKerningGroup = uni0414;
unicode = 1186;
},
{
glyphname = Eng;
layers = (
{
layerId = "B73C764B-EEC1-4CAF-B436-916766E5142A";
shapes = (
{
closed = 1;
nodes = (
(534,-384,l),
(578,-333,o),
(616,-284,o),
(651,-228,cs),
(719,-120,o),
(767,-7,o),
(799,102,c),
(825,217,l),
(930,0,l),
(852,0,l),
(811,131,o),
(775,253,o),
(730,402,cs),
(643,691,l),
(611,691,l),
(539,458,l),
(514,365,o),
(494,284,o),
(475,215,cs),
(456,146,o),
(437,76,o),
(416,0,c),
(-42,0,l),
(-21,76,o),
(-2,147,o),
(17,216,cs),
(36,285,o),
(56,366,o),
(81,459,cs),
(210,947,ls),
(235,1043,o),
(257,1128,o),
(277,1201,cs),
(296,1274,o),
(317,1349,o),
(338,1426,c),
(764,1426,l),
(808,1277,o),
(837,1145,o),
(878,1022,cs),
(968,751,l),
(1002,751,l),
(1060,947,l),
(1085,1043,o),
(1107,1127,o),
(1127,1200,cs),
(1146,1273,o),
(1167,1346,o),
(1188,1426,c),
(1646,1426,l),
(1625,1349,o),
(1604,1274,o),
(1585,1201,cs),
(1566,1128,o),
(1543,1042,o),
(1518,945,c),
(1431,654,l),
(1406,553,o),
(1382,454,o),
(1358,358,cs),
(1333,262,o),
(1309,170,o),
(1286,78,cs),
(1257,-35,o),
(1216,-127,o),
(1165,-203,cs),
(1114,-279,o),
(1054,-337,o),
(990,-384,c)
);
}
);
width = 1492;
},
{
layerId = "2619DEE8-C08B-47F7-A010-C7FC63110412";
shapes = (
{
closed = 1;
nodes = (
(670,-384,l),
(718,-339,o),
(761,-293,o),
(800,-246,cs),
(877,-150,o),
(934,-49,o),
(969,76,c),
(982,137,l),
(1041,0,l),
(985,0,l),
(910,187,o),
(836,382,o),
(737,619,cs),
(563,1037,l),
(544,1037,l),
(398,468,ls),
(375,379,o),
(354,298,o),
(335,226,cs),
(316,153,o),
(295,80,o),
(274,0,c),
(30,0,l),
(51,80,o),
(71,153,o),
(90,225,cs),
(109,297,o),
(130,377,o),
(154,466,cs),
(281,945,ls),
(305,1038,o),
(327,1121,o),
(347,1197,cs),
(367,1273,o),
(388,1346,o),
(409,1426,c),
(640,1426,l),
(728,1205,o),
(813,1004,o),
(885,808,cs),
(1046,374,l),
(1066,374,l),
(1217,946,ls),
(1242,1039,o),
(1264,1121,o),
(1284,1197,cs),
(1303,1273,o),
(1324,1346,o),
(1345,1426,c),
(1590,1426,l),
(1569,1346,o),
(1548,1273,o),
(1528,1197,cs),
(1508,1121,o),
(1486,1038,o),
(1462,945,c),
(1354,557,l),
(1331,465,o),
(1310,381,o),
(1289,300,cs),
(1268,219,o),
(1246,138,o),
(1225,57,cs),
(1197,-51,o),
(1154,-139,o),
(1103,-211,cs),
(1051,-283,o),
(991,-339,o),
(931,-384,c)
);
}
);
width = 1504;
},
{
layerId = "E9B47305-927A-4F8D-A320-B0B953B21E21";
shapes = (
{
closed = 1;
nodes = (
(721,-384,l),
(771,-341,o),
(816,-298,o),
(857,-252,cs),
(937,-162,o),
(998,-63,o),
(1034,66,c),
(1042,106,l),
(1083,0,l),
(1036,0,l),
(948,208,o),
(857,429,o),
(739,701,cs),
(539,1167,l),
(525,1167,l),
(344,472,ls),
(321,383,o),
(300,303,o),
(281,230,cs),
(262,155,o),
(242,80,o),
(220,0,c),
(57,0,l),
(79,80,o),
(99,155,o),
(118,229,cs),
(137,302,o),
(158,382,o),
(181,469,cs),
(308,945,ls),
(332,1037,o),
(354,1119,o),
(374,1196,cs),
(394,1272,o),
(415,1346,o),
(436,1426,c),
(593,1426,l),
(698,1178,o),
(797,950,o),
(887,727,cs),
(1079,255,l),
(1094,255,l),
(1277,946,ls),
(1301,1038,o),
(1323,1120,o),
(1343,1196,cs),
(1363,1272,o),
(1384,1346,o),
(1405,1426,c),
(1568,1426,l),
(1547,1346,o),
(1526,1272,o),
(1506,1196,cs),
(1486,1120,o),
(1464,1038,o),
(1440,945,c),
(1325,520,l),
(1303,432,o),
(1283,353,o),
(1263,278,cs),
(1243,202,o),
(1222,126,o),
(1202,49,cs),
(1174,-57,o),
(1131,-144,o),
(1079,-214,cs),
(1027,-284,o),
(967,-339,o),
(909,-384,c)
);
}
);
width = 1509;
},
{
layerId = "F0D7A2F7-B8FF-408B-8955-93892ED6432C";
shapes = (
{
closed = 1;
nodes = (
(784,-384,l),
(836,-343,o),
(883,-303,o),
(926,-260,cs),
(1011,-176,o),
(1076,-79,o),
(1113,54,c),
(1115,69,l),
(1134,0,l),
(1098,0,l),
(994,233,o),
(882,487,o),
(742,802,cs),
(510,1325,l),
(502,1325,l),
(279,476,ls),
(256,388,o),
(235,310,o),
(216,234,cs),
(197,158,o),
(177,81,o),
(154,0,c),
(90,0,l),
(113,81,o),
(133,157,o),
(152,233,cs),
(171,309,o),
(192,387,o),
(215,472,cs),
(340,944,ls),
(364,1036,o),
(386,1117,o),
(406,1194,cs),
(426,1270,o),
(447,1346,o),
(468,1426,c),
(536,1426,l),
(661,1145,o),
(777,885,o),
(890,628,cs),
(1120,109,l),
(1128,109,l),
(1350,945,ls),
(1374,1037,o),
(1396,1118,o),
(1416,1194,cs),
(1436,1270,o),
(1457,1346,o),
(1478,1426,c),
(1542,1426,l),
(1521,1346,o),
(1500,1270,o),
(1480,1194,cs),
(1460,1118,o),
(1438,1037,o),
(1414,945,cs),
(1289,475,ls),
(1268,391,o),
(1250,318,o),
(1231,250,cs),
(1212,182,o),
(1193,112,o),
(1174,40,cs),
(1146,-65,o),
(1102,-150,o),
(1050,-218,cs),
(998,-286,o),
(938,-339,o),
(882,-384,c)
);
}
);
width = 1514;
}
);
leftKerningGroup = B;
rightKerningGroup = H;
unicode = 330;
},
{
glyphname = Engecyr;
layers = (
{
layerId = "B73C764B-EEC1-4CAF-B436-916766E5142A";
shapes = (
{
closed = 1;
nodes = (
(1270,0,l),
(1290,75,o),
(1308,142,o),
(1328,215,cs),
(1347,287,o),
(1368,365,o),
(1393,461,cs),
(1502,868,ls),
(1527,964,o),
(1549,1045,o),
(1569,1121,cs),
(1589,1197,o),
(1609,1269,o),
(1629,1346,c),
(1333,1002,l),
(1578,1002,l),
(2072,1002,l),
(2184,1426,l),
(1156,1426,l),
(1135,1346,o),
(1115,1274,o),
(1095,1198,cs),
(1074,1122,o),
(1053,1043,o),
(1028,948,cs),
(898,461,ls),
(873,366,o),
(852,288,o),
(833,216,cs),
(813,143,o),
(795,76,o),
(775,0,c)
);
},
{
closed = 1;
nodes = (
(454,0,l),
(474,75,o),
(492,142,o),
(512,215,cs),
(531,287,o),
(551,365,o),
(576,461,cs),
(706,948,ls),
(731,1043,o),
(753,1123,o),
(774,1200,cs),
(794,1276,o),
(814,1349,o),
(834,1426,c),
(339,1426,l),
(318,1346,o),
(299,1274,o),
(279,1198,cs),
(258,1122,o),
(237,1043,o),
(212,948,cs),
(82,461,ls),
(57,366,o),
(36,288,o),
(17,216,cs),
(-3,143,o),
(-21,76,o),
(-41,0,c)
);
},
{
closed = 1;
nodes = (
(1039,512,l),
(1147,916,l),
(576,916,l),
(469,512,l)
);
}
);
width = 1996;
},
{
layerId = "2619DEE8-C08B-47F7-A010-C7FC63110412";
shapes = (
{
closed = 1;
nodes = (
(1181,0,l),
(1201,77,o),
(1220,149,o),
(1240,225,cs),
(1260,300,o),
(1281,378,o),
(1305,469,cs),
(1422,910,ls),
(1446,1001,o),
(1467,1080,o),
(1488,1157,cs),
(1508,1234,o),
(1528,1307,o),
(1549,1386,c),
(1388,1198,l),
(1642,1198,l),
(2146,1198,l),
(2207,1426,l),
(1298,1426,l),
(1277,1346,o),
(1257,1271,o),
(1237,1195,cs),
(1216,1118,o),
(1195,1038,o),
(1171,946,cs),
(1044,469,ls),
(1020,378,o),
(999,300,o),
(979,225,cs),
(959,150,o),
(940,79,o),
(920,0,c)
);
},
{
closed = 1;
nodes = (
(292,0,l),
(313,77,o),
(332,149,o),
(352,225,cs),
(372,300,o),
(393,378,o),
(417,469,cs),
(544,945,ls),
(568,1037,o),
(589,1118,o),
(610,1195,cs),
(630,1272,o),
(650,1347,o),
(671,1426,c),
(410,1426,l),
(389,1346,o),
(369,1271,o),
(349,1195,cs),
(328,1118,o),
(307,1038,o),
(283,946,cs),
(156,469,ls),
(132,378,o),
(111,300,o),
(91,225,cs),
(71,150,o),
(52,79,o),
(31,0,c)
);
},
{
closed = 1;
nodes = (
(1165,611,l),
(1224,830,l),
(434,830,l),
(376,611,l)
);
}
);
width = 2032;
},
{
layerId = "E9B47305-927A-4F8D-A320-B0B953B21E21";
shapes = (
{
closed = 1;
nodes = (
(1147,0,l),
(1168,78,o),
(1187,152,o),
(1208,229,cs),
(1228,305,o),
(1249,383,o),
(1272,472,cs),
(1392,925,ls),
(1416,1015,o),
(1437,1094,o),
(1458,1171,cs),
(1478,1248,o),
(1498,1322,o),
(1519,1401,c),
(1409,1273,l),
(1667,1273,l),
(2175,1273,l),
(2216,1426,l),
(1352,1426,l),
(1331,1346,o),
(1311,1271,o),
(1291,1194,cs),
(1270,1117,o),
(1249,1037,o),
(1225,945,cs),
(1100,472,ls),
(1076,383,o),
(1055,305,o),
(1035,229,cs),
(1015,153,o),
(995,79,o),
(975,0,c)
);
},
{
closed = 1;
nodes = (
(231,0,l),
(252,78,o),
(272,152,o),
(292,229,cs),
(312,305,o),
(333,383,o),
(357,472,cs),
(482,944,ls),
(506,1036,o),
(527,1117,o),
(548,1194,cs),
(568,1272,o),
(588,1347,o),
(609,1426,c),
(437,1426,l),
(416,1346,o),
(396,1271,o),
(376,1194,cs),
(355,1117,o),
(334,1037,o),
(310,945,cs),
(184,472,ls),
(161,383,o),
(140,305,o),
(120,229,cs),
(99,153,o),
(80,79,o),
(59,0,c)
);
},
{
closed = 1;
nodes = (
(1213,648,l),
(1254,797,l),
(380,797,l),
(340,648,l)
);
}
);
width = 2046;
},
{
layerId = "F0D7A2F7-B8FF-408B-8955-93892ED6432C";
shapes = (
{
closed = 1;
nodes = (
(1106,0,l),
(1127,80,o),
(1147,156,o),
(1168,233,cs),
(1188,310,o),
(1209,389,o),
(1232,476,cs),
(1356,944,ls),
(1379,1031,o),
(1400,1111,o),
(1421,1188,cs),
(1441,1265,o),
(1461,1340,o),
(1482,1420,c),
(1435,1364,l),
(1697,1364,l),
(2211,1364,l),
(2227,1426,l),
(1419,1426,l),
(1398,1346,o),
(1378,1271,o),
(1358,1193,cs),
(1337,1115,o),
(1316,1035,o),
(1292,944,cs),
(1168,476,ls),
(1145,389,o),
(1124,310,o),
(1104,233,cs),
(1083,156,o),
(1063,80,o),
(1042,0,c)
);
},
{
closed = 1;
nodes = (
(157,0,l),
(178,80,o),
(198,156,o),
(219,233,cs),
(239,310,o),
(260,389,o),
(283,476,cs),
(407,943,ls),
(431,1034,o),
(452,1115,o),
(473,1193,cs),
(493,1271,o),
(513,1346,o),
(534,1426,c),
(470,1426,l),
(449,1346,o),
(429,1271,o),
(409,1193,cs),
(388,1115,o),
(367,1035,o),
(343,944,cs),
(219,476,ls),
(196,389,o),
(175,310,o),
(155,233,cs),
(134,156,o),
(114,80,o),
(93,0,c)
);
},
{
closed = 1;
nodes = (
(1272,694,l),
(1290,756,l),
(315,756,l),
(297,694,l)
);
}
);
width = 2062;
}
);
rightKerningGroup = uni0403;
unicode = 1188;
},
{
glyphname = Enhookcyr;
layers = (
{
layerId = "B73C764B-EEC1-4CAF-B436-916766E5142A";
shapes = (
{
closed = 1;
nodes = (
(1024,-301,l),
(1089,-254,o),
(1148,-196,o),
(1199,-121,cs),
(1250,-45,o),
(1291,48,o),
(1322,161,cs),
(1371,341,o),
(1424,539,o),
(1476,736,cs),
(1532,948,l),
(1559,1043,o),
(1579,1122,o),
(1599,1198,cs),
(1619,1274,o),
(1639,1346,o),
(1660,1426,c),
(1165,1426,l),
(1144,1346,o),
(1125,1274,o),
(1105,1198,cs),
(1084,1122,o),
(1063,1043,o),
(1038,948,cs),
(982,736,l),
(834,182,ls),
(811,99,o),
(778,16,o),
(734,-65,cs),
(690,-146,o),
(634,-226,o),
(567,-301,c)
);
},
{
closed = 1;
nodes = (
(454,0,l),
(474,75,o),
(492,142,o),
(512,215,cs),
(531,287,o),
(551,365,o),
(576,461,cs),
(706,948,ls),
(731,1043,o),
(753,1123,o),
(774,1200,cs),
(794,1276,o),
(814,1349,o),
(834,1426,c),
(339,1426,l),
(318,1346,o),
(299,1274,o),
(279,1198,cs),
(258,1122,o),
(237,1043,o),
(212,948,cs),
(82,461,ls),
(57,366,o),
(36,288,o),
(17,216,cs),
(-3,143,o),
(-21,76,o),
(-41,0,c)
);
},
{
closed = 1;
nodes = (
(1049,512,l),
(1156,916,l),
(576,916,l),
(469,512,l)
);
}
);
width = 1502;
},
{
layerId = "2619DEE8-C08B-47F7-A010-C7FC63110412";
shapes = (
{
closed = 1;
nodes = (
(950,-306,l),
(1011,-261,o),
(1070,-205,o),
(1122,-133,cs),
(1173,-61,o),
(1216,27,o),
(1245,136,cs),
(1288,295,o),
(1332,459,o),
(1379,638,cs),
(1461,946,ls),
(1485,1038,o),
(1507,1120,o),
(1527,1197,cs),
(1547,1274,o),
(1567,1348,o),
(1588,1427,c),
(1327,1427,l),
(1306,1348,o),
(1286,1275,o),
(1266,1197,cs),
(1245,1119,o),
(1223,1038,o),
(1199,946,cs),
(1117,634,l),
(989,153,ls),
(964,61,o),
(926,-20,o),
(875,-95,cs),
(823,-170,o),
(761,-238,o),
(688,-306,c)
);
},
{
closed = 1;
nodes = (
(292,0,l),
(313,77,o),
(332,149,o),
(352,225,cs),
(372,300,o),
(393,378,o),
(417,469,cs),
(544,946,ls),
(568,1038,o),
(589,1119,o),
(610,1196,cs),
(630,1273,o),
(650,1348,o),
(671,1427,c),
(410,1427,l),
(389,1347,o),
(369,1272,o),
(349,1196,cs),
(328,1119,o),
(307,1038,o),
(283,946,cs),
(156,469,ls),
(132,378,o),
(111,300,o),
(91,225,cs),
(71,150,o),
(52,79,o),
(31,0,c)
);
},
{
closed = 1;
nodes = (
(1194,611,l),
(1253,830,l),
(434,830,l),
(376,611,l)
);
}
);
width = 1500;
},
{
layerId = "E9B47305-927A-4F8D-A320-B0B953B21E21";
shapes = (
{
closed = 1;
nodes = (
(922,-308,l),
(981,-263,o),
(1040,-208,o),
(1092,-138,cs),
(1144,-68,o),
(1188,19,o),
(1216,126,cs),
(1257,278,o),
(1297,429,o),
(1342,600,cs),
(1434,945,ls),
(1458,1036,o),
(1480,1118,o),
(1500,1196,cs),
(1520,1274,o),
(1540,1348,o),
(1561,1427,c),
(1389,1427,l),
(1368,1349,o),
(1348,1275,o),
(1328,1196,cs),
(1307,1118,o),
(1285,1037,o),
(1261,945,cs),
(1169,595,l),
(1048,142,l),
(1022,46,o),
(981,-34,o),
(928,-106,cs),
(874,-179,o),
(810,-243,o),
(734,-308,c)
);
},
{
closed = 1;
nodes = (
(231,0,l),
(252,78,o),
(272,152,o),
(292,229,cs),
(312,305,o),
(333,383,o),
(357,472,cs),
(482,945,ls),
(506,1036,o),
(527,1117,o),
(548,1195,cs),
(568,1272,o),
(588,1347,o),
(609,1427,c),
(437,1427,l),
(416,1347,o),
(396,1272,o),
(376,1195,cs),
(355,1117,o),
(334,1037,o),
(310,945,cs),
(184,472,ls),
(161,383,o),
(140,305,o),
(120,229,cs),
(99,153,o),
(80,79,o),
(59,0,c)
);
},
{
closed = 1;
nodes = (
(1249,648,l),
(1290,797,l),
(380,797,l),
(340,648,l)
);
}
);
width = 1499;
},
{
layerId = "F0D7A2F7-B8FF-408B-8955-93892ED6432C";
shapes = (
{
closed = 1;
nodes = (
(888,-310,l),
(945,-265,o),
(1004,-212,o),
(1056,-144,cs),
(1108,-76,o),
(1153,9,o),
(1181,114,cs),
(1218,257,o),
(1254,393,o),
(1297,554,cs),
(1401,943,ls),
(1425,1034,o),
(1446,1115,o),
(1467,1195,cs),
(1487,1274,o),
(1508,1349,o),
(1528,1426,c),
(1464,1426,l),
(1444,1350,o),
(1423,1274,o),
(1403,1195,cs),
(1382,1116,o),
(1361,1035,o),
(1337,944,cs),
(1232,548,l),
(1120,128,ls),
(1092,28,o),
(1049,-51,o),
(993,-120,cs),
(937,-189,o),
(869,-249,o),
(790,-310,c)
);
},
{
closed = 1;
nodes = (
(157,0,l),
(178,80,o),
(198,156,o),
(219,233,cs),
(239,310,o),
(260,389,o),
(283,476,cs),
(407,943,ls),
(431,1034,o),
(452,1115,o),
(473,1193,cs),
(493,1271,o),
(513,1346,o),
(534,1426,c),
(470,1426,l),
(449,1346,o),
(429,1271,o),
(409,1193,cs),
(388,1115,o),
(367,1035,o),
(343,944,cs),
(219,476,ls),
(196,389,o),
(175,310,o),
(155,233,cs),
(134,156,o),
(114,80,o),
(93,0,c)
);
},
{
closed = 1;
nodes = (
(1317,694,l),
(1335,756,l),
(315,756,l),
(297,694,l)
);
}
);
width = 1498;
}
);
rightKerningGroup = uni0406;
unicode = 1223;
},
{
glyphname = Ensharptailcyr;
layers = (
{
anchors = (
{
name = bottom;
position = "{620, 0}";
},
{
name = center;
position = "{807, 714}";
},
{
name = top;
position = "{995, 1426}";
},
{
name = topleft;
position = "{325, 1426}";
}
);
layerId = "B73C764B-EEC1-4CAF-B436-916766E5142A";
shapes = (
{
closed = 1;
nodes = (
(1280,0,l),
(1300,75,o),
(1318,142,o),
(1338,215,cs),
(1357,287,o),
(1377,366,o),
(1402,459,cs),
(1532,948,ls),
(1557,1043,o),
(1578,1122,o),
(1599,1198,cs),
(1619,1274,o),
(1639,1346,o),
(1660,1426,c),
(1165,1426,l),
(1144,1346,o),
(1125,1274,o),
(1105,1198,cs),
(1084,1122,o),
(1063,1043,o),
(1038,948,cs),
(908,461,ls),
(883,366,o),
(862,287,o),
(843,214,cs),
(823,141,o),
(805,73,o),
(785,0,c)
);
},
{
closed = 1;
nodes = (
(454,0,l),
(474,75,o),
(492,142,o),
(512,215,cs),
(531,287,o),
(551,365,o),
(576,461,cs),
(706,948,ls),
(731,1043,o),
(753,1123,o),
(774,1200,cs),
(794,1276,o),
(814,1349,o),
(834,1426,c),
(339,1426,l),
(318,1346,o),
(299,1274,o),
(279,1198,cs),
(258,1122,o),
(237,1043,o),
(212,948,cs),
(82,461,ls),
(57,366,o),
(36,288,o),
(17,216,cs),
(-3,143,o),
(-21,76,o),
(-41,0,c)
);
},
{
closed = 1;
nodes = (
(1049,512,l),
(1156,916,l),
(576,916,l),
(469,512,l)
);
},
{
closed = 1;
nodes = (
(1271,-300,l),
(1322,-188,o),
(1379,-66,o),
(1431,46,cs),
(1484,161,o),
(1541,285,o),
(1597,404,c),
(1008,404,l),
(900,0,l),
(1115,0,l),
(1009,49,l),
(867,-300,l)
);
}
);
width = 1611;
},
{
anchors = (
{
name = bottom;
position = "{620, 0}";
},
{
name = center;
position = "{807, 714}";
},
{
name = top;
position = "{995, 1426}";
},
{
name = topleft;
position = "{300, 1426}";
}
);
layerId = "2619DEE8-C08B-47F7-A010-C7FC63110412";
shapes = (
{
closed = 1;
nodes = (
(1209,0,l),
(1230,79,o),
(1249,150,o),
(1269,225,cs),
(1289,300,o),
(1310,378,o),
(1334,469,cs),
(1461,946,ls),
(1485,1038,o),
(1506,1120,o),
(1527,1197,cs),
(1547,1274,o),
(1567,1348,o),
(1588,1427,c),
(1327,1427,l),
(1306,1348,o),
(1286,1275,o),
(1266,1197,cs),
(1245,1119,o),
(1223,1038,o),
(1199,946,cs),
(1073,470,ls),
(1049,379,o),
(1028,300,o),
(1008,225,cs),
(988,149,o),
(968,77,o),
(948,0,c)
);
},
{
closed = 1;
nodes = (
(292,0,l),
(313,77,o),
(332,149,o),
(352,225,cs),
(372,300,o),
(393,378,o),
(417,469,cs),
(544,946,ls),
(568,1038,o),
(589,1119,o),
(610,1196,cs),
(630,1273,o),
(650,1348,o),
(671,1427,c),
(410,1427,l),
(389,1347,o),
(369,1272,o),
(349,1196,cs),
(328,1119,o),
(307,1038,o),
(283,946,cs),
(156,469,ls),
(132,378,o),
(111,300,o),
(91,225,cs),
(71,150,o),
(52,79,o),
(31,0,c)
);
},
{
closed = 1;
nodes = (
(1194,611,l),
(1253,830,l),
(434,830,l),
(376,611,l)
);
},
{
closed = 1;
nodes = (
(1201,-305,l),
(1244,-220,o),
(1287,-132,o),
(1330,-48,cs),
(1373,37,o),
(1418,130,o),
(1463,219,c),
(1066,219,l),
(1008,0,l),
(1199,0,l),
(1138,29,l),
(980,-305,l)
);
}
);
width = 1565;
},
{
anchors = (
{
name = bottom;
position = "{620, 0}";
},
{
name = center;
position = "{807, 714}";
},
{
name = top;
position = "{995, 1426}";
},
{
name = topleft;
position = "{282, 1426}";
}
);
layerId = "E9B47305-927A-4F8D-A320-B0B953B21E21";
shapes = (
{
closed = 1;
nodes = (
(1183,0,l),
(1204,80,o),
(1223,153,o),
(1244,229,cs),
(1264,305,o),
(1285,383,o),
(1308,473,cs),
(1434,945,ls),
(1458,1036,o),
(1479,1118,o),
(1500,1196,cs),
(1520,1274,o),
(1540,1348,o),
(1561,1427,c),
(1389,1427,l),
(1368,1349,o),
(1348,1275,o),
(1328,1196,cs),
(1307,1118,o),
(1285,1037,o),
(1261,945,cs),
(1136,473,ls),
(1112,384,o),
(1091,305,o),
(1071,229,cs),
(1051,153,o),
(1031,79,o),
(1011,0,c)
);
},
{
closed = 1;
nodes = (
(231,0,l),
(252,78,o),
(272,152,o),
(292,229,cs),
(312,305,o),
(333,383,o),
(357,472,cs),
(482,945,ls),
(506,1036,o),
(527,1117,o),
(548,1195,cs),
(568,1272,o),
(588,1347,o),
(609,1427,c),
(437,1427,l),
(416,1347,o),
(396,1272,o),
(376,1195,cs),
(355,1117,o),
(334,1037,o),
(310,945,cs),
(184,472,ls),
(161,383,o),
(140,305,o),
(120,229,cs),
(99,153,o),
(80,79,o),
(59,0,c)
);
},
{
closed = 1;
nodes = (
(1249,648,l),
(1290,797,l),
(380,797,l),
(340,648,l)
);
},
{
closed = 1;
nodes = (
(1174,-307,l),
(1214,-232,o),
(1252,-157,o),
(1292,-84,cs),
(1331,-9,o),
(1371,70,o),
(1412,148,c),
(1088,148,l),
(1049,0,l),
(1231,0,l),
(1188,21,l),
(1023,-307,l)
);
}
);
width = 1548;
},
{
anchors = (
{
name = bottom;
position = "{620, 0}";
},
{
name = center;
position = "{808, 714}";
},
{
name = top;
position = "{995, 1426}";
},
{
name = topleft;
position = "{268, 1426}";
}
);
layerId = "F0D7A2F7-B8FF-408B-8955-93892ED6432C";
shapes = (
{
closed = 1;
nodes = (
(1151,0,l),
(1172,81,o),
(1192,157,o),
(1213,234,cs),
(1233,310,o),
(1254,389,o),
(1277,477,cs),
(1401,943,ls),
(1425,1034,o),
(1446,1115,o),
(1467,1195,cs),
(1487,1274,o),
(1508,1349,o),
(1528,1426,c),
(1464,1426,l),
(1444,1350,o),
(1423,1274,o),
(1403,1195,cs),
(1382,1116,o),
(1361,1035,o),
(1337,944,cs),
(1213,477,ls),
(1190,389,o),
(1169,310,o),
(1149,234,cs),
(1128,157,o),
(1108,81,o),
(1087,0,c)
);
},
{
closed = 1;
nodes = (
(157,0,l),
(178,80,o),
(198,156,o),
(219,233,cs),
(239,310,o),
(260,389,o),
(283,476,cs),
(407,943,ls),
(431,1034,o),
(452,1115,o),
(473,1193,cs),
(493,1271,o),
(513,1346,o),
(534,1426,c),
(470,1426,l),
(449,1346,o),
(429,1271,o),
(409,1193,cs),
(388,1115,o),
(367,1035,o),
(343,944,cs),
(219,476,ls),
(196,389,o),
(175,310,o),
(155,233,cs),
(134,156,o),
(114,80,o),
(93,0,c)
);
},
{
closed = 1;
nodes = (
(1317,694,l),
(1335,756,l),
(315,756,l),
(297,694,l)
);
},
{
closed = 1;
nodes = (
(1142,-310,l),
(1178,-246,o),
(1210,-188,o),
(1245,-127,cs),
(1280,-66,o),
(1314,-3,o),
(1350,62,c),
(1115,62,l),
(1099,0,l),
(1271,0,l),
(1248,12,l),
(1076,-310,l)
);
}
);
width = 1527;
}
);
rightKerningGroup = uni0414;
unicode = 1225;
},
{
glyphname = Ereversedcyr;
layers = (
{
anchors = (
{
name = top;
position = "{884, 1426}";
}
);
layerId = "B73C764B-EEC1-4CAF-B436-916766E5142A";
shapes = (
{
closed = 1;
nodes = (
(748,-32,o),
(938,21,o),
(1080,126,cs),
(1222,231,o),
(1315,389,o),
(1370,598,cs),
(1390,676,o),
(1400,751,o),
(1401,824,cs),
(1401,969,o),
(1364,1098,o),
(1290,1203,cs),
(1253,1256,o),
(1207,1301,o),
(1153,1339,cs),
(1045,1414,o),
(903,1458,o),
(730,1458,cs),
(653,1458,o),
(573,1448,o),
(500,1432,cs),
(427,1416,o),
(359,1393,o),
(304,1366,c),
(223,905,l),
(303,960,o),
(374,999,o),
(442,1024,cs),
(509,1048,o),
(572,1059,o),
(635,1059,cs),
(727,1059,o),
(806,1036,o),
(858,991,cs),
(910,946,o),
(937,879,o),
(925,791,c),
(878,621,l),
(850,497,o),
(799,430,o),
(740,395,cs),
(680,359,o),
(612,354,o),
(549,354,cs),
(474,354,o),
(394,364,o),
(318,386,cs),
(241,408,o),
(166,441,o),
(101,490,c),
(-31,83,l),
(34,48,o),
(118,19,o),
(210,-1,cs),
(302,-21,o),
(402,-32,o),
(501,-32,cs)
);
},
{
closed = 1;
nodes = (
(320,545,l),
(702,545,l),
(936,545,l),
(1022,871,l),
(788,871,l),
(406,871,l)
);
}
);
width = 1380;
},
{
anchors = (
{
name = top;
position = "{901, 1426}";
}
);
layerId = "2619DEE8-C08B-47F7-A010-C7FC63110412";
shapes = (
{
closed = 1;
nodes = (
(719,-24,o),
(902,28,o),
(1042,133,cs),
(1181,237,o),
(1277,395,o),
(1333,607,cs),
(1352,680,o),
(1363,751,o),
(1365,821,cs),
(1368,961,o),
(1336,1087,o),
(1270,1194,cs),
(1237,1247,o),
(1195,1293,o),
(1145,1332,cs),
(1045,1408,o),
(911,1454,o),
(743,1454,cs),
(666,1454,o),
(585,1442,o),
(511,1423,cs),
(437,1404,o),
(369,1378,o),
(321,1350,c),
(281,1091,l),
(357,1143,o),
(432,1178,o),
(503,1200,cs),
(574,1222,o),
(640,1230,o),
(701,1230,cs),
(856,1230,o),
(967,1175,o),
(1035,1087,cs),
(1102,999,o),
(1124,879,o),
(1103,750,c),
(1081,671,l),
(1049,502,o),
(979,382,o),
(883,305,cs),
(786,228,o),
(660,193,o),
(516,193,cs),
(437,193,o),
(357,202,o),
(281,222,cs),
(205,242,o),
(134,274,o),
(74,319,c),
(-3,95,l),
(57,58,o),
(134,28,o),
(219,8,cs),
(304,-13,o),
(398,-24,o),
(491,-24,cs)
);
},
{
closed = 1;
nodes = (
(390,613,l),
(810,613,l),
(1112,613,l),
(1168,823,l),
(865,823,l),
(446,823,l)
);
}
);
width = 1376;
},
{
anchors = (
{
name = top;
position = "{907, 1426}";
}
);
layerId = "E9B47305-927A-4F8D-A320-B0B953B21E21";
shapes = (
{
closed = 1;
nodes = (
(702,-21,o),
(882,30,o),
(1023,135,cs),
(1162,239,o),
(1262,396,o),
(1318,610,cs),
(1337,681,o),
(1348,751,o),
(1350,820,cs),
(1354,958,o),
(1324,1083,o),
(1261,1190,cs),
(1230,1243,o),
(1190,1290,o),
(1141,1329,cs),
(1044,1406,o),
(913,1452,o),
(747,1452,cs),
(670,1452,o),
(588,1439,o),
(513,1419,cs),
(439,1399,o),
(372,1372,o),
(326,1344,c),
(301,1166,l),
(376,1216,o),
(452,1249,o),
(524,1270,cs),
(596,1291,o),
(664,1299,o),
(724,1299,cs),
(903,1299,o),
(1027,1232,o),
(1100,1128,cs),
(1173,1023,o),
(1194,882,o),
(1170,735,c),
(1158,690,l),
(1123,502,o),
(1047,361,o),
(936,268,cs),
(824,174,o),
(678,128,o),
(502,128,cs),
(421,128,o),
(340,137,o),
(265,156,cs),
(190,176,o),
(121,207,o),
(62,251,c),
(6,100,l),
(64,62,o),
(139,31,o),
(221,11,cs),
(304,-10,o),
(395,-21,o),
(486,-21,cs)
);
},
{
closed = 1;
nodes = (
(419,649,l),
(854,649,l),
(1181,649,l),
(1219,793,l),
(891,793,l),
(458,793,l)
);
}
);
width = 1374;
},
{
anchors = (
{
name = top;
position = "{912, 1426}";
}
);
layerId = "F0D7A2F7-B8FF-408B-8955-93892ED6432C";
shapes = (
{
closed = 1;
nodes = (
(681,-18,o),
(858,33,o),
(999,137,cs),
(1139,241,o),
(1244,398,o),
(1300,613,cs),
(1319,682,o),
(1329,750,o),
(1332,818,cs),
(1337,954,o),
(1310,1079,o),
(1251,1186,cs),
(1221,1239,o),
(1183,1286,o),
(1136,1325,cs),
(1042,1403,o),
(915,1450,o),
(751,1450,cs),
(674,1450,o),
(591,1435,o),
(516,1414,cs),
(441,1393,o),
(376,1364,o),
(333,1336,c),
(325,1258,l),
(400,1305,o),
(477,1336,o),
(550,1356,cs),
(623,1376,o),
(693,1384,o),
(753,1384,cs),
(961,1384,o),
(1100,1301,o),
(1180,1177,cs),
(1260,1052,o),
(1280,885,o),
(1251,716,c),
(1251,714,l),
(1214,502,o),
(1129,335,o),
(1000,222,cs),
(871,109,o),
(699,48,o),
(484,48,cs),
(401,48,o),
(320,57,o),
(246,76,cs),
(172,95,o),
(104,126,o),
(48,167,c),
(18,107,l),
(73,66,o),
(144,35,o),
(224,14,cs),
(304,-7,o),
(392,-18,o),
(480,-18,cs)
);
},
{
closed = 1;
nodes = (
(455,694,l),
(907,694,l),
(1265,694,l),
(1282,756,l),
(922,756,l),
(472,756,l)
);
}
);
width = 1372;
}
);
leftKerningGroup = uni0417;
rightKerningGroup = uni041E;
unicode = 1069;
},
{
glyphname = Ertickcyr;
layers = (
{
layerId = "B73C764B-EEC1-4CAF-B436-916766E5142A";
shapes = (
{
closed = 1;
nodes = (
(442,0,l),
(462,76,o),
(480,144,o),
(499,216,cs),
(518,288,o),
(539,365,o),
(563,457,cs),
(671,866,ls),
(698,962,o),
(719,1043,o),
(739,1120,cs),
(759,1196,o),
(778,1269,o),
(799,1346,c),
(501,1076,l),
(851,1076,ls),
(864,1076,o),
(875,1074,o),
(886,1070,cs),
(906,1062,o),
(922,1047,o),
(933,1027,c),
(938,1016,o),
(942,1004,o),
(944,991,cs),
(948,964,o),
(945,934,o),
(936,898,cs),
(921,843,o),
(903,807,o),
(878,784,cs),
(853,760,o),
(819,750,o),
(774,750,cs),
(585,750,l),
(499,426,l),
(807,426,ls),
(979,426,o),
(1110,461,o),
(1208,534,cs),
(1306,607,o),
(1370,719,o),
(1410,872,cs),
(1462,1067,o),
(1443,1205,o),
(1367,1295,cs),
(1290,1385,o),
(1153,1426,o),
(968,1426,cs),
(340,1426,l),
(319,1349,o),
(300,1278,o),
(280,1202,cs),
(259,1126,o),
(237,1044,o),
(212,948,cs),
(82,459,ls),
(57,366,o),
(36,287,o),
(17,215,cs),
(-3,142,o),
(-21,75,o),
(-41,0,c)
);
},
{
closed = 1;
nodes = (
(1231,373,l),
(1182,454,o),
(1139,526,o),
(1100,589,c),
(973,731,l),
(932,799,o),
(892,866,o),
(841,949,c),
(719,860,l),
(770,776,o),
(811,708,o),
(851,641,c),
(908,459,l),
(945,396,o),
(990,322,o),
(1039,242,c)
);
}
);
width = 1346;
},
{
layerId = "2619DEE8-C08B-47F7-A010-C7FC63110412";
shapes = (
{
closed = 1;
nodes = (
(286,0,l),
(306,79,o),
(325,150,o),
(345,225,cs),
(365,300,o),
(386,379,o),
(410,468,cs),
(527,910,ls),
(551,1001,o),
(572,1079,o),
(592,1156,cs),
(612,1232,o),
(632,1306,o),
(653,1386,c),
(485,1216,l),
(862,1216,ls),
(883,1216,o),
(903,1214,o),
(924,1211,c),
(965,1203,o),
(1003,1188,o),
(1032,1161,cs),
(1046,1148,o),
(1057,1132,o),
(1066,1113,c),
(1082,1075,o),
(1084,1024,o),
(1067,957,c),
(1044,874,o),
(1013,817,o),
(962,780,cs),
(910,743,o),
(839,727,o),
(735,727,cs),
(448,727,l),
(397,532,l),
(737,532,ls),
(928,532,o),
(1057,566,o),
(1149,634,cs),
(1240,702,o),
(1293,804,o),
(1329,941,cs),
(1370,1096,o),
(1354,1217,o),
(1284,1300,cs),
(1214,1383,o),
(1091,1426,o),
(922,1426,cs),
(410,1426,l),
(390,1347,o),
(370,1273,o),
(349,1196,cs),
(328,1119,o),
(306,1037,o),
(282,944,cs),
(156,468,ls),
(132,379,o),
(112,300,o),
(92,225,cs),
(72,150,o),
(53,79,o),
(32,0,c)
);
},
{
closed = 1;
nodes = (
(1161,411,l),
(1114,492,o),
(1069,566,o),
(1033,629,c),
(945,753,l),
(908,817,o),
(864,890,o),
(817,971,c),
(687,880,l),
(736,797,o),
(778,727,o),
(817,662,cs),
(894,534,l),
(930,471,o),
(975,399,o),
(1023,316,c)
);
}
);
width = 1278;
},
{
layerId = "E9B47305-927A-4F8D-A320-B0B953B21E21";
shapes = (
{
closed = 1;
nodes = (
(228,0,l),
(248,79,o),
(267,153,o),
(288,229,cs),
(308,305,o),
(329,384,o),
(352,473,cs),
(473,927,ls),
(496,1015,o),
(517,1093,o),
(537,1170,cs),
(557,1246,o),
(577,1321,o),
(598,1401,c),
(483,1283,l),
(868,1283,ls),
(892,1283,o),
(917,1281,o),
(942,1278,c),
(992,1270,o),
(1039,1252,o),
(1076,1223,cs),
(1094,1208,o),
(1108,1190,o),
(1120,1167,c),
(1141,1123,o),
(1146,1062,o),
(1124,981,cs),
(1097,876,o),
(1057,808,o),
(994,765,cs),
(929,723,o),
(840,707,o),
(713,707,cs),
(393,707,l),
(357,573,l),
(710,573,ls),
(907,573,o),
(1036,606,o),
(1126,672,cs),
(1215,738,o),
(1264,837,o),
(1298,967,cs),
(1335,1107,o),
(1319,1222,o),
(1252,1302,cs),
(1184,1382,o),
(1068,1426,o),
(905,1426,cs),
(437,1426,l),
(416,1347,o),
(396,1272,o),
(376,1195,cs),
(355,1117,o),
(333,1036,o),
(309,944,cs),
(184,472,ls),
(160,384,o),
(140,305,o),
(120,229,cs),
(99,153,o),
(80,79,o),
(59,0,c)
);
},
{
closed = 1;
nodes = (
(1133,426,l),
(1085,508,o),
(1041,581,o),
(1005,643,c),
(930,757,l),
(891,823,o),
(849,893,o),
(801,975,c),
(709,911,l),
(757,829,o),
(800,758,o),
(838,693,cs),
(906,578,ls),
(942,516,o),
(988,441,o),
(1035,360,c)
);
}
);
width = 1252;
},
{
layerId = "F0D7A2F7-B8FF-408B-8955-93892ED6432C";
shapes = (
{
closed = 1;
nodes = (
(156,0,l),
(177,80,o),
(197,156,o),
(218,234,cs),
(238,312,o),
(259,391,o),
(282,479,cs),
(406,947,ls),
(429,1032,o),
(449,1110,o),
(469,1187,cs),
(489,1263,o),
(510,1339,o),
(531,1420,c),
(481,1364,l),
(875,1364,ls),
(904,1364,o),
(933,1362,o),
(964,1359,c),
(1025,1351,o),
(1082,1331,o),
(1129,1298,cs),
(1152,1281,o),
(1171,1260,o),
(1185,1234,cs),
(1213,1181,o),
(1221,1109,o),
(1194,1010,c),
(1161,878,o),
(1111,796,o),
(1032,747,cs),
(952,698,o),
(842,682,o),
(685,682,cs),
(326,682,l),
(308,622,l),
(677,622,ls),
(882,622,o),
(1011,655,o),
(1098,719,cs),
(1185,782,o),
(1228,877,o),
(1260,998,cs),
(1292,1121,o),
(1276,1228,o),
(1212,1304,cs),
(1148,1380,o),
(1039,1426,o),
(884,1426,cs),
(469,1426,l),
(448,1346,o),
(428,1271,o),
(408,1193,cs),
(387,1115,o),
(366,1035,o),
(342,944,cs),
(218,476,ls),
(195,389,o),
(174,310,o),
(154,233,cs),
(133,156,o),
(113,80,o),
(92,0,c)
);
},
{
closed = 1;
nodes = (
(1098,444,l),
(1049,528,o),
(1007,599,o),
(971,659,cs),
(911,762,ls),
(871,830,o),
(831,896,o),
(782,980,c),
(735,949,l),
(782,869,o),
(826,795,o),
(863,731,cs),
(921,632,ls),
(957,571,o),
(1003,493,o),
(1050,413,c)
);
}
);
width = 1220;
}
);
rightKerningGroup = uni0420;
unicode = 1166;
},
{
glyphname = Estailcyr;
layers = (
{
anchors = (
{
name = top;
position = "{1029, 1426}";
}
);
layerId = "B73C764B-EEC1-4CAF-B436-916766E5142A";
shapes = (
{
closed = 1;
nodes = (
(821,-32,o),
(894,-27,o),
(966,-17,cs),
(1037,-7,o),
(1107,10,o),
(1162,30,c),
(1262,497,l),
(1111,412,o),
(972,364,o),
(869,364,cs),
(830,364,o),
(795,369,o),
(765,380,cs),
(705,401,o),
(663,439,o),
(638,489,cs),
(625,514,o),
(616,540,o),
(611,569,cs),
(600,626,o),
(604,690,o),
(620,750,cs),
(651,866,o),
(703,941,o),
(767,986,cs),
(831,1031,o),
(907,1048,o),
(980,1048,cs),
(1048,1048,o),
(1111,1034,o),
(1174,1009,cs),
(1237,984,o),
(1299,949,o),
(1364,906,c),
(1515,1344,l),
(1446,1380,o),
(1359,1408,o),
(1268,1428,cs),
(1177,1448,o),
(1084,1458,o),
(1003,1458,cs),
(756,1458,o),
(565,1408,o),
(422,1305,cs),
(278,1201,o),
(183,1044,o),
(128,831,cs),
(108,755,o),
(98,681,o),
(97,609,cs),
(96,464,o),
(131,335,o),
(203,228,cs),
(239,175,o),
(284,129,o),
(338,90,cs),
(445,13,o),
(587,-32,o),
(762,-32,cs)
);
},
{
closed = 1;
nodes = (
(780,-300,l),
(817,-175,o),
(852,-51,o),
(889,74,c),
(461,74,l),
(432,-51,o),
(403,-175,o),
(372,-300,c)
);
}
);
width = 1364;
},
{
anchors = (
{
name = top;
position = "{1028, 1426}";
}
);
layerId = "2619DEE8-C08B-47F7-A010-C7FC63110412";
shapes = (
{
closed = 1;
nodes = (
(820,-24,o),
(893,-18,o),
(963,-4,cs),
(1033,11,o),
(1100,30,o),
(1153,58,c),
(1203,317,l),
(1068,232,o),
(927,193,o),
(802,193,cs),
(745,193,o),
(694,201,o),
(649,217,cs),
(560,248,o),
(495,303,o),
(455,378,cs),
(435,415,o),
(421,456,o),
(412,499,cs),
(394,586,o),
(399,683,o),
(424,779,cs),
(467,942,o),
(544,1054,o),
(644,1126,cs),
(743,1198,o),
(865,1230,o),
(1000,1230,cs),
(1079,1230,o),
(1149,1219,o),
(1217,1196,cs),
(1285,1173,o),
(1349,1139,o),
(1416,1092,c),
(1499,1327,l),
(1435,1368,o),
(1356,1400,o),
(1272,1421,cs),
(1188,1442,o),
(1098,1454,o),
(1013,1454,cs),
(789,1454,o),
(605,1403,o),
(463,1299,cs),
(321,1194,o),
(220,1036,o),
(164,824,cs),
(145,751,o),
(134,680,o),
(133,610,cs),
(130,470,o),
(163,343,o),
(229,237,cs),
(262,184,o),
(303,138,o),
(353,99,cs),
(453,22,o),
(586,-24,o),
(753,-24,cs)
);
},
{
closed = 1;
nodes = (
(694,-306,l),
(727,-190,o),
(760,-77,o),
(793,39,c),
(561,39,l),
(533,-77,o),
(505,-190,o),
(477,-306,c)
);
}
);
width = 1368;
},
{
anchors = (
{
name = top;
position = "{1028, 1426}";
}
);
layerId = "E9B47305-927A-4F8D-A320-B0B953B21E21";
shapes = (
{
closed = 1;
nodes = (
(820,-21,o),
(893,-14,o),
(962,1,cs),
(1031,16,o),
(1097,39,o),
(1150,69,c),
(1181,248,l),
(1053,164,o),
(911,128,o),
(777,128,cs),
(713,128,o),
(656,137,o),
(606,154,cs),
(506,189,o),
(432,251,o),
(387,336,c),
(363,377,o),
(347,423,o),
(337,472,cs),
(316,570,o),
(322,680,o),
(350,790,cs),
(399,971,o),
(484,1098,o),
(597,1180,cs),
(710,1262,o),
(851,1299,o),
(1008,1299,cs),
(1091,1299,o),
(1164,1290,o),
(1234,1268,cs),
(1304,1245,o),
(1370,1212,o),
(1437,1163,c),
(1494,1321,l),
(1432,1363,o),
(1356,1396,o),
(1275,1418,cs),
(1193,1440,o),
(1104,1452,o),
(1018,1452,cs),
(803,1452,o),
(622,1401,o),
(480,1296,cs),
(338,1191,o),
(234,1033,o),
(178,821,cs),
(160,750,o),
(149,680,o),
(148,611,cs),
(144,472,o),
(176,346,o),
(239,240,cs),
(271,187,o),
(312,141,o),
(360,102,cs),
(458,25,o),
(587,-21,o),
(751,-21,cs)
);
},
{
closed = 1;
nodes = (
(662,-308,l),
(694,-196,o),
(725,-86,o),
(757,26,c),
(599,26,l),
(572,-87,o),
(545,-196,o),
(517,-308,c)
);
}
);
width = 1370;
},
{
anchors = (
{
name = top;
position = "{1028, 1426}";
}
);
layerId = "F0D7A2F7-B8FF-408B-8955-93892ED6432C";
shapes = (
{
closed = 1;
nodes = (
(820,-18,o),
(893,-10,o),
(961,7,cs),
(1029,23,o),
(1094,49,o),
(1147,82,c),
(1155,164,l),
(1034,80,o),
(892,48,o),
(747,48,cs),
(674,48,o),
(610,58,o),
(553,78,cs),
(440,117,o),
(356,188,o),
(303,284,cs),
(276,331,o),
(257,383,o),
(245,439,cs),
(221,551,o),
(227,677,o),
(260,804,cs),
(315,1007,o),
(411,1152,o),
(540,1246,cs),
(669,1340,o),
(833,1384,o),
(1018,1384,cs),
(1105,1384,o),
(1183,1376,o),
(1255,1355,cs),
(1327,1334,o),
(1395,1301,o),
(1462,1250,c),
(1487,1313,l),
(1428,1357,o),
(1357,1392,o),
(1278,1415,cs),
(1198,1438,o),
(1111,1450,o),
(1023,1450,cs),
(819,1450,o),
(642,1398,o),
(500,1293,cs),
(358,1188,o),
(252,1030,o),
(196,818,cs),
(178,749,o),
(168,680,o),
(166,612,cs),
(162,475,o),
(191,350,o),
(252,244,cs),
(283,191,o),
(322,145,o),
(369,106,cs),
(463,29,o),
(589,-18,o),
(748,-18,cs)
);
},
{
closed = 1;
nodes = (
(622,-311,l),
(653,-204,o),
(683,-98,o),
(712,9,c),
(646,9,l),
(619,-99,o),
(593,-203,o),
(566,-311,c)
);
}
);
width = 1372;
}
);
leftKerningGroup = uni0404_2;
rightKerningGroup = uni0404;
unicode = 1194;
},
{
glyphname = Estailcyr.loclBSH;
layers = (
{
anchors = (
{
name = top;
position = "{1029, 1426}";
}
);
layerId = "B73C764B-EEC1-4CAF-B436-916766E5142A";
shapes = (
{
closed = 1;
nodes = (
(545,-456,o),
(513,-454,o),
(484,-451,c),
(424,-443,o),
(382,-430,o),
(358,-423,c),
(410,-180,l),
(423,-185,o),
(460,-198,o),
(491,-198,cs),
(520,-198,o),
(541,-193,o),
(556,-184,c),
(571,-173,o),
(580,-159,o),
(587,-139,cs),
(594,-120,o),
(595,-101,o),
(592,-82,cs),
(587,-45,o),
(567,-9,o),
(536,26,c),
(623,89,l),
(803,53,l),
(778,-31,l),
(793,-46,o),
(807,-67,o),
(826,-92,c),
(862,-143,o),
(891,-208,o),
(871,-289,c),
(842,-398,o),
(741,-456,o),
(580,-456,cs)
);
},
{
closed = 1;
nodes = (
(494,-32,o),
(307,65,o),
(200,225,cs),
(92,386,o),
(65,594,o),
(125,826,cs),
(162,967,o),
(216,1085,o),
(292,1178,cs),
(440,1365,o),
(671,1458,o),
(1003,1458,cs),
(1084,1458,o),
(1175,1449,o),
(1267,1430,cs),
(1359,1410,o),
(1441,1380,o),
(1513,1343,c),
(1382,904,l),
(1338,935,o),
(1295,959,o),
(1254,982,c),
(1170,1025,o),
(1088,1048,o),
(996,1048,cs),
(945,1048,o),
(895,1040,o),
(847,1025,cs),
(750,993,o),
(667,915,o),
(620,760,cs),
(592,668,o),
(591,570,o),
(627,493,cs),
(662,416,o),
(736,364,o),
(855,364,cs),
(907,364,o),
(966,375,o),
(1034,398,cs),
(1102,421,o),
(1170,452,o),
(1243,496,c),
(1163,32,l),
(1107,11,o),
(1038,-5,o),
(965,-16,cs),
(892,-27,o),
(818,-32,o),
(754,-32,cs)
);
}
);
width = 1364;
},
{
anchors = (
{
name = top;
position = "{1028, 1426}";
}
);
layerId = "2619DEE8-C08B-47F7-A010-C7FC63110412";
shapes = (
{
closed = 1;
nodes = (
(554,-426,o),
(531,-425,o),
(510,-422,cs),
(467,-415,o),
(432,-406,o),
(411,-401,c),
(443,-259,l),
(459,-264,o),
(501,-276,o),
(534,-276,cs),
(566,-276,o),
(592,-271,o),
(613,-260,cs),
(634,-249,o),
(648,-229,o),
(656,-200,cs),
(663,-177,o),
(662,-153,o),
(657,-128,cs),
(645,-76,o),
(614,-26,o),
(577,14,c),
(633,64,l),
(733,48,l),
(716,-4,l),
(739,-28,o),
(758,-55,o),
(777,-84,c),
(813,-143,o),
(834,-207,o),
(817,-279,c),
(790,-379,o),
(703,-426,o),
(578,-426,cs)
);
},
{
closed = 1;
nodes = (
(501,-24,o),
(326,75,o),
(227,235,cs),
(127,396,o),
(106,601,o),
(162,822,cs),
(199,963,o),
(256,1081,o),
(333,1174,cs),
(485,1361,o),
(713,1454,o),
(1012,1454,cs),
(1097,1454,o),
(1187,1442,o),
(1271,1421,cs),
(1355,1400,o),
(1433,1367,o),
(1497,1327,c),
(1424,1092,l),
(1379,1123,o),
(1335,1149,o),
(1291,1170,cs),
(1203,1211,o),
(1111,1230,o),
(1006,1230,cs),
(914,1230,o),
(832,1216,o),
(755,1187,cs),
(602,1130,o),
(483,1001,o),
(423,784,cs),
(383,639,o),
(390,492,o),
(450,379,cs),
(509,266,o),
(623,193,o),
(795,193,cs),
(859,193,o),
(924,202,o),
(992,222,cs),
(1060,242,o),
(1126,273,o),
(1194,316,c),
(1153,59,l),
(1097,31,o),
(1034,9,o),
(962,-4,cs),
(890,-17,o),
(817,-24,o),
(749,-24,cs)
);
}
);
width = 1368;
},
{
anchors = (
{
name = top;
position = "{1028, 1426}";
}
);
layerId = "E9B47305-927A-4F8D-A320-B0B953B21E21";
shapes = (
{
closed = 1;
nodes = (
(557,-414,o),
(538,-414,o),
(520,-411,cs),
(483,-405,o),
(451,-397,o),
(431,-392,c),
(456,-289,l),
(473,-294,o),
(516,-306,o),
(550,-306,cs),
(584,-306,o),
(612,-300,o),
(635,-289,cs),
(657,-278,o),
(673,-256,o),
(682,-223,cs),
(689,-199,o),
(688,-173,o),
(681,-145,cs),
(667,-88,o),
(632,-32,o),
(593,9,c),
(637,55,l),
(706,46,l),
(693,6,l),
(718,-21,o),
(739,-50,o),
(758,-81,cs),
(794,-143,o),
(813,-207,o),
(796,-275,c),
(771,-370,o),
(690,-414,o),
(577,-414,cs)
);
},
{
closed = 1;
nodes = (
(504,-21,o),
(333,79,o),
(237,239,cs),
(141,400,o),
(120,604,o),
(176,820,cs),
(213,961,o),
(270,1079,o),
(348,1172,c),
(502,1359,o),
(729,1452,o),
(1016,1452,cs),
(1102,1452,o),
(1191,1440,o),
(1273,1418,cs),
(1355,1396,o),
(1429,1363,o),
(1491,1321,c),
(1440,1163,l),
(1395,1195,o),
(1351,1221,o),
(1305,1242,cs),
(1216,1282,o),
(1120,1299,o),
(1010,1299,cs),
(903,1299,o),
(808,1283,o),
(720,1248,cs),
(546,1180,o),
(414,1033,o),
(348,793,c),
(304,626,o),
(314,464,o),
(383,336,cs),
(451,209,o),
(580,128,o),
(772,128,cs),
(840,128,o),
(908,136,o),
(976,156,cs),
(1045,175,o),
(1111,206,o),
(1175,248,c),
(1149,69,l),
(1094,38,o),
(1031,15,o),
(961,1,cs),
(890,-14,o),
(817,-21,o),
(747,-21,cs)
);
}
);
width = 1370;
},
{
anchors = (
{
name = top;
position = "{1028, 1426}";
}
);
layerId = "F0D7A2F7-B8FF-408B-8955-93892ED6432C";
shapes = (
{
closed = 1;
nodes = (
(561,-400,o),
(547,-400,o),
(532,-397,c),
(503,-393,o),
(475,-386,o),
(456,-382,c),
(471,-326,l),
(490,-331,o),
(535,-342,o),
(570,-342,cs),
(605,-342,o),
(636,-336,o),
(661,-325,cs),
(686,-314,o),
(703,-289,o),
(714,-252,c),
(721,-225,o),
(720,-197,o),
(711,-166,cs),
(694,-102,o),
(655,-40,o),
(612,3,c),
(642,43,l),
(674,43,l),
(664,18,l),
(692,-13,o),
(715,-44,o),
(734,-77,cs),
(771,-142,o),
(787,-207,o),
(771,-271,c),
(747,-359,o),
(673,-400,o),
(576,-400,cs)
);
},
{
closed = 1;
nodes = (
(508,-18,o),
(342,84,o),
(250,244,cs),
(158,405,o),
(138,607,o),
(194,818,cs),
(231,959,o),
(287,1077,o),
(367,1170,cs),
(523,1357,o),
(748,1450,o),
(1020,1450,cs),
(1109,1450,o),
(1195,1438,o),
(1275,1415,cs),
(1355,1391,o),
(1424,1357,o),
(1484,1313,c),
(1459,1250,l),
(1414,1283,o),
(1370,1310,o),
(1323,1330,cs),
(1231,1369,o),
(1132,1384,o),
(1015,1384,cs),
(890,1384,o),
(779,1364,o),
(678,1323,cs),
(477,1242,o),
(329,1073,o),
(257,804,cs),
(208,611,o),
(221,429,o),
(301,284,cs),
(380,140,o),
(527,48,o),
(744,48,cs),
(816,48,o),
(888,56,o),
(957,75,cs),
(1026,94,o),
(1092,123,o),
(1152,164,c),
(1144,82,l),
(1091,47,o),
(1027,22,o),
(959,6,cs),
(890,-10,o),
(817,-18,o),
(745,-18,cs)
);
}
);
width = 1372;
}
);
leftKerningGroup = uni0404_2;
rightKerningGroup = uni0404;
},
{
glyphname = Eth;
layers = (
{
anchors = (
{
name = bottom;
position = "{578, 0}";
},
{
name = top;
position = "{953, 1426}";
}
);
layerId = "B73C764B-EEC1-4CAF-B436-916766E5142A";
shapes = (
{
closed = 1;
nodes = (
(-13,552,l),
(58,874,l),
(410,874,l),
(506,874,l),
(858,874,l),
(787,552,l),
(435,552,l),
(339,552,l)
);
},
{
closed = 1;
nodes = (
(-42,0,l),
(-21,76,o),
(-2,146,o),
(17,215,cs),
(36,284,o),
(56,365,o),
(81,458,cs),
(210,947,ls),
(235,1043,o),
(257,1128,o),
(277,1201,cs),
(296,1274,o),
(317,1349,o),
(338,1426,c),
(500,1426,l),
(911,1426,ls),
(1135,1426,o),
(1299,1337,o),
(1392,1193,cs),
(1485,1048,o),
(1509,858,o),
(1456,649,cs),
(1404,444,o),
(1322,286,o),
(1181,173,cs),
(1042,61,o),
(840,0,o),
(551,0,cs),
(332,0,l)
);
},
{
closed = 1;
nodes = (
(597,386,ls),
(666,386,o),
(723,398,o),
(768,425,c),
(813,450,o),
(851,485,o),
(880,532,cs),
(909,579,o),
(934,631,o),
(953,692,cs),
(982,784,o),
(986,866,o),
(961,934,cs),
(936,1002,o),
(882,1040,o),
(794,1040,cs),
(744,1040,l),
(735,1008,o),
(724,978,o),
(713,945,cs),
(702,912,o),
(691,874,o),
(676,826,cs),
(601,590,l),
(576,502,o),
(557,446,o),
(538,386,c)
);
}
);
width = 1460;
},
{
anchors = (
{
name = bottom;
position = "{574, 0}";
},
{
name = top;
position = "{949, 1426}";
}
);
layerId = "2619DEE8-C08B-47F7-A010-C7FC63110412";
shapes = (
{
closed = 1;
nodes = (
(8,612,l),
(48,792,l),
(390,792,l),
(484,792,l),
(827,792,l),
(786,612,l),
(444,612,l),
(350,612,l)
);
},
{
closed = 1;
nodes = (
(30,0,l),
(51,77,o),
(71,152,o),
(90,225,cs),
(109,298,o),
(130,379,o),
(154,468,cs),
(281,945,ls),
(305,1038,o),
(327,1122,o),
(347,1198,cs),
(367,1274,o),
(388,1349,o),
(409,1426,c),
(556,1426,l),
(869,1426,ls),
(1102,1426,o),
(1272,1334,o),
(1365,1189,cs),
(1461,1044,o),
(1483,855,o),
(1430,651,cs),
(1377,444,o),
(1296,286,o),
(1160,173,cs),
(1027,61,o),
(832,0,o),
(559,0,cs),
(369,0,l)
);
},
{
closed = 1;
nodes = (
(581,210,ls),
(702,210,o),
(800,228,o),
(876,267,cs),
(952,306,o),
(1013,357,o),
(1058,429,cs),
(1103,501,o),
(1139,583,o),
(1166,680,cs),
(1205,817,o),
(1200,950,o),
(1140,1051,c),
(1083,1152,o),
(974,1216,o),
(806,1216,cs),
(619,1216,l),
(606,1167,o),
(592,1117,o),
(577,1065,cs),
(562,1012,o),
(546,957,o),
(529,893,cs),
(427,528,ls),
(394,404,o),
(367,310,o),
(339,210,c)
);
}
);
width = 1470;
},
{
anchors = (
{
name = bottom;
position = "{572, 0}";
},
{
name = top;
position = "{947, 1426}";
}
);
layerId = "E9B47305-927A-4F8D-A320-B0B953B21E21";
shapes = (
{
closed = 1;
nodes = (
(16,635,l),
(44,761,l),
(383,761,l),
(476,761,l),
(815,761,l),
(786,635,l),
(447,635,l),
(354,635,l)
);
},
{
closed = 1;
nodes = (
(57,0,l),
(79,78,o),
(99,154,o),
(118,229,cs),
(137,303,o),
(158,383,o),
(182,472,cs),
(308,945,ls),
(332,1037,o),
(354,1120,o),
(374,1197,cs),
(394,1273,o),
(415,1349,o),
(436,1426,c),
(578,1426,l),
(853,1426,ls),
(1090,1426,o),
(1260,1334,o),
(1355,1188,cs),
(1451,1041,o),
(1473,854,o),
(1420,652,c),
(1367,444,o),
(1286,286,o),
(1152,173,cs),
(1021,61,o),
(829,0,o),
(562,0,cs),
(383,0,l)
);
},
{
closed = 1;
nodes = (
(575,143,ls),
(717,143,o),
(828,164,o),
(917,207,cs),
(1006,250,o),
(1074,309,o),
(1126,390,cs),
(1177,471,o),
(1217,564,o),
(1247,676,cs),
(1290,832,o),
(1281,980,o),
(1208,1096,c),
(1138,1211,o),
(1008,1283,o),
(811,1283,cs),
(572,1283,l),
(557,1226,o),
(542,1169,o),
(525,1110,cs),
(508,1050,o),
(492,988,o),
(473,919,cs),
(361,505,l),
(325,368,o),
(295,258,o),
(264,143,c)
);
}
);
width = 1474;
},
{
anchors = (
{
name = bottom;
position = "{570, 0}";
},
{
name = top;
position = "{945, 1426}";
}
);
layerId = "F0D7A2F7-B8FF-408B-8955-93892ED6432C";
shapes = (
{
closed = 1;
nodes = (
(25,662,l),
(40,722,l),
(374,722,l),
(466,722,l),
(800,722,l),
(785,662,l),
(451,662,l),
(359,662,l)
);
},
{
closed = 1;
nodes = (
(90,0,l),
(113,80,o),
(133,157,o),
(152,233,cs),
(171,309,o),
(193,388,o),
(216,476,cs),
(340,944,ls),
(364,1036,o),
(386,1118,o),
(406,1195,cs),
(426,1272,o),
(447,1349,o),
(468,1426,c),
(604,1426,l),
(833,1426,ls),
(1076,1426,o),
(1246,1333,o),
(1342,1186,cs),
(1438,1037,o),
(1461,852,o),
(1408,653,cs),
(1355,445,o),
(1274,286,o),
(1142,173,cs),
(1013,61,o),
(826,0,o),
(565,0,cs),
(401,0,l)
);
},
{
closed = 1;
nodes = (
(567,62,ls),
(735,62,o),
(863,86,o),
(967,134,cs),
(1071,182,o),
(1148,250,o),
(1208,342,cs),
(1268,434,o),
(1312,541,o),
(1345,670,cs),
(1393,850,o),
(1379,1017,o),
(1291,1150,cs),
(1206,1283,o),
(1049,1364,o),
(816,1364,cs),
(514,1364,l),
(497,1299,o),
(481,1233,o),
(462,1165,cs),
(443,1097,o),
(425,1026,o),
(405,950,cs),
(280,476,ls),
(240,323,o),
(207,195,o),
(172,62,c)
);
}
);
width = 1478;
}
);
leftKerningGroup = Eth;
rightKerningGroup = D;
unicode = 208;
},
{
glyphname = F;
layers = (
{
layerId = "B73C764B-EEC1-4CAF-B436-916766E5142A";
shapes = (
{
closed = 1;
nodes = (
(438,0,l),
(457,73,o),
(475,142,o),
(495,215,cs),
(514,288,o),
(535,366,o),
(559,458,cs),
(668,868,ls),
(693,963,o),
(715,1045,o),
(735,1122,cs),
(755,1198,o),
(774,1270,o),
(794,1346,c),
(516,1022,l),
(830,1022,l),
(1234,1022,l),
(1339,1426,l),
(338,1426,l),
(317,1346,o),
(297,1274,o),
(277,1198,cs),
(256,1122,o),
(235,1043,o),
(210,948,cs),
(80,459,ls),
(55,366,o),
(34,287,o),
(15,215,cs),
(-5,142,o),
(-23,75,o),
(-43,0,c)
);
},
{
closed = 1;
nodes = (
(688,490,l),
(1070,490,l),
(1170,876,l),
(788,876,l),
(544,876,l),
(444,490,l)
);
}
);
width = 1162;
},
{
layerId = "2619DEE8-C08B-47F7-A010-C7FC63110412";
shapes = (
{
closed = 1;
nodes = (
(284,0,l),
(304,77,o),
(324,150,o),
(344,226,cs),
(364,301,o),
(384,380,o),
(408,469,cs),
(524,906,ls),
(548,997,o),
(570,1078,o),
(591,1156,cs),
(611,1234,o),
(631,1309,o),
(651,1386,c),
(496,1207,l),
(788,1207,l),
(1251,1207,l),
(1309,1426,l),
(408,1426,l),
(387,1347,o),
(367,1274,o),
(347,1196,cs),
(326,1118,o),
(305,1037,o),
(281,945,cs),
(154,469,ls),
(130,378,o),
(109,301,o),
(89,226,cs),
(69,150,o),
(50,79,o),
(29,0,c)
);
},
{
closed = 1;
nodes = (
(636,601,l),
(1056,601,l),
(1112,811,l),
(693,811,l),
(435,811,l),
(379,601,l)
);
}
);
width = 1151;
},
{
layerId = "E9B47305-927A-4F8D-A320-B0B953B21E21";
shapes = (
{
closed = 1;
nodes = (
(226,0,l),
(246,79,o),
(266,153,o),
(286,230,cs),
(306,305,o),
(327,384,o),
(350,473,cs),
(470,921,ls),
(493,1010,o),
(515,1091,o),
(536,1169,cs),
(556,1248,o),
(576,1323,o),
(597,1401,c),
(488,1278,l),
(771,1278,l),
(1257,1278,l),
(1297,1426,l),
(435,1426,l),
(414,1348,o),
(394,1274,o),
(374,1196,cs),
(353,1117,o),
(332,1036,o),
(308,944,cs),
(182,473,ls),
(158,383,o),
(137,305,o),
(117,230,cs),
(97,153,o),
(77,80,o),
(56,0,c)
);
},
{
closed = 1;
nodes = (
(616,643,l),
(1051,643,l),
(1090,786,l),
(657,786,l),
(393,786,l),
(354,643,l)
);
}
);
width = 1147;
},
{
layerId = "F0D7A2F7-B8FF-408B-8955-93892ED6432C";
shapes = (
{
closed = 1;
nodes = (
(154,0,l),
(175,81,o),
(195,157,o),
(216,234,cs),
(236,310,o),
(257,389,o),
(280,477,cs),
(403,939,ls),
(426,1026,o),
(447,1106,o),
(468,1185,cs),
(489,1264,o),
(509,1340,o),
(530,1420,c),
(479,1364,l),
(751,1364,l),
(1265,1364,l),
(1283,1426,l),
(467,1426,l),
(447,1349,o),
(426,1274,o),
(406,1195,cs),
(385,1115,o),
(364,1034,o),
(340,943,cs),
(216,477,ls),
(193,389,o),
(172,310,o),
(152,234,cs),
(131,157,o),
(111,81,o),
(90,0,c)
);
},
{
closed = 1;
nodes = (
(592,694,l),
(1044,694,l),
(1062,756,l),
(612,756,l),
(342,756,l),
(324,694,l)
);
}
);
width = 1142;
}
);
leftKerningGroup = B;
unicode = 70;
},
{
glyphname = Fitacyr;
layers = (
{
anchors = (
{
name = top;
position = "{1056, 1426}";
}
);
layerId = "B73C764B-EEC1-4CAF-B436-916766E5142A";
shapes = (
{
closed = 1;
nodes = (
(1014,-32,o),
(1191,33,o),
(1327,146,cs),
(1463,258,o),
(1559,418,o),
(1611,610,cs),
(1631,686,o),
(1641,760,o),
(1641,831,cs),
(1641,973,o),
(1602,1100,o),
(1526,1205,cs),
(1487,1257,o),
(1440,1302,o),
(1384,1339,cs),
(1272,1414,o),
(1124,1458,o),
(941,1458,cs),
(728,1458,o),
(550,1400,o),
(414,1293,cs),
(277,1185,o),
(180,1029,o),
(128,830,cs),
(109,755,o),
(99,682,o),
(99,611,cs),
(98,467,o),
(134,339,o),
(208,231,cs),
(245,177,o),
(291,131,o),
(347,92,cs),
(459,14,o),
(610,-32,o),
(798,-32,cs)
);
},
{
closed = 1;
nodes = (
(721,350,o),
(660,383,o),
(622,429,cs),
(584,475,o),
(568,534,o),
(572,589,c),
(638,835,ls),
(655,902,o),
(686,962,o),
(735,1006,cs),
(783,1049,o),
(849,1076,o),
(934,1076,cs),
(1014,1076,o),
(1072,1046,o),
(1110,1002,cs),
(1148,957,o),
(1165,896,o),
(1166,835,c),
(1100,589,l),
(1085,528,o),
(1057,468,o),
(1010,424,cs),
(962,379,o),
(897,350,o),
(806,350,cs)
);
},
{
closed = 1;
nodes = (
(1190,551,l),
(1275,871,l),
(564,871,l),
(479,551,l)
);
}
);
width = 1622;
},
{
anchors = (
{
name = top;
position = "{1061, 1426}";
}
);
layerId = "2619DEE8-C08B-47F7-A010-C7FC63110412";
shapes = (
{
closed = 1;
nodes = (
(997,-24,o),
(1168,39,o),
(1301,148,cs),
(1434,257,o),
(1531,413,o),
(1582,600,cs),
(1602,675,o),
(1612,749,o),
(1612,820,cs),
(1611,963,o),
(1573,1091,o),
(1500,1197,cs),
(1463,1250,o),
(1419,1295,o),
(1366,1333,cs),
(1260,1409,o),
(1121,1454,o),
(956,1454,cs),
(757,1454,o),
(586,1394,o),
(451,1285,cs),
(315,1176,o),
(216,1016,o),
(163,816,cs),
(144,742,o),
(134,670,o),
(135,599,cs),
(136,458,o),
(174,333,o),
(248,229,cs),
(285,177,o),
(330,132,o),
(383,95,cs),
(490,19,o),
(631,-24,o),
(800,-24,cs)
);
},
{
closed = 1;
nodes = (
(661,193,o),
(550,243,o),
(478,327,cs),
(406,410,o),
(376,525,o),
(393,657,c),
(424,771,l),
(452,911,o),
(514,1028,o),
(604,1109,cs),
(694,1190,o),
(811,1237,o),
(954,1237,cs),
(1090,1237,o),
(1198,1186,o),
(1267,1102,cs),
(1336,1018,o),
(1368,902,o),
(1352,771,c),
(1322,657,l),
(1301,521,o),
(1241,406,o),
(1153,324,cs),
(1064,242,o),
(945,193,o),
(804,193,cs)
);
},
{
closed = 1;
nodes = (
(1369,612,l),
(1427,826,l),
(397,826,l),
(339,612,l)
);
}
);
width = 1631;
},
{
anchors = (
{
name = top;
position = "{1064, 1426}";
}
);
layerId = "E9B47305-927A-4F8D-A320-B0B953B21E21";
shapes = (
{
closed = 1;
nodes = (
(992,-21,o),
(1159,41,o),
(1291,150,cs),
(1423,258,o),
(1521,412,o),
(1571,597,cs),
(1591,672,o),
(1601,746,o),
(1601,817,c),
(1600,960,o),
(1562,1087,o),
(1491,1194,cs),
(1454,1247,o),
(1411,1292,o),
(1359,1331,cs),
(1256,1407,o),
(1121,1452,o),
(962,1452,cs),
(769,1452,o),
(600,1392,o),
(465,1282,cs),
(330,1172,o),
(230,1012,o),
(176,811,cs),
(157,737,o),
(148,665,o),
(149,595,cs),
(150,454,o),
(189,331,o),
(263,228,cs),
(300,177,o),
(344,132,o),
(397,96,cs),
(502,21,o),
(639,-21,o),
(801,-21,cs)
);
},
{
closed = 1;
nodes = (
(640,128,o),
(508,186,o),
(423,285,cs),
(338,383,o),
(301,522,o),
(326,683,c),
(343,747,l),
(375,915,o),
(447,1054,o),
(553,1151,cs),
(658,1248,o),
(796,1303,o),
(961,1303,cs),
(1118,1303,o),
(1244,1243,o),
(1325,1143,cs),
(1406,1043,o),
(1443,905,o),
(1423,747,c),
(1407,683,l),
(1382,520,o),
(1312,381,o),
(1208,283,cs),
(1104,185,o),
(965,128,o),
(804,128,cs)
);
},
{
closed = 1;
nodes = (
(1440,649,l),
(1480,795,l),
(328,795,l),
(289,649,l)
);
}
);
width = 1634;
},
{
anchors = (
{
name = top;
position = "{1067, 1426}";
}
);
layerId = "F0D7A2F7-B8FF-408B-8955-93892ED6432C";
shapes = (
{
closed = 1;
nodes = (
(986,-18,o),
(1148,44,o),
(1279,152,cs),
(1410,259,o),
(1508,411,o),
(1557,594,cs),
(1577,669,o),
(1587,742,o),
(1587,813,cs),
(1586,956,o),
(1549,1083,o),
(1479,1190,cs),
(1444,1243,o),
(1401,1289,o),
(1351,1328,cs),
(1251,1404,o),
(1121,1450,o),
(969,1450,cs),
(784,1450,o),
(617,1390,o),
(483,1279,cs),
(349,1168,o),
(247,1007,o),
(192,804,cs),
(173,730,o),
(164,658,o),
(165,589,cs),
(168,450,o),
(208,328,o),
(281,227,cs),
(318,176,o),
(362,133,o),
(414,97,cs),
(517,24,o),
(648,-18,o),
(803,-18,cs)
);
},
{
closed = 1;
nodes = (
(615,48,o),
(457,117,o),
(356,234,cs),
(255,351,o),
(210,518,o),
(243,715,c),
(243,717,l),
(280,920,o),
(366,1086,o),
(490,1202,cs),
(614,1318,o),
(777,1384,o),
(969,1384,cs),
(1153,1384,o),
(1300,1313,o),
(1396,1194,cs),
(1492,1074,o),
(1535,908,o),
(1510,717,c),
(1510,715,l),
(1482,518,o),
(1398,350,o),
(1275,233,cs),
(1152,116,o),
(989,48,o),
(804,48,cs)
);
},
{
closed = 1;
nodes = (
(1527,694,l),
(1544,756,l),
(244,756,l),
(228,694,l)
);
}
);
width = 1638;
}
);
leftKerningGroup = uni0404_2;
rightKerningGroup = uni041E;
unicode = 1138;
},
{
glyphname = G;
layers = (
{
anchors = (
{
name = bottom;
position = "{654, 0}";
},
{
name = top;
position = "{1029, 1426}";
}
);
layerId = "B73C764B-EEC1-4CAF-B436-916766E5142A";
shapes = (
{
closed = 1;
nodes = (
(498,-30,o),
(303,71,o),
(196,232,cs),
(88,393,o),
(68,602,o),
(125,826,cs),
(164,975,o),
(220,1094,o),
(296,1187,cs),
(449,1375,o),
(671,1458,o),
(980,1458,cs),
(1093,1458,o),
(1201,1447,o),
(1301,1426,cs),
(1401,1405,o),
(1488,1377,o),
(1560,1342,c),
(1427,902,l),
(1366,943,o),
(1309,973,o),
(1253,994,cs),
(1144,1035,o),
(1053,1048,o),
(992,1048,cs),
(924,1048,o),
(848,1036,o),
(780,996,cs),
(712,956,o),
(653,884,o),
(616,763,cs),
(585,663,o),
(586,565,o),
(621,485,cs),
(656,405,o),
(725,354,o),
(830,354,cs),
(918,354,o),
(987,361,o),
(1055,380,cs),
(1123,399,o),
(1192,424,o),
(1269,463,c),
(1238,36,l),
(1189,17,o),
(1118,1,o),
(1037,-12,cs),
(956,-24,o),
(870,-30,o),
(789,-30,cs)
);
},
{
closed = 1;
nodes = (
(776,26,l),
(913,539,l),
(745,539,l),
(830,855,l),
(1456,855,l),
(1237,36,l)
);
}
);
width = 1450;
},
{
anchors = (
{
name = bottom;
position = "{662, 0}";
},
{
name = top;
position = "{1037, 1426}";
}
);
layerId = "2619DEE8-C08B-47F7-A010-C7FC63110412";
shapes = (
{
closed = 1;
nodes = (
(511,-23,o),
(326,76,o),
(226,236,cs),
(125,397,o),
(105,602,o),
(162,822,cs),
(201,967,o),
(256,1084,o),
(332,1177,cs),
(485,1366,o),
(703,1454,o),
(994,1454,cs),
(1098,1454,o),
(1196,1442,o),
(1288,1418,cs),
(1380,1394,o),
(1460,1362,o),
(1528,1319,c),
(1454,1084,l),
(1401,1123,o),
(1349,1152,o),
(1297,1173,cs),
(1192,1216,o),
(1092,1230,o),
(1000,1230,cs),
(867,1230,o),
(747,1202,o),
(647,1134,cs),
(547,1065,o),
(469,956,o),
(421,785,cs),
(381,636,o),
(386,493,o),
(446,376,cs),
(506,261,o),
(623,188,o),
(803,188,cs),
(883,188,o),
(952,195,o),
(1021,212,cs),
(1090,228,o),
(1161,255,o),
(1234,294,c),
(1220,56,l),
(1168,33,o),
(1100,14,o),
(1024,-1,cs),
(947,-16,o),
(867,-23,o),
(783,-23,cs)
);
},
{
closed = 1;
nodes = (
(956,49,l),
(1104,600,l),
(725,600,l),
(786,830,l),
(1428,830,l),
(1220,54,l)
);
}
);
width = 1461;
},
{
anchors = (
{
name = bottom;
position = "{668, 0}";
},
{
name = top;
position = "{1043, 1426}";
}
);
layerId = "E9B47305-927A-4F8D-A320-B0B953B21E21";
shapes = (
{
closed = 1;
nodes = (
(516,-21,o),
(335,78,o),
(238,238,cs),
(139,399,o),
(119,602,o),
(176,820,cs),
(211,950,o),
(260,1057,o),
(325,1145,c),
(476,1353,o),
(702,1452,o),
(999,1452,cs),
(1096,1452,o),
(1188,1441,o),
(1275,1418,cs),
(1367,1393,o),
(1448,1358,o),
(1516,1310,c),
(1464,1153,l),
(1404,1200,o),
(1342,1232,o),
(1278,1254,c),
(1184,1288,o),
(1093,1299,o),
(1003,1299,cs),
(847,1299,o),
(712,1266,o),
(599,1188,cs),
(485,1108,o),
(399,983,o),
(347,793,c),
(303,625,o),
(310,464,o),
(379,335,cs),
(449,207,o),
(584,125,o),
(793,125,cs),
(868,125,o),
(937,132,o),
(1007,148,cs),
(1077,164,o),
(1148,191,o),
(1221,230,c),
(1213,63,l),
(1159,38,o),
(1091,18,o),
(1014,2,cs),
(939,-13,o),
(863,-21,o),
(781,-21,cs)
);
},
{
closed = 1;
nodes = (
(1040,60,l),
(1194,633,l),
(717,633,l),
(758,788,l),
(1408,788,l),
(1214,63,l)
);
}
);
width = 1466;
},
{
anchors = (
{
name = bottom;
position = "{673, 0}";
},
{
name = top;
position = "{1048, 1426}";
}
);
layerId = "F0D7A2F7-B8FF-408B-8955-93892ED6432C";
shapes = (
{
closed = 1;
nodes = (
(523,-18,o),
(347,81,o),
(252,240,cs),
(156,401,o),
(137,602,o),
(194,818,cs),
(223,930,o),
(264,1024,o),
(317,1105,cs),
(466,1338,o),
(700,1450,o),
(1005,1450,cs),
(1093,1450,o),
(1179,1440,o),
(1259,1417,cs),
(1352,1392,o),
(1433,1352,o),
(1501,1300,c),
(1476,1238,l),
(1408,1294,o),
(1334,1329,o),
(1254,1352,cs),
(1174,1375,o),
(1095,1384,o),
(1007,1384,cs),
(823,1384,o),
(669,1345,o),
(541,1253,cs),
(409,1160,o),
(314,1015,o),
(257,803,cs),
(208,611,o),
(217,429,o),
(298,284,cs),
(379,140,o),
(537,48,o),
(781,48,cs),
(850,48,o),
(918,54,o),
(990,70,cs),
(1062,86,o),
(1132,112,o),
(1204,151,c),
(1205,72,l),
(1148,45,o),
(1079,22,o),
(1002,6,cs),
(930,-9,o),
(858,-18,o),
(778,-18,cs)
);
},
{
closed = 1;
nodes = (
(1142,74,l),
(1303,674,l),
(707,674,l),
(723,736,l),
(1383,736,l),
(1206,74,l)
);
}
);
width = 1472;
}
);
leftKerningGroup = C2;
rightKerningGroup = G;
unicode = 71;
},
{
glyphname = Gecyr;
layers = (
{
anchors = (
{
name = bottomright;
position = "{450, 0}";
},
{
name = top;
position = "{841, 1426}";
}
);
layerId = "B73C764B-EEC1-4CAF-B436-916766E5142A";
shapes = (
{
closed = 1;
nodes = (
(454,0,l),
(474,75,o),
(492,142,o),
(512,215,cs),
(531,287,o),
(552,365,o),
(577,461,cs),
(686,868,ls),
(711,964,o),
(733,1045,o),
(753,1121,cs),
(773,1197,o),
(793,1269,o),
(813,1346,c),
(517,1002,l),
(762,1002,l),
(1256,1002,l),
(1368,1426,l),
(340,1426,l),
(319,1346,o),
(299,1274,o),
(279,1198,cs),
(258,1122,o),
(237,1043,o),
(212,948,cs),
(82,461,ls),
(57,366,o),
(36,288,o),
(17,216,cs),
(-3,143,o),
(-21,76,o),
(-41,0,c)
);
}
);
width = 1180;
},
{
anchors = (
{
name = bottomright;
position = "{320, 0}";
},
{
name = top;
position = "{857, 1426}";
}
);
layerId = "2619DEE8-C08B-47F7-A010-C7FC63110412";
shapes = (
{
closed = 1;
nodes = (
(293,0,l),
(313,77,o),
(332,149,o),
(352,225,cs),
(372,300,o),
(393,378,o),
(417,469,cs),
(534,909,ls),
(558,1000,o),
(579,1080,o),
(600,1157,cs),
(620,1234,o),
(640,1307,o),
(661,1386,c),
(500,1198,l),
(754,1198,l),
(1258,1198,l),
(1319,1426,l),
(410,1426,l),
(389,1346,o),
(369,1271,o),
(349,1195,cs),
(328,1118,o),
(307,1037,o),
(283,945,cs),
(156,469,ls),
(132,378,o),
(111,300,o),
(91,225,cs),
(71,149,o),
(52,77,o),
(31,0,c)
);
}
);
width = 1143;
},
{
anchors = (
{
name = bottomright;
position = "{227, 0}";
},
{
name = top;
position = "{868, 1426}";
}
);
layerId = "E9B47305-927A-4F8D-A320-B0B953B21E21";
shapes = (
{
closed = 1;
nodes = (
(231,0,l),
(252,78,o),
(271,152,o),
(292,229,cs),
(312,305,o),
(333,383,o),
(356,472,cs),
(476,925,ls),
(500,1014,o),
(521,1094,o),
(542,1171,cs),
(562,1248,o),
(582,1322,o),
(603,1401,c),
(493,1273,l),
(751,1273,l),
(1259,1273,l),
(1300,1426,l),
(437,1426,l),
(416,1346,o),
(396,1271,o),
(376,1194,cs),
(355,1117,o),
(334,1036,o),
(310,945,cs),
(184,472,ls),
(160,383,o),
(139,305,o),
(119,229,cs),
(99,152,o),
(79,78,o),
(58,0,c)
);
}
);
width = 1129;
},
{
anchors = (
{
name = bottomright;
position = "{153, 0}";
},
{
name = top;
position = "{877, 1426}";
}
);
layerId = "F0D7A2F7-B8FF-408B-8955-93892ED6432C";
shapes = (
{
closed = 1;
nodes = (
(156,0,l),
(177,80,o),
(197,156,o),
(218,233,cs),
(238,310,o),
(259,389,o),
(282,476,cs),
(406,944,ls),
(429,1031,o),
(450,1111,o),
(471,1188,cs),
(491,1265,o),
(511,1340,o),
(532,1420,c),
(485,1364,l),
(747,1364,l),
(1261,1364,l),
(1277,1426,l),
(469,1426,l),
(448,1346,o),
(428,1271,o),
(408,1193,cs),
(387,1115,o),
(366,1035,o),
(342,944,cs),
(218,476,ls),
(195,389,o),
(174,310,o),
(154,233,cs),
(133,156,o),
(113,80,o),
(92,0,c)
);
}
);
width = 1112;
}
);
rightKerningGroup = uni0403;
unicode = 1043;
},
